<?xml version="1.0" standalone="no"?>
<!DOCTYPE svg PUBLIC "-//W3C//DTD SVG 1.1//EN" "http://www.w3.org/Graphics/SVG/1.1/DTD/svg11.dtd" >
<svg xmlns="http://www.w3.org/2000/svg" xmlns:xlink="http://www.w3.org/1999/xlink" version="1.1">
<metadata>
Created by FontForge 20201107 at Tue May  9 12:59:17 2017
 By 
(c) 2017 H &#38; M Hennes &#38; Mauritz AB
</metadata>
<defs>
<font id="ArketSans-Regular" horiz-adv-x="576" >
  <font-face 
    font-family="Arket Sans"
    font-weight="400"
    font-stretch="normal"
    units-per-em="1000"
    panose-1="2 11 5 3 7 1 2 2 2 2"
    ascent="800"
    descent="-200"
    x-height="480"
    cap-height="700"
    bbox="-444 -251 999 923"
    underline-thickness="50"
    underline-position="-100"
    unicode-range="U+000D-25CA"
  />
<missing-glyph horiz-adv-x="600" 
d="M600 700v-700h-600v700h600zM40 40h520v620h-520v-620zM251 258q0 35 10.5 59t26 38.5t39.5 31.5q29 21 42 37t13 43q0 32 -21 52t-59 20q-87 0 -84 -99h-86q-2 74 38.5 119t131.5 45q86 0 125.5 -40.5t39.5 -94.5q0 -43 -19.5 -67.5t-58.5 -51.5q-33 -24 -50 -43.5
t-17 -50.5v-16h-71v18zM243 190h89v-92h-89v92z" />
    <glyph glyph-name=".notdef" horiz-adv-x="600" 
d="M600 700v-700h-600v700h600zM40 40h520v620h-520v-620zM251 258q0 35 10.5 59t26 38.5t39.5 31.5q29 21 42 37t13 43q0 32 -21 52t-59 20q-87 0 -84 -99h-86q-2 74 38.5 119t131.5 45q86 0 125.5 -40.5t39.5 -94.5q0 -43 -19.5 -67.5t-58.5 -51.5q-33 -24 -50 -43.5
t-17 -50.5v-16h-71v18zM243 190h89v-92h-89v92z" />
    <glyph glyph-name=".null" horiz-adv-x="600" 
 />
    <glyph glyph-name="nonmarkingreturn" unicode="&#xd;" horiz-adv-x="600" 
 />
    <glyph glyph-name="space" unicode=" " horiz-adv-x="231" 
 />
    <glyph glyph-name="exclam" unicode="!" horiz-adv-x="269" 
d="M88 406v294h93v-294l-23 -222h-47zM85 110h99v-110h-99v110z" />
    <glyph glyph-name="quotedbl" unicode="&#x22;" horiz-adv-x="377" 
d="M146 700l-9 -235h-69l-13 235h91zM322 700l-9 -235h-69l-13 235h91z" />
    <glyph glyph-name="numbersign" unicode="#" horiz-adv-x="718" 
d="M536 435l-32 -171h131l-13 -65h-130l-38 -199h-74l38 199h-166l-38 -199h-74l38 199h-140l13 65h139l32 171h-138l13 65h137l38 200h74l-38 -200h166l38 200h74l-38 -200h133l-13 -65h-132zM462 435h-166l-32 -171h166z" />
    <glyph glyph-name="dollar" unicode="$" horiz-adv-x="666" 
d="M532.5 45q-60.5 -54 -171.5 -58v-63h-64v65q-119 12 -170.5 82t-51.5 163h89q-1 -70 34.5 -111.5t98.5 -53.5v263q-63 17 -105 37t-69.5 56t-27.5 94q0 81 53.5 133t148.5 60v61h64v-61q77 -7 125 -41.5t69 -82t22 -97.5h-88q-4 63 -37 98.5t-91 43.5v-227
q74 -20 121 -40.5t79 -62t32 -110.5q0 -94 -60.5 -148zM212.5 463.5q28.5 -23.5 84.5 -39.5v210q-54 -6 -83.5 -33t-29.5 -70q0 -44 28.5 -67.5zM466 100q38 31 38 85q0 55 -37 83t-106 47v-250q67 4 105 35z" />
    <glyph glyph-name="percent" unicode="%" horiz-adv-x="805" 
d="M74 393q-44 44 -44 138t44 138t114 44q71 0 115 -44t44 -138t-44 -138t-115 -44q-70 0 -114 44zM567 700h75l-405 -700h-75zM266 531q0 126 -78 126q-77 0 -77 -126t77 -126q78 0 78 126zM502 31q-44 44 -44 138t44 138t114 44q71 0 115 -44t44 -138t-44 -138t-115 -44
q-70 0 -114 44zM694 169q0 126 -78 126q-77 0 -77 -126t77 -126q78 0 78 126z" />
    <glyph glyph-name="ampersand" unicode="&#x26;" horiz-adv-x="687" 
d="M568 0l-65 69q-80 -82 -215 -82q-111 0 -172 52.5t-61 140.5q0 50 20 87t51.5 63t79.5 54q-42 45 -64.5 84t-22.5 89q0 69 44 112.5t125 43.5q79 0 124.5 -44t45.5 -112q0 -64 -34.5 -107t-96.5 -80l165 -172q24 56 24 130q0 31 -2 47h77q2 -32 2 -46q0 -112 -42 -193
l131 -136h-114zM223 616.5q-22 -25.5 -22 -61.5q0 -35 20 -66t55 -66q42 24 63 42.5t29 39t8 50.5q0 40 -23.5 63.5t-63.5 23.5q-44 0 -66 -25.5zM379 78q40 17 69 49l-191 202q-44 -25 -67 -42.5t-35.5 -40t-12.5 -55.5q0 -63 40 -96.5t109 -33.5q48 0 88 17z" />
    <glyph glyph-name="quotesingle" unicode="'" horiz-adv-x="201" 
d="M146 700l-9 -235h-69l-13 235h91z" />
    <glyph glyph-name="parenleft" unicode="(" horiz-adv-x="320" 
d="M290 727q-67 -90 -102.5 -210.5t-35.5 -256.5t35.5 -256.5t102.5 -210.5h-72q-74 92 -116 213t-42 254t42 254t116 213h72z" />
    <glyph glyph-name="parenright" unicode=")" horiz-adv-x="320" 
d="M218 514q42 -121 42 -254t-42 -254t-116 -213h-72q67 90 102.5 210.5t35.5 256.5t-35.5 256.5t-102.5 210.5h72q74 -92 116 -213z" />
    <glyph glyph-name="asterisk" unicode="*" horiz-adv-x="494" 
d="M291 478l110 -139l-67 -43l-87 154l-87 -154l-67 43l110 139l-161 35l23 76l155 -60l-13 171h80l-13 -171l155 60l23 -76z" />
    <glyph glyph-name="plus" unicode="+" horiz-adv-x="608" 
d="M538 319h-196v-196h-76v196h-196v76h196v196h76v-196h196v-76z" />
    <glyph glyph-name="comma" unicode="," horiz-adv-x="233" 
d="M163 110v-110l-51 -121h-62l68 121h-54v110h99z" />
    <glyph glyph-name="hyphen" unicode="-" horiz-adv-x="334" 
d="M294 234v75h-254v-75h254z" />
    <glyph glyph-name="period" unicode="." horiz-adv-x="219" 
d="M60 110h99v-110h-99v110z" />
    <glyph glyph-name="slash" unicode="/" horiz-adv-x="471" 
d="M112 -76h-82l309 806h82z" />
    <glyph glyph-name="zero" unicode="0" horiz-adv-x="642" 
d="M186 27.5q-58 40.5 -90.5 121.5t-32.5 201t32.5 201t90.5 121.5t135 40.5t135 -40.5t90.5 -121.5t32.5 -201t-32.5 -201t-90.5 -121.5t-135 -40.5t-135 40.5zM444.5 137.5q42.5 72.5 42.5 212.5t-42.5 212.5t-123.5 72.5t-123.5 -72.5t-42.5 -212.5t42.5 -212.5
t123.5 -72.5t123.5 72.5z" />
    <glyph glyph-name="one" unicode="1" horiz-adv-x="478" 
d="M245 559q-91 -67 -165 -93v89q50 19 103.5 57.5t96.5 87.5h53v-700h-88v559z" />
    <glyph glyph-name="two" unicode="2" horiz-adv-x="617" 
d="M84 93l253 234q57 53 82.5 93.5t25.5 86.5q0 57 -36 92.5t-101 35.5q-73 0 -105 -44t-32 -109q0 -18 1 -27h-88q-1 10 -1 31q0 95 54 161t173 66q81 0 131.5 -32t72.5 -79.5t22 -96.5q0 -64 -35 -118.5t-107 -119.5l-204 -185h349v-82h-455v93z" />
    <glyph glyph-name="three" unicode="3" horiz-adv-x="631" 
d="M516.5 317.5q35.5 -42.5 35.5 -113.5q0 -59 -26 -108.5t-80.5 -79t-136.5 -29.5q-124 0 -183.5 67t-56.5 174h88q-2 -69 37 -116t118 -47q70 0 110 37t40 99q0 67 -45.5 100.5t-110.5 33.5q-27 0 -50 -2v78l50 -2q55 0 89.5 31.5t34.5 82.5q0 50 -34 81t-93 31
q-72 0 -104 -45t-32 -113h-88q-1 88 47 162t178 74q70 0 118.5 -24.5t73 -65.5t24.5 -92q0 -56 -27.5 -94.5t-71.5 -59.5v-2q60 -15 95.5 -57.5z" />
    <glyph glyph-name="four" unicode="4" horiz-adv-x="607" 
d="M564 178h-90v-178h-88v178h-343v77l291 445h140v-447h90v-75zM386 253v156q0 105 3 229h-2q-30 -50 -119 -188q-11 -18 -35 -54l-93 -143h246z" />
    <glyph glyph-name="five" unicode="5" horiz-adv-x="641" 
d="M247.5 470q40.5 21 100.5 21q68 0 117.5 -31t75.5 -85.5t26 -124.5q0 -68 -25.5 -127.5t-82.5 -97.5t-146 -38q-79 0 -132 29.5t-78.5 76.5t-25.5 102q0 19 3 35h84q-2 -16 -2 -23q0 -64 43.5 -103t110.5 -39q77 0 119 51.5t42 129.5q0 66 -32 116.5t-110 50.5
q-48 0 -81 -19.5t-69 -55.5l-99 48l78 314h368v-82h-308l-51 -201h2q32 32 72.5 53z" />
    <glyph glyph-name="six" unicode="6" horiz-adv-x="616" 
d="M236.5 436.5q46.5 24.5 105.5 24.5q62 0 111 -27.5t77 -79t28 -122.5q0 -72 -29 -127.5t-83 -86.5t-129 -31q-136 0 -190 97t-54 248q0 175 64.5 278t195.5 103q86 0 144 -45.5t58 -140.5h-89q0 49 -31.5 78.5t-82.5 29.5q-80 0 -123.5 -73t-51.5 -198h2q31 48 77.5 72.5
zM429 112.5q39 47.5 39 117.5t-39 111.5t-105 41.5q-67 0 -109 -43t-42 -115t41.5 -116t107.5 -44q68 0 107 47.5z" />
    <glyph glyph-name="seven" unicode="7" horiz-adv-x="556" 
d="M250.5 322q57.5 150 161.5 296h-367v82h456v-79q-101 -159 -158.5 -311t-70.5 -310h-105q26 172 83.5 322z" />
    <glyph glyph-name="eight" unicode="8" horiz-adv-x="632" 
d="M526.5 311.5q35.5 -45.5 35.5 -113.5q0 -60 -29 -108t-85 -75.5t-132 -27.5t-132 27.5t-85 75.5t-29 108q0 68 35.5 113.5t91.5 64.5v2q-47 22 -75 60.5t-28 91.5q0 50 25 92t75 66.5t122 24.5t122 -24.5t75 -66.5t25 -92q0 -53 -28 -91.5t-75 -60.5v-2
q56 -19 91.5 -64.5zM217 438q35 -32 99 -32t99 32t35 84t-35.5 83.5t-98.5 31.5t-98.5 -31.5t-35.5 -83.5t35 -84zM432.5 102q39.5 37 39.5 96q0 58 -40 97.5t-116 39.5t-116 -39.5t-40 -97.5q0 -59 39.5 -96t116.5 -37t116.5 37z" />
    <glyph glyph-name="nine" unicode="9" horiz-adv-x="616" 
d="M384.5 263.5q-46.5 -24.5 -105.5 -24.5q-62 0 -111 27.5t-77 79t-28 122.5q0 72 29 127.5t83 86.5t129 31q136 0 190 -97t54 -248q0 -175 -64.5 -278t-195.5 -103q-86 0 -144 45.5t-58 140.5h89q0 -49 31.5 -78.5t82.5 -29.5q80 0 123.5 73t51.5 198h-2
q-31 -48 -77.5 -72.5zM192 587.5q-39 -47.5 -39 -117.5t39 -111.5t105 -41.5q67 0 109 43t42 115t-41.5 116t-107.5 44q-68 0 -107 -47.5z" />
    <glyph glyph-name="colon" unicode=":" horiz-adv-x="232" 
d="M60 480h99v-110h-99v110zM60 110h99v-110h-99v110z" />
    <glyph glyph-name="semicolon" unicode=";" horiz-adv-x="232" 
d="M159 480v-110h-99v110h99zM60 110h99v-110l-51 -121h-62l68 121h-54v110z" />
    <glyph glyph-name="less" unicode="&#x3c;" horiz-adv-x="588" 
d="M518 484l-384 -127l384 -128v-83l-448 157v107l448 157v-83z" />
    <glyph glyph-name="equal" unicode="=" horiz-adv-x="608" 
d="M538 490v-76h-468v76h468zM538 299v-76h-468v76h468z" />
    <glyph glyph-name="greater" unicode="&#x3e;" horiz-adv-x="588" 
d="M518 410v-107l-448 -157v83l384 128l-384 127v83z" />
    <glyph glyph-name="question" unicode="?" horiz-adv-x="504" 
d="M185 225q0 50 15 83.5t36.5 53t56.5 43.5q42 28 62 52t20 66q0 50 -32 81.5t-89 31.5q-60 0 -93.5 -36.5t-33.5 -102.5h-87q-3 58 17.5 106.5t69.5 79t127 30.5q75 0 122 -28t67.5 -71.5t20.5 -91.5q0 -42 -15 -72.5t-35.5 -50t-56.5 -45.5q-46 -33 -68.5 -60.5
t-22.5 -71.5v-40h-81v43zM176 110h99v-110h-99v110z" />
    <glyph glyph-name="at" unicode="@" horiz-adv-x="844" 
d="M226 -3.5q-83 46.5 -127.5 128.5t-44.5 187q0 109 48.5 201t136.5 146t203 54q92 0 171.5 -36t128 -108.5t48.5 -177.5q0 -72 -23.5 -132t-67 -95t-100.5 -35q-76 0 -99 63q-22 -31 -49.5 -47.5t-69.5 -16.5q-69 0 -105.5 43.5t-36.5 122.5q0 67 25 122.5t67 87t90 31.5
q36 0 65 -17t46 -49l13 56h73l-54 -288q-1 -4 -1 -11q0 -19 11.5 -28t29.5 -9q31 0 57 25t41.5 70t15.5 102q0 124 -72 192t-195 68q-107 0 -179 -49.5t-106.5 -125.5t-34.5 -157t35 -149t100 -108t153 -40q53 0 110.5 15t102.5 40v-76q-105 -46 -212 -46q-111 0 -194 46.5z
M482.5 235q31.5 47 31.5 121q0 57 -20 86.5t-58 29.5q-34 0 -62 -24t-43.5 -64t-15.5 -88q0 -108 83 -108q53 0 84.5 47z" />
    <glyph glyph-name="A" unicode="A" horiz-adv-x="674" 
d="M499 181h-324l-65 -181h-91l252 700h132l252 -700h-91zM470 261l-133 371l-133 -371h266z" />
    <glyph glyph-name="B" unicode="B" horiz-adv-x="688" 
d="M601.5 309q39.5 -44 39.5 -116q0 -94 -62 -143.5t-156 -49.5h-321v700h277q78 0 128.5 -25.5t74 -66t23.5 -87.5q0 -51 -28 -92.5t-90 -64.5q75 -11 114.5 -55zM379 621h-188v-225h188q73 0 103.5 29t30.5 82q0 114 -134 114zM516 109q33 30 33 91q0 57 -35.5 87.5
t-101.5 30.5h-221v-239h221q71 0 104 30z" />
    <glyph glyph-name="C" unicode="C" horiz-adv-x="753" 
d="M218 32.5q-74 45.5 -113 128t-39 189.5t39 189.5t112.5 128t172.5 45.5q118 0 198 -64t95 -181h-90q-13 80 -68 122t-136 42q-116 0 -173.5 -80t-57.5 -203q0 -122 57 -201.5t177 -79.5q84 0 139 43.5t65 133.5h90q-12 -130 -94 -194t-200 -64q-100 0 -174 45.5z" />
    <glyph glyph-name="D" unicode="D" horiz-adv-x="765" 
d="M544 656.5q77 -43.5 116 -122.5t39 -184t-39 -184t-116 -122.5t-189 -43.5h-253v700h253q112 0 189 -43.5zM542.5 154.5q64.5 74.5 64.5 195.5t-64.5 195.5t-191.5 74.5h-158v-540h158q127 0 191.5 74.5z" />
    <glyph glyph-name="E" unicode="E" horiz-adv-x="657" 
d="M191 620v-221h360v-79h-360v-240h398v-80h-487v700h487v-80h-398z" />
    <glyph glyph-name="F" unicode="F" horiz-adv-x="613" 
d="M191 620v-230h359v-79h-359v-311h-89v700h486v-80h-397z" />
    <glyph glyph-name="G" unicode="G" horiz-adv-x="783" 
d="M223.5 32.5q-75.5 45.5 -116.5 127.5t-41 189q0 108 41.5 190.5t118 128t179.5 45.5q122 0 204 -65t95 -185h-91q-10 82 -65.5 125.5t-142.5 43.5q-83 0 -138.5 -38t-82 -102t-26.5 -142t27 -141.5t83.5 -101.5t141.5 -38q93 0 151.5 48t66.5 141h-224v77h300v-335h-78
l14 118h-4q-64 -131 -236 -131q-101 0 -176.5 45.5z" />
    <glyph glyph-name="H" unicode="H" horiz-adv-x="745" 
d="M643 700v-700h-89v320h-363v-320h-89v700h89v-301h363v301h89z" />
    <glyph glyph-name="I" unicode="I" horiz-adv-x="293" 
d="M102 700h89v-700h-89v700z" />
    <glyph glyph-name="J" unicode="J" horiz-adv-x="544" 
d="M79 46.5q-49 59.5 -49 149.5q0 17 1 25h88q-3 -73 26 -113t105 -40q66 0 97.5 39t31.5 118v475h89v-475q0 -105 -50.5 -171.5t-171.5 -66.5q-118 0 -167 59.5z" />
    <glyph glyph-name="K" unicode="K" horiz-adv-x="672" 
d="M531 203q52 -135 102 -203h-100q-19 25 -35.5 61t-42.5 101q-4 10 -7 18.5t-6 15.5l-77 193l-174 -179v-210h-89v700h89v-371l361 371h115l-235 -242z" />
    <glyph glyph-name="L" unicode="L" horiz-adv-x="574" 
d="M551 80v-80h-449v700h89v-620h360z" />
    <glyph glyph-name="M" unicode="M" horiz-adv-x="934" 
d="M370 363q21 -60 61 -182l35 -104h2l35 104q40 122 61 182l119 337h149v-700h-89v325q0 153 3 303h-2q-35 -104 -107 -303l-116 -325h-108l-116 325q-28 80 -43 120q2 -5 -64 183h-2q3 -150 3 -303v-325h-89v700h149z" />
    <glyph glyph-name="N" unicode="N" horiz-adv-x="766" 
d="M575 362v338h89v-700h-143l-164 301q-65 120 -168 316h-2q4 -206 4 -316v-301h-89v700h139l184 -338q61 -113 152 -287h2q-4 125 -4 287z" />
    <glyph glyph-name="O" unicode="O" horiz-adv-x="797" 
d="M222 33q-75 46 -115.5 128.5t-40.5 188.5t40.5 188.5t115.5 128.5t176 46t176.5 -46t116 -128.5t40.5 -188.5t-40.5 -188.5t-116 -128.5t-176.5 -46t-176 46zM533 106.5q54 38.5 80 102.5t26 141t-26 141t-80 102.5t-135 38.5q-80 0 -134 -38.5t-80 -102.5t-26 -141
t26 -141t80 -102.5t134 -38.5q81 0 135 38.5z" />
    <glyph glyph-name="P" unicode="P" horiz-adv-x="628" 
d="M530 644.5q65 -55.5 65 -163.5t-65 -163.5t-179 -55.5h-160v-262h-89v700h249q114 0 179 -55.5zM466.5 376.5q37.5 33.5 37.5 104.5t-37.5 104.5t-115.5 33.5h-160v-276h160q78 0 115.5 33.5z" />
    <glyph glyph-name="Q" unicode="Q" horiz-adv-x="797" 
d="M705 196q-26 -70 -74 -118l73 -78l-58 -53l-77 83q-74 -43 -171 -43q-101 0 -176 46t-115.5 128.5t-40.5 188.5t40.5 188.5t115.5 128.5t176 46t176.5 -46t116 -128.5t40.5 -188.5q0 -84 -26 -154zM509 93l-87 93l57 54l93 -99q34 39 50.5 93t16.5 116q0 77 -26 141
t-80 102.5t-135 38.5q-80 0 -134 -38.5t-80 -102.5t-26 -141t26 -141t80 -102.5t134 -38.5q63 0 111 25z" />
    <glyph glyph-name="R" unicode="R" horiz-adv-x="663" 
d="M609 0h-99q-39 47 -39 142l1 47q0 31 -7.5 53t-31.5 42h-242v-284h-89v700h256q112 0 178 -53.5t66 -153.5q0 -74 -36 -117t-98 -55q42 -13 62.5 -39.5t25.5 -57.5t6 -76q2 -96 47 -148zM358 364q76 0 114.5 34.5t38.5 96.5q0 61 -38 93t-115 32h-167v-256h167z" />
    <glyph glyph-name="S" unicode="S" horiz-adv-x="627" 
d="M115 59.5q-62 72.5 -62 174.5h89q-1 -83 48 -126t134 -43q74 0 116 31.5t42 88.5q0 44 -24 70t-59.5 40t-96.5 30q-75 20 -120.5 38.5t-77 56t-31.5 99.5q0 88 62.5 141t171.5 53q89 0 144 -34t79 -84.5t25 -103.5h-88q-4 72 -46.5 108t-116.5 36q-66 0 -104 -27.5
t-38 -76.5q0 -37 21.5 -59.5t53 -34.5t91.5 -28q81 -22 128 -41.5t81 -61t34 -113.5q0 -98 -65 -152t-185 -54q-144 0 -206 72.5z" />
    <glyph glyph-name="T" unicode="T" horiz-adv-x="633" 
d="M610 620h-249v-620h-89v620h-249v80h587v-80z" />
    <glyph glyph-name="U" unicode="U" horiz-adv-x="724" 
d="M164.5 54.5q-72.5 67.5 -72.5 196.5v449h89v-449q0 -90 48 -136.5t133 -46.5t133 46.5t48 136.5v449h89v-449q0 -129 -72.5 -196.5t-197.5 -67.5t-197.5 67.5z" />
    <glyph glyph-name="V" unicode="V" horiz-adv-x="682" 
d="M659 700l-252 -700h-132l-252 700h91l227 -632l227 632h91z" />
    <glyph glyph-name="W" unicode="W" horiz-adv-x="926" 
d="M903 700l-160 -700h-140l-70 314q-16 74 -25 112q-30 134 -44 202h-2q-40 -202 -66 -314l-73 -314h-140l-160 700h89l147 -637l138 637h131l141 -638l145 638h89z" />
    <glyph glyph-name="X" unicode="X" horiz-adv-x="652" 
d="M524 0l-198 303l-198 -303h-108l252 370l-224 330h107l171 -263l171 263h107l-224 -330l252 -370h-108z" />
    <glyph glyph-name="Y" unicode="Y" horiz-adv-x="625" 
d="M607 700l-250 -446v-254h-89v254l-250 446h100l195 -358l194 358h100z" />
    <glyph glyph-name="Z" unicode="Z" horiz-adv-x="609" 
d="M577 80v-80h-545v94l429 526h-410v80h511v-94l-424 -526h439z" />
    <glyph glyph-name="bracketleft" unicode="[" horiz-adv-x="288" 
d="M152 700v-880h116v-50h-198v980h198v-50h-116z" />
    <glyph glyph-name="backslash" unicode="\" horiz-adv-x="471" 
d="M132 730l309 -806h-82l-309 806h82z" />
    <glyph glyph-name="bracketright" unicode="]" horiz-adv-x="288" 
d="M20 750h198v-980h-198v50h116v880h-116v50z" />
    <glyph glyph-name="asciicircum" unicode="^" horiz-adv-x="471" 
d="M373 352l-138 288l-137 -288h-83l167 348h107l167 -348h-83z" />
    <glyph glyph-name="underscore" unicode="_" horiz-adv-x="550" 
d="M530 0v-65h-510v65h510z" />
    <glyph glyph-name="grave" unicode="`" horiz-adv-x="298" 
d="M248 555h-73l-125 145h112z" />
    <glyph glyph-name="a" unicode="a" horiz-adv-x="545" 
d="M470.5 42.5q3.5 -20.5 15.5 -42.5h-88q-9 17 -9 47v25q0 18 -1 27q-54 -112 -185 -112q-75 0 -114.5 36t-39.5 100q0 49 23 77t57 41.5t96 28.5q70 17 100.5 27t44 22.5t13.5 33.5q0 33 -28 55.5t-81 22.5q-54 0 -83 -24.5t-33 -72.5h-89q8 80 62 119.5t146 39.5
q97 0 143.5 -41.5t46.5 -116.5v-235q0 -37 3.5 -57.5zM337 240.5q-38 -13.5 -96 -27.5q-36 -9 -55.5 -16.5t-33.5 -24.5t-14 -46q0 -37 22 -56.5t61 -19.5q44 0 81.5 22.5t59.5 63t22 91.5v35q-9 -8 -47 -21.5z" />
    <glyph glyph-name="b" unicode="b" horiz-adv-x="603" 
d="M176 402q25 43 67 67t95 24q61 0 109 -32t75 -89.5t27 -131.5t-27.5 -131.5t-76 -89.5t-109.5 -32q-53 0 -96 26t-67 78l2 -91h-84v700h85v-298zM243.5 402.5q-32.5 -22.5 -51.5 -64t-19 -98.5q0 -85 40.5 -135t103.5 -50t103.5 49.5t40.5 135.5q0 85 -40.5 135
t-103.5 50q-41 0 -73.5 -22.5z" />
    <glyph glyph-name="c" unicode="c" horiz-adv-x="540" 
d="M163.5 18.5q-52.5 31.5 -81 88.5t-28.5 133t28.5 133t81 88.5t121.5 31.5q85 0 140 -46t66 -127h-88q-7 51 -38.5 78t-79.5 27q-66 0 -104.5 -49t-38.5 -136t38.5 -136t105.5 -49q49 0 79 28t38 81h88q-11 -81 -64.5 -129t-141.5 -48q-69 0 -121.5 31.5z" />
    <glyph glyph-name="d" unicode="d" horiz-adv-x="603" 
d="M157.5 19q-48.5 32 -76 89.5t-27.5 131.5t27 131.5t75 89.5t109 32q53 0 95 -24t67 -67v298h85v-700h-84l2 91q-24 -52 -67 -78t-96 -26q-61 0 -109.5 32zM389.5 104.5q40.5 49.5 40.5 135.5q0 57 -19 98.5t-51.5 64t-73.5 22.5q-63 0 -103.5 -50t-40.5 -135
q0 -86 40.5 -135.5t103.5 -49.5t103.5 49.5z" />
    <glyph glyph-name="e" unicode="e" horiz-adv-x="558" 
d="M162.5 18q-52.5 31 -80.5 88.5t-28 133.5t28 133.5t79.5 88.5t119.5 31t118.5 -30.5t78.5 -87.5t28 -134l-1 -23h-367q4 -77 44 -120.5t105 -43.5q49 0 81.5 25t42.5 68h86q-12 -70 -68.5 -115t-142.5 -45q-71 0 -123.5 31zM420 281q-3 67 -41.5 106t-97.5 39
q-58 0 -96 -39t-45 -106h280z" />
    <glyph glyph-name="f" unicode="f" horiz-adv-x="346" 
d="M221.5 622q-14.5 -15 -14.5 -60v-82h113v-66h-113v-414h-85v414h-94v66h94v82q0 70 32 107t96 37q40 0 81 -11v-66q-36 8 -65 8q-30 0 -44.5 -15z" />
    <glyph glyph-name="g" unicode="g" horiz-adv-x="604" 
d="M79 -56h88q5 -46 37 -68.5t82 -22.5q69 0 106.5 42t37.5 123v62q-20 -48 -64 -70.5t-98 -22.5q-65 0 -113.5 31.5t-74.5 88.5t-26 131q0 75 26.5 133t74.5 90t109 32q54 0 100 -25.5t70 -78.5l-5 91h84v-461q0 -232 -232 -232q-188 0 -202 157zM358.5 76.5
q33.5 22.5 53 65t19.5 98.5q0 57 -19.5 99t-53 64t-73.5 22q-63 0 -103 -51t-40 -135q0 -83 39.5 -134t102.5 -51q41 0 74.5 22.5z" />
    <glyph glyph-name="h" unicode="h" 
d="M449.5 448q40.5 -45 40.5 -120v-328h-85v308q0 60 -24 88t-77 28q-61 0 -94.5 -42t-33.5 -124v-258h-85v700h86l-1 -304q47 97 158 97q75 0 115.5 -45z" />
    <glyph glyph-name="i" unicode="i" horiz-adv-x="267" 
d="M91 653h85v-91h-85v91zM91 480h85v-480h-85v480z" />
    <glyph glyph-name="j" unicode="j" horiz-adv-x="259" 
d="M84 658h83v-89h-83v89zM-17 -201v70q20 -5 38 -5q29 0 45.5 13.5t16.5 48.5v554h85v-563q0 -54 -31.5 -89.5t-92.5 -35.5q-33 0 -61 7z" />
    <glyph glyph-name="k" unicode="k" horiz-adv-x="530" 
d="M421 0l-134 264l-111 -106v-158h-85v700h85v-445l225 225h113l-172 -164l175 -316h-96z" />
    <glyph glyph-name="l" unicode="l" horiz-adv-x="267" 
d="M176 0h-85v700h85v-700z" />
    <glyph glyph-name="m" unicode="m" horiz-adv-x="844" 
d="M91 480h84l-4 -82q21 46 61 70.5t92 24.5t85.5 -25t47.5 -70q22 44 65 69.5t95 25.5q68 0 104.5 -44.5t36.5 -120.5v-328h-85v308q0 60 -19.5 88t-65.5 28q-58 0 -89.5 -42.5t-31.5 -123.5v-258h-85v308q0 60 -19.5 88t-65.5 28q-58 0 -89.5 -42.5t-31.5 -123.5v-258h-85
v480z" />
    <glyph glyph-name="n" unicode="n" 
d="M405 0v308q0 59 -23.5 87.5t-75.5 28.5q-63 0 -96.5 -42t-33.5 -124v-258h-85v480h84l-4 -82q22 46 64 70.5t97 24.5q77 0 117.5 -44.5t40.5 -120.5v-328h-85z" />
    <glyph glyph-name="o" unicode="o" horiz-adv-x="584" 
d="M167 18.5q-54 31.5 -83.5 88.5t-29.5 133t29.5 133t83.5 88.5t125 31.5t125 -31.5t83.5 -88.5t29.5 -133t-29.5 -133t-83.5 -88.5t-125 -31.5t-125 31.5zM401 104.5q41 49.5 41 135.5t-41 135.5t-109 49.5t-109 -49.5t-41 -135.5t41 -135.5t109 -49.5t109 49.5z" />
    <glyph glyph-name="p" unicode="p" horiz-adv-x="603" 
d="M91 -200v680h84l-2 -91q24 52 67 78t96 26q61 0 109.5 -32t76 -89.5t27.5 -131.5t-27 -131.5t-75 -89.5t-109 -32q-53 0 -95 24t-67 67v-278h-85zM420.5 105q40.5 50 40.5 135q0 86 -40.5 135.5t-103.5 49.5t-103.5 -49.5t-40.5 -135.5q0 -57 19 -98.5t51.5 -64
t73.5 -22.5q63 0 103.5 50z" />
    <glyph glyph-name="q" unicode="q" horiz-adv-x="603" 
d="M427 78q-25 -43 -67 -67t-95 -24q-61 0 -109 32t-75 89.5t-27 131.5t27.5 131.5t76 89.5t109.5 32q53 0 96 -26t67 -78l-2 91h84v-680h-85v278zM359.5 77.5q32.5 22.5 51.5 64t19 98.5q0 86 -40.5 135.5t-103.5 49.5t-103.5 -49.5t-40.5 -135.5q0 -85 40.5 -135
t103.5 -50q41 0 73.5 22.5z" />
    <glyph glyph-name="r" unicode="r" horiz-adv-x="388" 
d="M334 407q-84 0 -121 -47t-37 -150v-210h-85v480h83v-110q31 61 70 88.5t95 27.5q13 0 25 -2v-79q-20 2 -30 2z" />
    <glyph glyph-name="s" unicode="s" horiz-adv-x="500" 
d="M322 407q-26 22 -78 22q-46 0 -70.5 -17t-24.5 -50q0 -24 13 -37.5t34 -19.5t70 -17q59 -13 97 -28.5t62.5 -45.5t24.5 -79q0 -73 -52 -110.5t-142 -37.5q-108 0 -154.5 49t-47.5 124h85q0 -53 30.5 -81t90.5 -28q47 0 76.5 18t29.5 58q0 28 -15.5 44t-39 24t-67.5 17
q-14 2 -21 4q-78 17 -118 45.5t-40 91.5q0 67 48 103.5t133 36.5q99 0 143 -45t48 -107h-86q-3 44 -29 66z" />
    <glyph glyph-name="t" unicode="t" horiz-adv-x="335" 
d="M182 414v-280q0 -42 10.5 -56.5t46.5 -14.5q24 0 55 7v-67q-39 -9 -80 -9q-65 0 -91 30.5t-26 100.5v289h-74v66h74v117l85 25v-142h115v-66h-115z" />
    <glyph glyph-name="u" unicode="u" 
d="M171 480v-308q0 -59 23.5 -87.5t75.5 -28.5q63 0 96.5 42t33.5 124v258h85v-480h-86l6 82q-22 -46 -64 -70.5t-97 -24.5q-77 0 -117.5 44.5t-40.5 120.5v328h85z" />
    <glyph glyph-name="v" unicode="v" horiz-adv-x="492" 
d="M479 480l-172 -480h-122l-172 480h86l147 -419l147 419h86z" />
    <glyph glyph-name="w" unicode="w" horiz-adv-x="764" 
d="M744 480l-137 -480h-122l-52 206q-18 72 -45 193l-5 22h-2l-5 -22q-27 -121 -45 -193l-52 -206h-122l-137 480h86l111 -422l108 422h114l108 -422l111 422h86z" />
    <glyph glyph-name="x" unicode="x" horiz-adv-x="501" 
d="M381 0l-131 192l-132 -192h-102l184 250l-169 230h103l117 -171l118 171h100l-168 -229l184 -251h-104z" />
    <glyph glyph-name="y" unicode="y" horiz-adv-x="494" 
d="M481 480l-282 -680h-93l99 201l-192 479h92l142 -367l142 367h92z" />
    <glyph glyph-name="z" unicode="z" horiz-adv-x="466" 
d="M416 401l-283 -335h294v-66h-388v74l287 340h-278v66h368v-79z" />
    <glyph glyph-name="braceleft" unicode="{" horiz-adv-x="303" 
d="M97 314q92 -15 92 -104v-166q0 -53 7.5 -82t25.5 -41.5t51 -12.5v-30h-24q-58 0 -88 21t-40.5 57t-10.5 90v153q0 44 -12 64t-48 20v62q36 0 48 20t12 64v153q0 54 10.5 90t40.5 57t88 21h24v-30q-33 0 -51 -12.5t-25.5 -41.5t-7.5 -82v-166q0 -89 -92 -104z" />
    <glyph glyph-name="bar" unicode="|" horiz-adv-x="282" 
d="M102 750h78v-904h-78v904z" />
    <glyph glyph-name="braceright" unicode="}" horiz-adv-x="303" 
d="M114 584q0 53 -7.5 82t-25.5 41.5t-51 12.5v30h24q58 0 88 -21t40.5 -57t10.5 -90v-153q0 -44 12 -64t48 -20v-62q-36 0 -48 -20t-12 -64v-153q0 -54 -10.5 -90t-40.5 -57t-88 -21h-24v30q33 0 51 12.5t25.5 41.5t7.5 82v166q0 89 92 104q-92 15 -92 104v166z" />
    <glyph glyph-name="asciitilde" unicode="~" horiz-adv-x="558" 
d="M533 452q-17 -87 -60 -124.5t-96 -37.5q-32 0 -59.5 11t-68.5 34q-30 17 -49 25.5t-38 8.5q-28 0 -50 -20t-30 -59h-57q17 86 57.5 124t94.5 38q34 0 62 -11.5t67 -33.5q30 -17 49 -25.5t38 -8.5q28 0 50.5 20.5t32.5 58.5h57z" />
    <glyph glyph-name="exclamdown" unicode="&#xa1;" horiz-adv-x="269" 
d="M184 480v-110h-99v110h99zM158 296l23 -222v-294h-93v294l23 222h47z" />
    <glyph glyph-name="cent" unicode="&#xa2;" horiz-adv-x="666" 
d="M435 200.5q24 27.5 31 74.5h88q-10 -75 -57.5 -122t-125.5 -54v-99h-64v101q-88 14 -139 80.5t-51 169.5t51 169.5t139 80.5v100h64v-98q76 -6 124 -51.5t59 -120.5h-88q-7 44 -31.5 70.5t-63.5 32.5v-366q40 5 64 32.5zM232 232.5q27 -46.5 75 -60.5v358
q-48 -14 -75 -60.5t-27 -118.5t27 -118.5z" />
    <glyph glyph-name="sterling" unicode="&#xa3;" horiz-adv-x="666" 
d="M613 36q-72 -49 -146 -49q-24 0 -46 4t-57 12q-5 1 -37.5 8t-62.5 7q-62 0 -120 -37l-63 87q48 40 76 87.5t28 111.5q0 21 -3 37h-121v66h100q-8 16 -11 24q-17 35 -24.5 58.5t-7.5 55.5q0 54 25.5 100.5t78.5 75.5t131 29q93 0 143.5 -39.5t66.5 -92.5t13 -103h-86
q2 67 -27 114t-111 47q-70 0 -106 -37.5t-36 -94.5q0 -27 7.5 -48.5t22.5 -53.5l16 -35h179v-66h-162q1 -8 1 -24q0 -74 -35.5 -131t-77.5 -92q69 35 135 35q32 0 84 -10q45 -9 73 -9q57 0 114 37z" />
    <glyph glyph-name="currency" unicode="&#xa4;" horiz-adv-x="578" 
d="M476 212l66 -61l-57 -57l-61 67q-61 -43 -134 -43q-75 0 -135 44l-62 -66l-55 56l65 62q-44 60 -44 135q0 73 43 134l-67 61l57 57l61 -66q61 45 137 45q75 0 135 -44l62 65l56 -55l-65 -63q43 -61 43 -134q0 -76 -45 -137zM365.5 215.5q34.5 20.5 55 56t20.5 77.5
t-20.5 77.5t-55 56t-75.5 20.5t-75.5 -20.5t-55 -56t-20.5 -77.5t20.5 -77.5t55 -56t75.5 -20.5t75.5 20.5z" />
    <glyph glyph-name="yen" unicode="&#xa5;" horiz-adv-x="666" 
d="M412 314h152v-60h-186v-77h186v-60h-186v-117h-89v117h-186v60h186v77h-186v60h152l-216 386h100l195 -358l194 358h100z" />
    <glyph glyph-name="brokenbar" unicode="&#xa6;" horiz-adv-x="282" 
d="M102 750h78v-378h-78v378zM102 224h78v-378h-78v378z" />
    <glyph glyph-name="section" unicode="&#xa7;" horiz-adv-x="776" 
d="M715 53l-204 202q24 32 36.5 70.5t12.5 78.5q0 67 -33.5 124t-90.5 90.5t-125 33.5t-125.5 -33.5t-91 -90.5t-33.5 -124q0 -68 33.5 -125t91 -90.5t125.5 -33.5q83 0 147 47l202 -202zM397.5 553.5q39.5 -23.5 63 -63t23.5 -86.5t-23.5 -87t-63 -63.5t-86.5 -23.5
t-87.5 23.5t-64 63.5t-23.5 87t23.5 86.5t64 63t87.5 23.5t86.5 -23.5z" />
    <glyph glyph-name="dieresis" unicode="&#xa8;" horiz-adv-x="382" 
d="M140 646v-91h-90v91h90zM332 646v-91h-90v91h90z" />
    <glyph glyph-name="copyright" unicode="&#xa9;" horiz-adv-x="814" 
d="M220 32q-81 45 -125.5 127.5t-44.5 190.5t44.5 190.5t125.5 127.5t187 45t187 -45t125.5 -127.5t44.5 -190.5t-44.5 -190.5t-125.5 -127.5t-187 -45t-187 45zM562.5 82q67.5 38 104.5 107.5t37 160.5t-37 160.5t-104.5 107.5t-155.5 38t-155.5 -38t-104.5 -107.5
t-37 -160.5t37 -160.5t104.5 -107.5t155.5 -38t155.5 38zM263.5 186.5q-53.5 59.5 -53.5 159.5q0 99 53 159t147 60q76 0 128 -41t60 -117h-83q-5 45 -34 68t-70 23q-60 0 -87.5 -43t-27.5 -111q0 -67 28 -108.5t91 -41.5q41 0 70 22t32 72h83q-5 -81 -57.5 -121t-128.5 -40
q-97 0 -150.5 59.5z" />
    <glyph glyph-name="guillemotleft" unicode="&#xab;" horiz-adv-x="475" 
d="M147 241l91 -176h-61l-127 176l127 176h61zM334 241l91 -176h-61l-127 176l127 176h61z" />
    <glyph glyph-name="logicalnot" unicode="&#xac;" horiz-adv-x="548" 
d="M478 430v-302h-72v226h-336v76h408z" />
    <glyph glyph-name="registered" unicode="&#xae;" horiz-adv-x="644" 
d="M457 680.5q58 -32.5 90 -92t32 -136.5q0 -78 -32 -137.5t-90 -92.5t-135 -33t-135 33t-90 92.5t-32 137.5q0 77 32 136.5t90 92t135 32.5t135 -32.5zM434 257.5q49 27.5 75.5 78t26.5 116.5q0 65 -27 115t-75.5 77.5t-111.5 27.5t-111.5 -27.5t-75.5 -77.5t-27 -115
q0 -66 26.5 -116.5t75.5 -78t112 -27.5t112 27.5zM423.5 409q10.5 -20 11.5 -48q1 -20 4 -33.5t13 -25.5h-58q-12 14 -14.5 28.5t-2.5 39.5q0 16 -3 26.5t-12 19.5h-92v-114h-57v296h122q53 0 82.5 -21.5t29.5 -65.5q0 -31 -18 -49.5t-47 -24.5q31 -8 41.5 -28zM391 507
q0 43 -56 43h-65v-87h65q56 0 56 44z" />
    <glyph glyph-name="macron" unicode="&#xaf;" horiz-adv-x="377" 
d="M327 628v-62h-277v62h277z" />
    <glyph glyph-name="degree" unicode="&#xb0;" horiz-adv-x="321" 
d="M95.5 469.5q-30.5 17.5 -48 48t-17.5 65.5t17.5 65t48 47.5t65.5 17.5t65 -17.5t47.5 -47.5t17.5 -65t-17.5 -65.5t-47.5 -48t-65 -17.5t-65.5 17.5zM213 529.5q22 22.5 22 53.5t-22 53t-52 22q-31 0 -53 -22t-22 -53t22 -53.5t53 -22.5q30 0 52 22.5z" />
    <glyph glyph-name="plusminus" unicode="&#xb1;" horiz-adv-x="608" 
d="M538 435v-76h-196v-196h-76v196h-196v76h196v196h76v-196h196zM70 76h468v-76h-468v76z" />
    <glyph glyph-name="acute" unicode="&#xb4;" horiz-adv-x="298" 
d="M248 700l-125 -145h-73l86 145h112z" />
    <glyph glyph-name="paragraph" unicode="&#xb6;" horiz-adv-x="619" 
d="M589 632h-81v-762h-71v762h-86v-762h-71v441h-26q-53 0 -97.5 26t-70.5 71t-26 98t26 97.5t70.5 70.5t97.5 26h335v-68z" />
    <glyph glyph-name="periodcentered" unicode="&#xb7;" horiz-adv-x="332" 
d="M119.5 270.5q-19.5 19.5 -19.5 46.5t19.5 46.5t46.5 19.5t46.5 -19.5t19.5 -46.5t-19.5 -46.5t-46.5 -19.5t-46.5 19.5z" />
    <glyph glyph-name="cedilla" unicode="&#xb8;" horiz-adv-x="239" 
d="M134 -48q26 0 48 -14t22 -39q0 -31 -31 -48t-69 -17q-22 0 -40.5 7t-28.5 15l12 27q9 -7 22.5 -12.5t27.5 -5.5q17 0 29.5 7.5t12.5 22.5q0 12 -9 20.5t-27 8.5q-5 0 -17 -2l-16 22l26 56h44l-28 -52q12 4 22 4z" />
    <glyph glyph-name="guillemotright" unicode="&#xbb;" horiz-adv-x="475" 
d="M111 417l127 -176l-127 -176h-61l91 176l-91 176h61zM298 417l127 -176l-127 -176h-61l91 176l-91 176h61z" />
    <glyph glyph-name="onequarter" unicode="&#xbc;" horiz-adv-x="918" 
d="M179 609q-17 -15 -45 -27.5t-54 -20.5v63q73 27 125 76h46v-420h-72v329zM592 700h74l-391 -700h-74zM871 106h-60v-106h-69v106h-232v61l187 253h114v-257h60v-57zM742 163v65q0 105 1 157h-2l-17 -24q-34 -53 -76 -110l-65 -88h159z" />
    <glyph glyph-name="onehalf" unicode="&#xbd;" horiz-adv-x="942" 
d="M179 609q-17 -15 -45 -27.5t-54 -20.5v63q73 27 125 76h46v-420h-72v329zM592 700h74l-391 -700h-74zM768 60h109v-60h-316v71l166 122q40 30 59 53t19 52q0 32 -21.5 53.5t-65.5 21.5q-47 0 -66.5 -26t-19.5 -63l1 -15h-70q-1 6 -1 18q0 62 38 103t121 41
q82 0 120 -39.5t38 -94.5q0 -44 -25 -78t-78 -70l-51 -35q-14 -10 -33 -21t-27 -16l-34 -20v-2q46 5 137 5z" />
    <glyph glyph-name="threequarters" unicode="&#xbe;" horiz-adv-x="989" 
d="M87 308q-43 39 -43 109h71q-1 -42 23.5 -66t70.5 -24q43 0 67.5 20t24.5 56t-23 55t-68 19q-20 0 -42 -2v59q14 -2 42 -2q36 0 56 16t20 45t-21 45.5t-57 16.5q-42 0 -65 -23t-23 -65h-71q0 69 41.5 107.5t119.5 38.5q69 0 109.5 -29.5t40.5 -81.5q0 -34 -18 -58t-53 -34
v-1q42 -10 64 -38.5t22 -70.5q0 -60 -44.5 -95.5t-121.5 -35.5q-79 0 -122 39zM663 700h74l-391 -700h-74zM942 106h-60v-106h-69v106h-232v61l187 253h114v-257h60v-57zM813 163v65q0 105 1 157h-2l-17 -24q-34 -53 -76 -110l-65 -88h159z" />
    <glyph glyph-name="questiondown" unicode="&#xbf;" horiz-adv-x="464" 
d="M331 370h-99v110h99v-110zM322 255q0 -50 -15 -83.5t-36.5 -53t-56.5 -43.5q-42 -28 -62 -52t-20 -66q0 -50 32 -81.5t89 -31.5q60 0 93.5 36.5t33.5 102.5h87q3 -58 -17.5 -106.5t-69.5 -79t-127 -30.5q-75 0 -122 28t-67.5 71.5t-20.5 91.5q0 42 15 72.5t35.5 50
t56.5 45.5q46 33 68.5 60.5t22.5 71.5v40h81v-43z" />
    <glyph glyph-name="Agrave" unicode="&#xc0;" horiz-adv-x="674" 
d="M499 181h-324l-65 -181h-91l252 700h132l252 -700h-91zM470 261l-133 371l-133 -371h266zM397 765h-73l-125 145h112z" />
    <glyph glyph-name="Aacute" unicode="&#xc1;" horiz-adv-x="674" 
d="M499 181h-324l-65 -181h-91l252 700h132l252 -700h-91zM470 261l-133 371l-133 -371h266zM482 910l-125 -145h-73l86 145h112z" />
    <glyph glyph-name="Acircumflex" unicode="&#xc2;" horiz-adv-x="674" 
d="M499 181h-324l-65 -181h-91l252 700h132l252 -700h-91zM470 261l-133 371l-133 -371h266zM409 765l-71 102l-72 -102h-83l105 145h99l105 -145h-83z" />
    <glyph glyph-name="Atilde" unicode="&#xc3;" horiz-adv-x="674" 
d="M499 181h-324l-65 -181h-91l252 700h132l252 -700h-91zM470 261l-133 371l-133 -371h266zM503 868q-21 -104 -102 -104q-19 0 -36.5 6t-42.5 17q-20 10 -34 15t-28 5q-16 0 -30.5 -11.5t-20.5 -31.5h-36q21 104 102 104q19 0 36.5 -6t42.5 -17q38 -20 61 -20
q17 0 31.5 11.5t20.5 31.5h36z" />
    <glyph glyph-name="Adieresis" unicode="&#xc4;" horiz-adv-x="674" 
d="M499 181h-324l-65 -181h-91l252 700h132l252 -700h-91zM470 261l-133 371l-133 -371h266zM287 856v-91h-90v91h90zM479 856v-91h-90v91h90z" />
    <glyph glyph-name="Aring" unicode="&#xc5;" horiz-adv-x="674" 
d="M499 181h-324l-65 -181h-91l252 700h132l252 -700h-91zM470 261l-133 371l-133 -371h266zM270 759q-28 28 -28 68t28 68t68 28t68 -28t28 -68t-28 -68t-68 -28t-68 28zM374 791q15 15 15 36t-15 36t-36 15t-36 -15t-15 -36t15 -36t36 -15t36 15z" />
    <glyph glyph-name="AE" unicode="&#xc6;" horiz-adv-x="958" 
d="M540 620v-220h312v-80h-312v-240h350v-80h-439v181h-244l-95 -181h-98l364 700h512v-80h-350zM451 261v359h-13l-189 -359h202z" />
    <glyph glyph-name="Ccedilla" unicode="&#xc7;" horiz-adv-x="753" 
d="M593.5 53q-80.5 -64 -196.5 -66l-21 -39q12 4 22 4q26 0 48 -14t22 -39q0 -31 -31 -48t-69 -17q-22 0 -40.5 7t-28.5 15l12 27q9 -7 22.5 -12.5t27.5 -5.5q17 0 29.5 7.5t12.5 22.5q0 12 -9 20.5t-27 8.5q-5 0 -17 -2l-16 22l21 45q-90 8 -155 55.5t-99.5 126
t-34.5 179.5q0 107 39 189.5t112.5 128t172.5 45.5q118 0 198 -64t95 -181h-90q-13 80 -68 122t-136 42q-116 0 -173.5 -80t-57.5 -203q0 -122 57 -201.5t177 -79.5q84 0 139 43.5t65 133.5h90q-12 -128 -92.5 -192z" />
    <glyph glyph-name="Egrave" unicode="&#xc8;" horiz-adv-x="657" 
d="M191 620v-221h360v-79h-360v-240h398v-80h-487v700h487v-80h-398zM396 765h-73l-125 145h112z" />
    <glyph glyph-name="Eacute" unicode="&#xc9;" horiz-adv-x="657" 
d="M191 620v-221h360v-79h-360v-240h398v-80h-487v700h487v-80h-398zM481 910l-125 -145h-73l86 145h112z" />
    <glyph glyph-name="Ecircumflex" unicode="&#xca;" horiz-adv-x="657" 
d="M191 620v-221h360v-79h-360v-240h398v-80h-487v700h487v-80h-398zM408 765l-71 102l-72 -102h-83l105 145h99l105 -145h-83z" />
    <glyph glyph-name="Edieresis" unicode="&#xcb;" horiz-adv-x="657" 
d="M191 620v-221h360v-79h-360v-240h398v-80h-487v700h487v-80h-398zM286 856v-91h-90v91h90zM478 856v-91h-90v91h90z" />
    <glyph glyph-name="Igrave" unicode="&#xcc;" horiz-adv-x="293" 
d="M102 700h89v-700h-89v700zM206 765h-73l-125 145h112z" />
    <glyph glyph-name="Iacute" unicode="&#xcd;" horiz-adv-x="293" 
d="M102 700h89v-700h-89v700zM291 910l-125 -145h-73l86 145h112z" />
    <glyph glyph-name="Icircumflex" unicode="&#xce;" horiz-adv-x="293" 
d="M102 700h89v-700h-89v700zM218 765l-71 102l-72 -102h-83l105 145h99l105 -145h-83z" />
    <glyph glyph-name="Idieresis" unicode="&#xcf;" horiz-adv-x="293" 
d="M102 700h89v-700h-89v700zM96 856v-91h-90v91h90zM288 856v-91h-90v91h90z" />
    <glyph glyph-name="Eth" unicode="&#xd0;" horiz-adv-x="765" 
d="M544 656.5q77 -43.5 116 -122.5t39 -184t-39 -184t-116 -122.5t-189 -43.5h-253v311h-85v78h85v311h253q112 0 189 -43.5zM542.5 154.5q64.5 74.5 64.5 195.5t-64.5 195.5t-191.5 74.5h-158v-231h190v-78h-190v-231h158q127 0 191.5 74.5z" />
    <glyph glyph-name="Ntilde" unicode="&#xd1;" horiz-adv-x="766" 
d="M575 362v338h89v-700h-143l-164 301q-65 120 -168 316h-2q4 -206 4 -316v-301h-89v700h139l184 -338q61 -113 152 -287h2q-4 125 -4 287zM548 868q-21 -104 -102 -104q-19 0 -36.5 6t-42.5 17q-20 10 -34 15t-28 5q-16 0 -30.5 -11.5t-20.5 -31.5h-36q21 104 102 104
q19 0 36.5 -6t42.5 -17q38 -20 61 -20q17 0 31.5 11.5t20.5 31.5h36z" />
    <glyph glyph-name="Ograve" unicode="&#xd2;" horiz-adv-x="797" 
d="M222 33q-75 46 -115.5 128.5t-40.5 188.5t40.5 188.5t115.5 128.5t176 46t176.5 -46t116 -128.5t40.5 -188.5t-40.5 -188.5t-116 -128.5t-176.5 -46t-176 46zM533 106.5q54 38.5 80 102.5t26 141t-26 141t-80 102.5t-135 38.5q-80 0 -134 -38.5t-80 -102.5t-26 -141
t26 -141t80 -102.5t134 -38.5q81 0 135 38.5zM458 765h-73l-125 145h112z" />
    <glyph glyph-name="Oacute" unicode="&#xd3;" horiz-adv-x="797" 
d="M222 33q-75 46 -115.5 128.5t-40.5 188.5t40.5 188.5t115.5 128.5t176 46t176.5 -46t116 -128.5t40.5 -188.5t-40.5 -188.5t-116 -128.5t-176.5 -46t-176 46zM533 106.5q54 38.5 80 102.5t26 141t-26 141t-80 102.5t-135 38.5q-80 0 -134 -38.5t-80 -102.5t-26 -141
t26 -141t80 -102.5t134 -38.5q81 0 135 38.5zM543 910l-125 -145h-73l86 145h112z" />
    <glyph glyph-name="Ocircumflex" unicode="&#xd4;" horiz-adv-x="797" 
d="M222 33q-75 46 -115.5 128.5t-40.5 188.5t40.5 188.5t115.5 128.5t176 46t176.5 -46t116 -128.5t40.5 -188.5t-40.5 -188.5t-116 -128.5t-176.5 -46t-176 46zM533 106.5q54 38.5 80 102.5t26 141t-26 141t-80 102.5t-135 38.5q-80 0 -134 -38.5t-80 -102.5t-26 -141
t26 -141t80 -102.5t134 -38.5q81 0 135 38.5zM470 765l-71 102l-72 -102h-83l105 145h99l105 -145h-83z" />
    <glyph glyph-name="Otilde" unicode="&#xd5;" horiz-adv-x="797" 
d="M222 33q-75 46 -115.5 128.5t-40.5 188.5t40.5 188.5t115.5 128.5t176 46t176.5 -46t116 -128.5t40.5 -188.5t-40.5 -188.5t-116 -128.5t-176.5 -46t-176 46zM533 106.5q54 38.5 80 102.5t26 141t-26 141t-80 102.5t-135 38.5q-80 0 -134 -38.5t-80 -102.5t-26 -141
t26 -141t80 -102.5t134 -38.5q81 0 135 38.5zM564 868q-21 -104 -102 -104q-19 0 -36.5 6t-42.5 17q-20 10 -34 15t-28 5q-16 0 -30.5 -11.5t-20.5 -31.5h-36q21 104 102 104q19 0 36.5 -6t42.5 -17q38 -20 61 -20q17 0 31.5 11.5t20.5 31.5h36z" />
    <glyph glyph-name="Odieresis" unicode="&#xd6;" horiz-adv-x="797" 
d="M222 33q-75 46 -115.5 128.5t-40.5 188.5t40.5 188.5t115.5 128.5t176 46t176.5 -46t116 -128.5t40.5 -188.5t-40.5 -188.5t-116 -128.5t-176.5 -46t-176 46zM533 106.5q54 38.5 80 102.5t26 141t-26 141t-80 102.5t-135 38.5q-80 0 -134 -38.5t-80 -102.5t-26 -141
t26 -141t80 -102.5t134 -38.5q81 0 135 38.5zM348 856v-91h-90v91h90zM540 856v-91h-90v91h90z" />
    <glyph glyph-name="multiply" unicode="&#xd7;" horiz-adv-x="608" 
d="M358 322l195 -195l-54 -54l-195 195l-195 -195l-54 54l195 195l-195 195l54 54l195 -195l195 195l54 -54z" />
    <glyph glyph-name="Oslash" unicode="&#xd8;" horiz-adv-x="799" 
d="M652 600q39 -48 59.5 -111.5t20.5 -138.5q0 -106 -40.5 -188.5t-116 -128.5t-176.5 -46q-114 0 -196 59l-77 -95l-60 49l81 100q-39 47 -59.5 111t-20.5 139q0 106 40.5 188.5t115.5 128.5t176 46q114 0 196 -60l78 96l60 -49zM204 171l338 416q-58 45 -143 45
q-80 0 -134 -38.5t-80 -102.5t-26 -141q0 -106 45 -179zM595 529l-338 -417q59 -44 142 -44q81 0 135 38.5t80 102.5t26 141q0 106 -45 179z" />
    <glyph glyph-name="Ugrave" unicode="&#xd9;" horiz-adv-x="724" 
d="M164.5 54.5q-72.5 67.5 -72.5 196.5v449h89v-449q0 -90 48 -136.5t133 -46.5t133 46.5t48 136.5v449h89v-449q0 -129 -72.5 -196.5t-197.5 -67.5t-197.5 67.5zM429 765h-73l-125 145h112z" />
    <glyph glyph-name="Uacute" unicode="&#xda;" horiz-adv-x="724" 
d="M164.5 54.5q-72.5 67.5 -72.5 196.5v449h89v-449q0 -90 48 -136.5t133 -46.5t133 46.5t48 136.5v449h89v-449q0 -129 -72.5 -196.5t-197.5 -67.5t-197.5 67.5zM514 910l-125 -145h-73l86 145h112z" />
    <glyph glyph-name="Ucircumflex" unicode="&#xdb;" horiz-adv-x="724" 
d="M164.5 54.5q-72.5 67.5 -72.5 196.5v449h89v-449q0 -90 48 -136.5t133 -46.5t133 46.5t48 136.5v449h89v-449q0 -129 -72.5 -196.5t-197.5 -67.5t-197.5 67.5zM441 765l-71 102l-72 -102h-83l105 145h99l105 -145h-83z" />
    <glyph glyph-name="Udieresis" unicode="&#xdc;" horiz-adv-x="724" 
d="M164.5 54.5q-72.5 67.5 -72.5 196.5v449h89v-449q0 -90 48 -136.5t133 -46.5t133 46.5t48 136.5v449h89v-449q0 -129 -72.5 -196.5t-197.5 -67.5t-197.5 67.5zM319 856v-91h-90v91h90zM511 856v-91h-90v91h90z" />
    <glyph glyph-name="Yacute" unicode="&#xdd;" horiz-adv-x="625" 
d="M607 700l-250 -446v-254h-89v254l-250 446h100l195 -358l194 358h100zM457 910l-125 -145h-73l86 145h112z" />
    <glyph glyph-name="Thorn" unicode="&#xde;" horiz-adv-x="628" 
d="M530 524.5q65 -55.5 65 -163.5t-65 -163.5t-179 -55.5h-160v-142h-89v700h89v-120h160q114 0 179 -55.5zM466.5 256.5q37.5 33.5 37.5 104.5t-37.5 104.5t-115.5 33.5h-160v-276h160q78 0 115.5 33.5z" />
    <glyph glyph-name="germandbls" unicode="&#xdf;" horiz-adv-x="603" 
d="M502.5 321q49.5 -51 49.5 -131q0 -63 -28 -108.5t-76.5 -69.5t-108.5 -24q-52 0 -102 17v71q51 -20 94 -20q59 0 96 34t37 95q0 80 -60.5 114t-135.5 34v85q35 0 70 12t59 37.5t24 65.5q0 46 -32.5 79t-91.5 33q-65 0 -98 -43t-33 -123v-479h-85v482q0 108 52.5 169.5
t163.5 61.5q70 0 118 -24.5t71 -64.5t23 -88q0 -61 -39.5 -101.5t-121.5 -54.5v-2q105 -6 154.5 -57z" />
    <glyph glyph-name="agrave" unicode="&#xe0;" horiz-adv-x="545" 
d="M470.5 42.5q3.5 -20.5 15.5 -42.5h-88q-9 17 -9 47v25q0 18 -1 27q-54 -112 -185 -112q-75 0 -114.5 36t-39.5 100q0 49 23 77t57 41.5t96 28.5q70 17 100.5 27t44 22.5t13.5 33.5q0 33 -28 55.5t-81 22.5q-54 0 -83 -24.5t-33 -72.5h-89q8 80 62 119.5t146 39.5
q97 0 143.5 -41.5t46.5 -116.5v-235q0 -37 3.5 -57.5zM337 240.5q-38 -13.5 -96 -27.5q-36 -9 -55.5 -16.5t-33.5 -24.5t-14 -46q0 -37 22 -56.5t61 -19.5q44 0 81.5 22.5t59.5 63t22 91.5v35q-9 -8 -47 -21.5zM332 555h-73l-125 145h112z" />
    <glyph glyph-name="aacute" unicode="&#xe1;" horiz-adv-x="545" 
d="M470.5 42.5q3.5 -20.5 15.5 -42.5h-88q-9 17 -9 47v25q0 18 -1 27q-54 -112 -185 -112q-75 0 -114.5 36t-39.5 100q0 49 23 77t57 41.5t96 28.5q70 17 100.5 27t44 22.5t13.5 33.5q0 33 -28 55.5t-81 22.5q-54 0 -83 -24.5t-33 -72.5h-89q8 80 62 119.5t146 39.5
q97 0 143.5 -41.5t46.5 -116.5v-235q0 -37 3.5 -57.5zM337 240.5q-38 -13.5 -96 -27.5q-36 -9 -55.5 -16.5t-33.5 -24.5t-14 -46q0 -37 22 -56.5t61 -19.5q44 0 81.5 22.5t59.5 63t22 91.5v35q-9 -8 -47 -21.5zM417 700l-125 -145h-73l86 145h112z" />
    <glyph glyph-name="acircumflex" unicode="&#xe2;" horiz-adv-x="545" 
d="M470.5 42.5q3.5 -20.5 15.5 -42.5h-88q-9 17 -9 47v25q0 18 -1 27q-54 -112 -185 -112q-75 0 -114.5 36t-39.5 100q0 49 23 77t57 41.5t96 28.5q70 17 100.5 27t44 22.5t13.5 33.5q0 33 -28 55.5t-81 22.5q-54 0 -83 -24.5t-33 -72.5h-89q8 80 62 119.5t146 39.5
q97 0 143.5 -41.5t46.5 -116.5v-235q0 -37 3.5 -57.5zM337 240.5q-38 -13.5 -96 -27.5q-36 -9 -55.5 -16.5t-33.5 -24.5t-14 -46q0 -37 22 -56.5t61 -19.5q44 0 81.5 22.5t59.5 63t22 91.5v35q-9 -8 -47 -21.5zM344 555l-71 102l-72 -102h-83l105 145h99l105 -145h-83z" />
    <glyph glyph-name="atilde" unicode="&#xe3;" horiz-adv-x="545" 
d="M470.5 42.5q3.5 -20.5 15.5 -42.5h-88q-9 17 -9 47v25q0 18 -1 27q-54 -112 -185 -112q-75 0 -114.5 36t-39.5 100q0 49 23 77t57 41.5t96 28.5q70 17 100.5 27t44 22.5t13.5 33.5q0 33 -28 55.5t-81 22.5q-54 0 -83 -24.5t-33 -72.5h-89q8 80 62 119.5t146 39.5
q97 0 143.5 -41.5t46.5 -116.5v-235q0 -37 3.5 -57.5zM337 240.5q-38 -13.5 -96 -27.5q-36 -9 -55.5 -16.5t-33.5 -24.5t-14 -46q0 -37 22 -56.5t61 -19.5q44 0 81.5 22.5t59.5 63t22 91.5v35q-9 -8 -47 -21.5zM438 658q-21 -104 -102 -104q-19 0 -36.5 6t-42.5 17
q-20 10 -34 15t-28 5q-16 0 -30.5 -11.5t-20.5 -31.5h-36q21 104 102 104q19 0 36.5 -6t42.5 -17q38 -20 61 -20q17 0 31.5 11.5t20.5 31.5h36z" />
    <glyph glyph-name="adieresis" unicode="&#xe4;" horiz-adv-x="545" 
d="M470.5 42.5q3.5 -20.5 15.5 -42.5h-88q-9 17 -9 47v25q0 18 -1 27q-54 -112 -185 -112q-75 0 -114.5 36t-39.5 100q0 49 23 77t57 41.5t96 28.5q70 17 100.5 27t44 22.5t13.5 33.5q0 33 -28 55.5t-81 22.5q-54 0 -83 -24.5t-33 -72.5h-89q8 80 62 119.5t146 39.5
q97 0 143.5 -41.5t46.5 -116.5v-235q0 -37 3.5 -57.5zM337 240.5q-38 -13.5 -96 -27.5q-36 -9 -55.5 -16.5t-33.5 -24.5t-14 -46q0 -37 22 -56.5t61 -19.5q44 0 81.5 22.5t59.5 63t22 91.5v35q-9 -8 -47 -21.5zM222 646v-91h-90v91h90zM414 646v-91h-90v91h90z" />
    <glyph glyph-name="aring" unicode="&#xe5;" horiz-adv-x="545" 
d="M470.5 42.5q3.5 -20.5 15.5 -42.5h-88q-9 17 -9 47v25q0 18 -1 27q-54 -112 -185 -112q-75 0 -114.5 36t-39.5 100q0 49 23 77t57 41.5t96 28.5q70 17 100.5 27t44 22.5t13.5 33.5q0 33 -28 55.5t-81 22.5q-54 0 -83 -24.5t-33 -72.5h-89q8 80 62 119.5t146 39.5
q97 0 143.5 -41.5t46.5 -116.5v-235q0 -37 3.5 -57.5zM337 240.5q-38 -13.5 -96 -27.5q-36 -9 -55.5 -16.5t-33.5 -24.5t-14 -46q0 -37 22 -56.5t61 -19.5q44 0 81.5 22.5t59.5 63t22 91.5v35q-9 -8 -47 -21.5zM205 549q-28 28 -28 68t28 68t68 28t68 -28t28 -68t-28 -68
t-68 -28t-68 28zM309 581q15 15 15 36t-15 36t-36 15t-36 -15t-15 -36t15 -36t36 -15t36 15z" />
    <glyph glyph-name="ae" unicode="&#xe6;" horiz-adv-x="888" 
d="M729.5 462.5q50.5 -30.5 78.5 -87.5t28 -134l-1 -23h-367q4 -77 44 -120.5t105 -43.5q49 0 81.5 25t42.5 68h86q-12 -70 -68.5 -115t-142.5 -45q-72 0 -125 32.5t-80 90.5q-30 -58 -83.5 -90.5t-124.5 -32.5q-75 0 -114.5 36t-39.5 100q0 49 23 77t57 41.5t96 28.5
q70 17 100.5 27t44 22.5t13.5 33.5q0 33 -28 55.5t-81 22.5q-54 0 -83 -24.5t-33 -72.5h-89q8 80 62 119.5t146 39.5q123 0 168 -70q29 34 71.5 52t94.5 18q68 0 118.5 -30.5zM750 281q-3 67 -41.5 106t-97.5 39q-58 0 -96 -39t-45 -106h280zM384 262q-9 -8 -47 -21.5
t-96 -27.5q-36 -9 -55.5 -16.5t-33.5 -24.5t-14 -46q0 -37 22 -56.5t61 -19.5q44 0 81.5 22.5t59.5 63t22 91.5v35z" />
    <glyph glyph-name="ccedilla" unicode="&#xe7;" horiz-adv-x="540" 
d="M365 83q30 28 38 81h88q-10 -76 -58.5 -123.5t-127.5 -52.5l-21 -40q12 4 22 4q26 0 48 -14t22 -39q0 -31 -31 -48t-69 -17q-22 0 -40.5 7t-28.5 15l12 27q9 -7 22.5 -12.5t27.5 -5.5q17 0 29.5 7.5t12.5 22.5q0 12 -9 20.5t-27 8.5q-5 0 -17 -2l-16 22l20 44
q-95 8 -151.5 75.5t-56.5 176.5q0 76 28.5 133t81 88.5t121.5 31.5q85 0 140 -46t66 -127h-88q-7 51 -38.5 78t-79.5 27q-66 0 -104.5 -49t-38.5 -136t38.5 -136t105.5 -49q49 0 79 28z" />
    <glyph glyph-name="egrave" unicode="&#xe8;" horiz-adv-x="558" 
d="M162.5 18q-52.5 31 -80.5 88.5t-28 133.5t28 133.5t79.5 88.5t119.5 31t118.5 -30.5t78.5 -87.5t28 -134l-1 -23h-367q4 -77 44 -120.5t105 -43.5q49 0 81.5 25t42.5 68h86q-12 -70 -68.5 -115t-142.5 -45q-71 0 -123.5 31zM420 281q-3 67 -41.5 106t-97.5 39
q-58 0 -96 -39t-45 -106h280zM338 555h-73l-125 145h112z" />
    <glyph glyph-name="eacute" unicode="&#xe9;" horiz-adv-x="558" 
d="M162.5 18q-52.5 31 -80.5 88.5t-28 133.5t28 133.5t79.5 88.5t119.5 31t118.5 -30.5t78.5 -87.5t28 -134l-1 -23h-367q4 -77 44 -120.5t105 -43.5q49 0 81.5 25t42.5 68h86q-12 -70 -68.5 -115t-142.5 -45q-71 0 -123.5 31zM420 281q-3 67 -41.5 106t-97.5 39
q-58 0 -96 -39t-45 -106h280zM423 700l-125 -145h-73l86 145h112z" />
    <glyph glyph-name="ecircumflex" unicode="&#xea;" horiz-adv-x="558" 
d="M162.5 18q-52.5 31 -80.5 88.5t-28 133.5t28 133.5t79.5 88.5t119.5 31t118.5 -30.5t78.5 -87.5t28 -134l-1 -23h-367q4 -77 44 -120.5t105 -43.5q49 0 81.5 25t42.5 68h86q-12 -70 -68.5 -115t-142.5 -45q-71 0 -123.5 31zM420 281q-3 67 -41.5 106t-97.5 39
q-58 0 -96 -39t-45 -106h280zM350 555l-71 102l-72 -102h-83l105 145h99l105 -145h-83z" />
    <glyph glyph-name="edieresis" unicode="&#xeb;" horiz-adv-x="558" 
d="M162.5 18q-52.5 31 -80.5 88.5t-28 133.5t28 133.5t79.5 88.5t119.5 31t118.5 -30.5t78.5 -87.5t28 -134l-1 -23h-367q4 -77 44 -120.5t105 -43.5q49 0 81.5 25t42.5 68h86q-12 -70 -68.5 -115t-142.5 -45q-71 0 -123.5 31zM420 281q-3 67 -41.5 106t-97.5 39
q-58 0 -96 -39t-45 -106h280zM228 646v-91h-90v91h90zM420 646v-91h-90v91h90z" />
    <glyph glyph-name="igrave" unicode="&#xec;" horiz-adv-x="267" 
d="M176 0h-85v480h85v-480zM193 555h-73l-125 145h112z" />
    <glyph glyph-name="iacute" unicode="&#xed;" horiz-adv-x="267" 
d="M176 0h-85v480h85v-480zM278 700l-125 -145h-73l86 145h112z" />
    <glyph glyph-name="icircumflex" unicode="&#xee;" horiz-adv-x="267" 
d="M176 0h-85v480h85v-480zM205 555l-71 102l-72 -102h-83l105 145h99l105 -145h-83z" />
    <glyph glyph-name="idieresis" unicode="&#xef;" horiz-adv-x="267" 
d="M176 0h-85v480h85v-480zM83 646v-91h-90v91h90zM275 646v-91h-90v91h90z" />
    <glyph glyph-name="eth" unicode="&#xf0;" horiz-adv-x="584" 
d="M530 266q0 -138 -63 -208.5t-171 -70.5q-73 0 -128 31.5t-84.5 88t-29.5 131.5q0 76 30 133.5t82.5 89.5t118.5 32q39 0 72 -13.5t64 -47.5q-46 81 -105 134l-151 -55l-16 48l121 44q-32 24 -88 54l48 57q72 -39 123 -81l104 38l16 -48l-78 -28q135 -135 135 -329z
M402 105q40 49 40 135t-40 135t-110 49t-110 -49t-40 -135t40 -135t110 -49t110 49z" />
    <glyph glyph-name="ntilde" unicode="&#xf1;" 
d="M405 0v308q0 59 -23.5 87.5t-75.5 28.5q-63 0 -96.5 -42t-33.5 -124v-258h-85v480h84l-4 -82q22 46 64 70.5t97 24.5q77 0 117.5 -44.5t40.5 -120.5v-328h-85zM453 658q-21 -104 -102 -104q-19 0 -36.5 6t-42.5 17q-20 10 -34 15t-28 5q-16 0 -30.5 -11.5t-20.5 -31.5
h-36q21 104 102 104q19 0 36.5 -6t42.5 -17q38 -20 61 -20q17 0 31.5 11.5t20.5 31.5h36z" />
    <glyph glyph-name="ograve" unicode="&#xf2;" horiz-adv-x="584" 
d="M167 18.5q-54 31.5 -83.5 88.5t-29.5 133t29.5 133t83.5 88.5t125 31.5t125 -31.5t83.5 -88.5t29.5 -133t-29.5 -133t-83.5 -88.5t-125 -31.5t-125 31.5zM401 104.5q41 49.5 41 135.5t-41 135.5t-109 49.5t-109 -49.5t-41 -135.5t41 -135.5t109 -49.5t109 49.5zM351 555
h-73l-125 145h112z" />
    <glyph glyph-name="oacute" unicode="&#xf3;" horiz-adv-x="584" 
d="M167 18.5q-54 31.5 -83.5 88.5t-29.5 133t29.5 133t83.5 88.5t125 31.5t125 -31.5t83.5 -88.5t29.5 -133t-29.5 -133t-83.5 -88.5t-125 -31.5t-125 31.5zM401 104.5q41 49.5 41 135.5t-41 135.5t-109 49.5t-109 -49.5t-41 -135.5t41 -135.5t109 -49.5t109 49.5zM436 700
l-125 -145h-73l86 145h112z" />
    <glyph glyph-name="ocircumflex" unicode="&#xf4;" horiz-adv-x="584" 
d="M167 18.5q-54 31.5 -83.5 88.5t-29.5 133t29.5 133t83.5 88.5t125 31.5t125 -31.5t83.5 -88.5t29.5 -133t-29.5 -133t-83.5 -88.5t-125 -31.5t-125 31.5zM401 104.5q41 49.5 41 135.5t-41 135.5t-109 49.5t-109 -49.5t-41 -135.5t41 -135.5t109 -49.5t109 49.5zM363 555
l-71 102l-72 -102h-83l105 145h99l105 -145h-83z" />
    <glyph glyph-name="otilde" unicode="&#xf5;" horiz-adv-x="584" 
d="M167 18.5q-54 31.5 -83.5 88.5t-29.5 133t29.5 133t83.5 88.5t125 31.5t125 -31.5t83.5 -88.5t29.5 -133t-29.5 -133t-83.5 -88.5t-125 -31.5t-125 31.5zM401 104.5q41 49.5 41 135.5t-41 135.5t-109 49.5t-109 -49.5t-41 -135.5t41 -135.5t109 -49.5t109 49.5zM457 658
q-21 -104 -102 -104q-19 0 -36.5 6t-42.5 17q-20 10 -34 15t-28 5q-16 0 -30.5 -11.5t-20.5 -31.5h-36q21 104 102 104q19 0 36.5 -6t42.5 -17q38 -20 61 -20q17 0 31.5 11.5t20.5 31.5h36z" />
    <glyph glyph-name="odieresis" unicode="&#xf6;" horiz-adv-x="584" 
d="M167 18.5q-54 31.5 -83.5 88.5t-29.5 133t29.5 133t83.5 88.5t125 31.5t125 -31.5t83.5 -88.5t29.5 -133t-29.5 -133t-83.5 -88.5t-125 -31.5t-125 31.5zM401 104.5q41 49.5 41 135.5t-41 135.5t-109 49.5t-109 -49.5t-41 -135.5t41 -135.5t109 -49.5t109 49.5zM241 646
v-91h-90v91h90zM433 646v-91h-90v91h90z" />
    <glyph glyph-name="divide" unicode="&#xf7;" horiz-adv-x="608" 
d="M350 562v-89h-91v89h91zM538 393v-76h-468v76h468zM350 237v-89h-91v89h91z" />
    <glyph glyph-name="oslash" unicode="&#xf8;" horiz-adv-x="584" 
d="M475 412q55 -68 55 -172q0 -76 -29.5 -133t-83.5 -88.5t-125 -31.5q-76 0 -131 35l-53 -65l-53 43l54 67q-55 69 -55 173q0 76 29.5 133t83.5 88.5t125 31.5q74 0 132 -36l53 66l53 -43zM164 135l213 264q-37 26 -85 26q-68 0 -109 -49.5t-41 -135.5q0 -61 22 -105z
M421 345l-213 -264q35 -26 84 -26q68 0 109 49.5t41 135.5q0 58 -21 105z" />
    <glyph glyph-name="ugrave" unicode="&#xf9;" 
d="M171 480v-308q0 -59 23.5 -87.5t75.5 -28.5q63 0 96.5 42t33.5 124v258h85v-480h-86l6 82q-22 -46 -64 -70.5t-97 -24.5q-77 0 -117.5 44.5t-40.5 120.5v328h85zM347 555h-73l-125 145h112z" />
    <glyph glyph-name="uacute" unicode="&#xfa;" 
d="M171 480v-308q0 -59 23.5 -87.5t75.5 -28.5q63 0 96.5 42t33.5 124v258h85v-480h-86l6 82q-22 -46 -64 -70.5t-97 -24.5q-77 0 -117.5 44.5t-40.5 120.5v328h85zM432 700l-125 -145h-73l86 145h112z" />
    <glyph glyph-name="ucircumflex" unicode="&#xfb;" 
d="M171 480v-308q0 -59 23.5 -87.5t75.5 -28.5q63 0 96.5 42t33.5 124v258h85v-480h-86l6 82q-22 -46 -64 -70.5t-97 -24.5q-77 0 -117.5 44.5t-40.5 120.5v328h85zM359 555l-71 102l-72 -102h-83l105 145h99l105 -145h-83z" />
    <glyph glyph-name="udieresis" unicode="&#xfc;" 
d="M171 480v-308q0 -59 23.5 -87.5t75.5 -28.5q63 0 96.5 42t33.5 124v258h85v-480h-86l6 82q-22 -46 -64 -70.5t-97 -24.5q-77 0 -117.5 44.5t-40.5 120.5v328h85zM237 646v-91h-90v91h90zM429 646v-91h-90v91h90z" />
    <glyph glyph-name="yacute" unicode="&#xfd;" horiz-adv-x="494" 
d="M481 480l-282 -680h-93l99 201l-192 479h92l142 -367l142 367h92zM391 700l-125 -145h-73l86 145h112z" />
    <glyph glyph-name="thorn" unicode="&#xfe;" horiz-adv-x="603" 
d="M445.5 461q48.5 -32 76 -89.5t27.5 -131.5t-27 -131.5t-75 -89.5t-109 -32q-53 0 -95 24t-67 67v-278h-85v900h85v-305q24 50 66.5 74t93.5 24q61 0 109.5 -32zM420.5 105q40.5 50 40.5 135q0 86 -40.5 135.5t-103.5 49.5t-103.5 -49.5t-40.5 -135.5q0 -57 19 -98.5
t51.5 -64t73.5 -22.5q63 0 103.5 50z" />
    <glyph glyph-name="ydieresis" unicode="&#xff;" horiz-adv-x="494" 
d="M481 480l-282 -680h-93l99 201l-192 479h92l142 -367l142 367h92zM196 646v-91h-90v91h90zM388 646v-91h-90v91h90z" />
    <glyph glyph-name="Amacron" unicode="&#x100;" horiz-adv-x="674" 
d="M499 181h-324l-65 -181h-91l252 700h132l252 -700h-91zM470 261l-133 371l-133 -371h266zM476 838v-62h-277v62h277z" />
    <glyph glyph-name="amacron" unicode="&#x101;" horiz-adv-x="545" 
d="M470.5 42.5q3.5 -20.5 15.5 -42.5h-88q-9 17 -9 47v25q0 18 -1 27q-54 -112 -185 -112q-75 0 -114.5 36t-39.5 100q0 49 23 77t57 41.5t96 28.5q70 17 100.5 27t44 22.5t13.5 33.5q0 33 -28 55.5t-81 22.5q-54 0 -83 -24.5t-33 -72.5h-89q8 80 62 119.5t146 39.5
q97 0 143.5 -41.5t46.5 -116.5v-235q0 -37 3.5 -57.5zM337 240.5q-38 -13.5 -96 -27.5q-36 -9 -55.5 -16.5t-33.5 -24.5t-14 -46q0 -37 22 -56.5t61 -19.5q44 0 81.5 22.5t59.5 63t22 91.5v35q-9 -8 -47 -21.5zM411 628v-62h-277v62h277z" />
    <glyph glyph-name="Abreve" unicode="&#x102;" horiz-adv-x="674" 
d="M499 181h-324l-65 -181h-91l252 700h132l252 -700h-91zM470 261l-133 371l-133 -371h266zM443 803.5q-44 -38.5 -105 -38.5t-105.5 38.5t-48.5 106.5h62q4 -43 29.5 -63t62.5 -20q36 0 61.5 20t29.5 63h62q-4 -68 -48 -106.5z" />
    <glyph glyph-name="abreve" unicode="&#x103;" horiz-adv-x="545" 
d="M470.5 42.5q3.5 -20.5 15.5 -42.5h-88q-9 17 -9 47v25q0 18 -1 27q-54 -112 -185 -112q-75 0 -114.5 36t-39.5 100q0 49 23 77t57 41.5t96 28.5q70 17 100.5 27t44 22.5t13.5 33.5q0 33 -28 55.5t-81 22.5q-54 0 -83 -24.5t-33 -72.5h-89q8 80 62 119.5t146 39.5
q97 0 143.5 -41.5t46.5 -116.5v-235q0 -37 3.5 -57.5zM337 240.5q-38 -13.5 -96 -27.5q-36 -9 -55.5 -16.5t-33.5 -24.5t-14 -46q0 -37 22 -56.5t61 -19.5q44 0 81.5 22.5t59.5 63t22 91.5v35q-9 -8 -47 -21.5zM378 593.5q-44 -38.5 -105 -38.5t-105.5 38.5t-48.5 106.5h62
q4 -43 29.5 -63t62.5 -20q36 0 61.5 20t29.5 63h62q-4 -68 -48 -106.5z" />
    <glyph glyph-name="Aogonek" unicode="&#x104;" horiz-adv-x="674" 
d="M499 181h-324l-65 -181h-91l252 700h132l252 -700h-91zM470 261l-133 371l-133 -371h266zM655 0q-51 -30 -73 -53t-22 -52q0 -24 12.5 -34t32.5 -10q13 0 26.5 4t19.5 8v-60q-8 -7 -25.5 -11.5t-37.5 -4.5q-42 0 -72 21t-30 67q0 38 22 68t61 57h86z" />
    <glyph glyph-name="aogonek" unicode="&#x105;" horiz-adv-x="545" 
d="M403.5 -139q12.5 -10 32.5 -10q13 0 26.5 4t19.5 8v-60q-8 -7 -25.5 -11.5t-37.5 -4.5q-42 0 -72 21t-30 67q0 38 22 68t61 57h-2q-9 17 -9 47v25q0 18 -1 27q-54 -112 -185 -112q-75 0 -114.5 36t-39.5 100q0 49 23 77t57 41.5t96 28.5q70 17 100.5 27t44 22.5
t13.5 33.5q0 33 -28 55.5t-81 22.5q-54 0 -83 -24.5t-33 -72.5h-89q8 80 62 119.5t146 39.5q97 0 143.5 -41.5t46.5 -116.5v-235q0 -37 3.5 -57.5t15.5 -42.5q-51 -30 -73 -53t-22 -52q0 -24 12.5 -34zM384 262q-9 -8 -47 -21.5t-96 -27.5q-36 -9 -55.5 -16.5t-33.5 -24.5
t-14 -46q0 -37 22 -56.5t61 -19.5q44 0 81.5 22.5t59.5 63t22 91.5v35z" />
    <glyph glyph-name="Cacute" unicode="&#x106;" horiz-adv-x="753" 
d="M218 32.5q-74 45.5 -113 128t-39 189.5t39 189.5t112.5 128t172.5 45.5q118 0 198 -64t95 -181h-90q-13 80 -68 122t-136 42q-116 0 -173.5 -80t-57.5 -203q0 -122 57 -201.5t177 -79.5q84 0 139 43.5t65 133.5h90q-12 -130 -94 -194t-200 -64q-100 0 -174 45.5zM521 910
l-125 -145h-73l86 145h112z" />
    <glyph glyph-name="cacute" unicode="&#x107;" horiz-adv-x="540" 
d="M163.5 18.5q-52.5 31.5 -81 88.5t-28.5 133t28.5 133t81 88.5t121.5 31.5q85 0 140 -46t66 -127h-88q-7 51 -38.5 78t-79.5 27q-66 0 -104.5 -49t-38.5 -136t38.5 -136t105.5 -49q49 0 79 28t38 81h88q-11 -81 -64.5 -129t-141.5 -48q-69 0 -121.5 31.5zM429 700
l-125 -145h-73l86 145h112z" />
    <glyph glyph-name="Cdotaccent" unicode="&#x10a;" horiz-adv-x="753" 
d="M218 32.5q-74 45.5 -113 128t-39 189.5t39 189.5t112.5 128t172.5 45.5q118 0 198 -64t95 -181h-90q-13 80 -68 122t-136 42q-116 0 -173.5 -80t-57.5 -203q0 -122 57 -201.5t177 -79.5q84 0 139 43.5t65 133.5h90q-12 -130 -94 -194t-200 -64q-100 0 -174 45.5zM422 856
v-91h-90v91h90z" />
    <glyph glyph-name="cdotaccent" unicode="&#x10b;" horiz-adv-x="540" 
d="M163.5 18.5q-52.5 31.5 -81 88.5t-28.5 133t28.5 133t81 88.5t121.5 31.5q85 0 140 -46t66 -127h-88q-7 51 -38.5 78t-79.5 27q-66 0 -104.5 -49t-38.5 -136t38.5 -136t105.5 -49q49 0 79 28t38 81h88q-11 -81 -64.5 -129t-141.5 -48q-69 0 -121.5 31.5zM330 646v-91h-90
v91h90z" />
    <glyph glyph-name="Ccaron" unicode="&#x10c;" horiz-adv-x="753" 
d="M218 32.5q-74 45.5 -113 128t-39 189.5t39 189.5t112.5 128t172.5 45.5q118 0 198 -64t95 -181h-90q-13 80 -68 122t-136 42q-116 0 -173.5 -80t-57.5 -203q0 -122 57 -201.5t177 -79.5q84 0 139 43.5t65 133.5h90q-12 -130 -94 -194t-200 -64q-100 0 -174 45.5zM531 910
l-105 -145h-99l-105 145h83l72 -102l71 102h83z" />
    <glyph glyph-name="ccaron" unicode="&#x10d;" horiz-adv-x="540" 
d="M163.5 18.5q-52.5 31.5 -81 88.5t-28.5 133t28.5 133t81 88.5t121.5 31.5q85 0 140 -46t66 -127h-88q-7 51 -38.5 78t-79.5 27q-66 0 -104.5 -49t-38.5 -136t38.5 -136t105.5 -49q49 0 79 28t38 81h88q-11 -81 -64.5 -129t-141.5 -48q-69 0 -121.5 31.5zM439 700
l-105 -145h-99l-105 145h83l72 -102l71 102h83z" />
    <glyph glyph-name="Dcaron" unicode="&#x10e;" horiz-adv-x="765" 
d="M544 656.5q77 -43.5 116 -122.5t39 -184t-39 -184t-116 -122.5t-189 -43.5h-253v700h253q112 0 189 -43.5zM542.5 154.5q64.5 74.5 64.5 195.5t-64.5 195.5t-191.5 74.5h-158v-540h158q127 0 191.5 74.5zM516 910l-105 -145h-99l-105 145h83l72 -102l71 102h83z" />
    <glyph glyph-name="dcaron" unicode="&#x10f;" horiz-adv-x="603" 
d="M157.5 19q-48.5 32 -76 89.5t-27.5 131.5t27 131.5t75 89.5t109 32q53 0 95 -24t67 -67v298h85v-700h-84l2 91q-24 -52 -67 -78t-96 -26q-61 0 -109.5 32zM389.5 104.5q40.5 49.5 40.5 135.5q0 57 -19 98.5t-51.5 64t-73.5 22.5q-63 0 -103.5 -50t-40.5 -135
q0 -86 40.5 -135.5t103.5 -49.5t103.5 49.5zM665 700l-52 -175h-55l27 175h80z" />
    <glyph glyph-name="Dcroat" unicode="&#x110;" horiz-adv-x="765" 
d="M544 656.5q77 -43.5 116 -122.5t39 -184t-39 -184t-116 -122.5t-189 -43.5h-253v311h-85v78h85v311h253q112 0 189 -43.5zM542.5 154.5q64.5 74.5 64.5 195.5t-64.5 195.5t-191.5 74.5h-158v-231h190v-78h-190v-231h158q127 0 191.5 74.5z" />
    <glyph glyph-name="dcroat" unicode="&#x111;" horiz-adv-x="603" 
d="M583 560h-71v-560h-84l2 91q-24 -52 -67 -78t-96 -26q-61 0 -109.5 32t-76 89.5t-27.5 131.5t27 131.5t75 89.5t109 32q53 0 95 -24t67 -67v158h-152v57h152v83h85v-83h71v-57zM389.5 104.5q40.5 49.5 40.5 135.5q0 57 -19 98.5t-51.5 64t-73.5 22.5q-63 0 -103.5 -50
t-40.5 -135q0 -86 40.5 -135.5t103.5 -49.5t103.5 49.5z" />
    <glyph glyph-name="Emacron" unicode="&#x112;" horiz-adv-x="657" 
d="M191 620v-221h360v-79h-360v-240h398v-80h-487v700h487v-80h-398zM475 838v-62h-277v62h277z" />
    <glyph glyph-name="emacron" unicode="&#x113;" horiz-adv-x="558" 
d="M162.5 18q-52.5 31 -80.5 88.5t-28 133.5t28 133.5t79.5 88.5t119.5 31t118.5 -30.5t78.5 -87.5t28 -134l-1 -23h-367q4 -77 44 -120.5t105 -43.5q49 0 81.5 25t42.5 68h86q-12 -70 -68.5 -115t-142.5 -45q-71 0 -123.5 31zM420 281q-3 67 -41.5 106t-97.5 39
q-58 0 -96 -39t-45 -106h280zM417 628v-62h-277v62h277z" />
    <glyph glyph-name="Edotaccent" unicode="&#x116;" horiz-adv-x="657" 
d="M191 620v-221h360v-79h-360v-240h398v-80h-487v700h487v-80h-398zM382 856v-91h-90v91h90z" />
    <glyph glyph-name="edotaccent" unicode="&#x117;" horiz-adv-x="558" 
d="M162.5 18q-52.5 31 -80.5 88.5t-28 133.5t28 133.5t79.5 88.5t119.5 31t118.5 -30.5t78.5 -87.5t28 -134l-1 -23h-367q4 -77 44 -120.5t105 -43.5q49 0 81.5 25t42.5 68h86q-12 -70 -68.5 -115t-142.5 -45q-71 0 -123.5 31zM420 281q-3 67 -41.5 106t-97.5 39
q-58 0 -96 -39t-45 -106h280zM324 646v-91h-90v91h90z" />
    <glyph glyph-name="Eogonek" unicode="&#x118;" horiz-adv-x="657" 
d="M191 620v-221h360v-79h-360v-240h398v-80h-487v700h487v-80h-398zM589 0q-51 -30 -73 -53t-22 -52q0 -24 12.5 -34t32.5 -10q13 0 26.5 4t19.5 8v-60q-8 -7 -25.5 -11.5t-37.5 -4.5q-42 0 -72 21t-30 67q0 38 22 68t61 57h86z" />
    <glyph glyph-name="eogonek" unicode="&#x119;" horiz-adv-x="558" 
d="M399.5 462.5q50.5 -30.5 78.5 -87.5t28 -134l-1 -23h-367q4 -77 44 -120.5t105 -43.5q49 0 81.5 25t42.5 68h86q-9 -44 -28.5 -73t-52.5 -51q-47 -32 -77.5 -62.5t-30.5 -66.5q0 -22 13 -32.5t32 -10.5q13 0 26.5 4t19.5 8v-60q-8 -7 -25.5 -11.5t-37.5 -4.5
q-42 0 -72 21t-30 67q0 62 65 112h-13q-71 0 -123.5 31t-80.5 88.5t-28 133.5t28 133.5t79.5 88.5t119.5 31t118.5 -30.5zM420 281q-3 67 -41.5 106t-97.5 39q-58 0 -96 -39t-45 -106h280z" />
    <glyph glyph-name="Ecaron" unicode="&#x11a;" horiz-adv-x="657" 
d="M191 620v-221h360v-79h-360v-240h398v-80h-487v700h487v-80h-398zM491 910l-105 -145h-99l-105 145h83l72 -102l71 102h83z" />
    <glyph glyph-name="ecaron" unicode="&#x11b;" horiz-adv-x="558" 
d="M162.5 18q-52.5 31 -80.5 88.5t-28 133.5t28 133.5t79.5 88.5t119.5 31t118.5 -30.5t78.5 -87.5t28 -134l-1 -23h-367q4 -77 44 -120.5t105 -43.5q49 0 81.5 25t42.5 68h86q-12 -70 -68.5 -115t-142.5 -45q-71 0 -123.5 31zM420 281q-3 67 -41.5 106t-97.5 39
q-58 0 -96 -39t-45 -106h280zM433 700l-105 -145h-99l-105 145h83l72 -102l71 102h83z" />
    <glyph glyph-name="Gbreve" unicode="&#x11e;" horiz-adv-x="783" 
d="M223.5 32.5q-75.5 45.5 -116.5 127.5t-41 189q0 108 41.5 190.5t118 128t179.5 45.5q122 0 204 -65t95 -185h-91q-10 82 -65.5 125.5t-142.5 43.5q-83 0 -138.5 -38t-82 -102t-26.5 -142t27 -141.5t83.5 -101.5t141.5 -38q93 0 151.5 48t66.5 141h-224v77h300v-335h-78
l14 118h-4q-64 -131 -236 -131q-101 0 -176.5 45.5zM503 803.5q-44 -38.5 -105 -38.5t-105.5 38.5t-48.5 106.5h62q4 -43 29.5 -63t62.5 -20q36 0 61.5 20t29.5 63h62q-4 -68 -48 -106.5z" />
    <glyph glyph-name="gbreve" unicode="&#x11f;" horiz-adv-x="604" 
d="M79 -56h88q5 -46 37 -68.5t82 -22.5q69 0 106.5 42t37.5 123v62q-20 -48 -64 -70.5t-98 -22.5q-65 0 -113.5 31.5t-74.5 88.5t-26 131q0 75 26.5 133t74.5 90t109 32q54 0 100 -25.5t70 -78.5l-5 91h84v-461q0 -232 -232 -232q-188 0 -202 157zM358.5 76.5
q33.5 22.5 53 65t19.5 98.5q0 57 -19.5 99t-53 64t-73.5 22q-63 0 -103 -51t-40 -135q0 -83 39.5 -134t102.5 -51q41 0 74.5 22.5zM407 593.5q-44 -38.5 -105 -38.5t-105.5 38.5t-48.5 106.5h62q4 -43 29.5 -63t62.5 -20q36 0 61.5 20t29.5 63h62q-4 -68 -48 -106.5z" />
    <glyph glyph-name="Gdotaccent" unicode="&#x120;" horiz-adv-x="783" 
d="M223.5 32.5q-75.5 45.5 -116.5 127.5t-41 189q0 108 41.5 190.5t118 128t179.5 45.5q122 0 204 -65t95 -185h-91q-10 82 -65.5 125.5t-142.5 43.5q-83 0 -138.5 -38t-82 -102t-26.5 -142t27 -141.5t83.5 -101.5t141.5 -38q93 0 151.5 48t66.5 141h-224v77h300v-335h-78
l14 118h-4q-64 -131 -236 -131q-101 0 -176.5 45.5zM443 856v-91h-90v91h90z" />
    <glyph glyph-name="gdotaccent" unicode="&#x121;" horiz-adv-x="604" 
d="M79 -56h88q5 -46 37 -68.5t82 -22.5q69 0 106.5 42t37.5 123v62q-20 -48 -64 -70.5t-98 -22.5q-65 0 -113.5 31.5t-74.5 88.5t-26 131q0 75 26.5 133t74.5 90t109 32q54 0 100 -25.5t70 -78.5l-5 91h84v-461q0 -232 -232 -232q-188 0 -202 157zM358.5 76.5
q33.5 22.5 53 65t19.5 98.5q0 57 -19.5 99t-53 64t-73.5 22q-63 0 -103 -51t-40 -135q0 -83 39.5 -134t102.5 -51q41 0 74.5 22.5zM347 646v-91h-90v91h90z" />
    <glyph glyph-name="Gcommaaccent" unicode="&#x122;" horiz-adv-x="783" 
d="M223.5 32.5q-75.5 45.5 -116.5 127.5t-41 189q0 108 41.5 190.5t118 128t179.5 45.5q122 0 204 -65t95 -185h-91q-10 82 -65.5 125.5t-142.5 43.5q-83 0 -138.5 -38t-82 -102t-26.5 -142t27 -141.5t83.5 -101.5t141.5 -38q93 0 151.5 48t66.5 141h-224v77h300v-335h-78
l14 118h-4q-64 -131 -236 -131q-101 0 -176.5 45.5zM452 -50v-100l-51 -101h-60l71 101h-49v100h89z" />
    <glyph glyph-name="gcommaaccent" unicode="&#x123;" horiz-adv-x="604" 
d="M79 -56h88q5 -46 37 -68.5t82 -22.5q69 0 106.5 42t37.5 123v62q-20 -48 -64 -70.5t-98 -22.5q-65 0 -113.5 31.5t-74.5 88.5t-26 131q0 75 26.5 133t74.5 90t109 32q54 0 100 -25.5t70 -78.5l-5 91h84v-461q0 -232 -232 -232q-188 0 -202 157zM358.5 76.5
q33.5 22.5 53 65t19.5 98.5q0 57 -19.5 99t-53 64t-73.5 22q-63 0 -103 -51t-40 -135q0 -83 39.5 -134t102.5 -51q41 0 74.5 22.5zM246 555v100l51 101h60l-71 -101h49v-100h-89z" />
    <glyph glyph-name="Hbar" unicode="&#x126;" horiz-adv-x="745" 
d="M703 570h-60v-570h-89v320h-363v-320h-89v570h-60v60h60v70h89v-70h363v70h89v-70h60v-60zM554 570h-363v-171h363v171z" />
    <glyph glyph-name="hbar" unicode="&#x127;" 
d="M449.5 448q40.5 -45 40.5 -120v-328h-85v308q0 60 -24 88t-77 28q-61 0 -94.5 -42t-33.5 -124v-258h-85v560h-71v57h71v83h86v-83h151v-57h-151l-1 -164q47 97 158 97q75 0 115.5 -45z" />
    <glyph glyph-name="Imacron" unicode="&#x12a;" horiz-adv-x="293" 
d="M102 700h89v-700h-89v700zM285 838v-62h-277v62h277z" />
    <glyph glyph-name="imacron" unicode="&#x12b;" horiz-adv-x="267" 
d="M176 0h-85v480h85v-480zM272 628v-62h-277v62h277z" />
    <glyph glyph-name="Iogonek" unicode="&#x12e;" horiz-adv-x="293" 
d="M102 700h89v-700h-89v700zM191 0q-51 -30 -73 -53t-22 -52q0 -24 12.5 -34t32.5 -10q13 0 26.5 4t19.5 8v-60q-8 -7 -25.5 -11.5t-37.5 -4.5q-42 0 -72 21t-30 67q0 38 22 68t61 57h86z" />
    <glyph glyph-name="iogonek" unicode="&#x12f;" horiz-adv-x="267" 
d="M179 646v-91h-90v91h90zM91 480h85v-480q-51 -30 -73 -53t-22 -52q0 -24 12.5 -34t32.5 -10q13 0 26.5 4t19.5 8v-60q-8 -7 -25.5 -11.5t-37.5 -4.5q-42 0 -72 21t-30 67q0 38 22 68.5t62 56.5v480z" />
    <glyph glyph-name="Idotaccent" unicode="&#x130;" horiz-adv-x="293" 
d="M102 700h89v-700h-89v700zM192 856v-91h-90v91h90z" />
    <glyph glyph-name="dotlessi" unicode="&#x131;" horiz-adv-x="267" 
d="M176 0h-85v480h85v-480z" />
    <glyph glyph-name="Kcommaaccent" unicode="&#x136;" horiz-adv-x="672" 
d="M531 203q52 -135 102 -203h-100q-19 25 -35.5 61t-42.5 101q-4 10 -7 18.5t-6 15.5l-77 193l-174 -179v-210h-89v700h89v-371l361 371h115l-235 -242zM390 -50v-100l-51 -101h-60l71 101h-49v100h89z" />
    <glyph glyph-name="kcommaaccent" unicode="&#x137;" horiz-adv-x="530" 
d="M421 0l-134 264l-111 -106v-158h-85v700h85v-445l225 225h113l-172 -164l175 -316h-96zM340 -50v-100l-51 -101h-60l71 101h-49v100h89z" />
    <glyph glyph-name="Lacute" unicode="&#x139;" horiz-adv-x="574" 
d="M551 80v-80h-449v700h89v-620h360zM295 910l-125 -145h-73l86 145h112z" />
    <glyph glyph-name="lacute" unicode="&#x13a;" horiz-adv-x="267" 
d="M176 0h-85v700h85v-700zM272 910l-125 -145h-73l86 145h112z" />
    <glyph glyph-name="Lcommaaccent" unicode="&#x13b;" horiz-adv-x="574" 
d="M551 80v-80h-449v700h89v-620h360zM371 -50v-100l-51 -101h-60l71 101h-49v100h89z" />
    <glyph glyph-name="lcommaaccent" unicode="&#x13c;" horiz-adv-x="267" 
d="M176 0h-85v700h85v-700zM179 -50v-100l-51 -101h-60l71 101h-49v100h89z" />
    <glyph glyph-name="Lcaron" unicode="&#x13d;" horiz-adv-x="574" 
d="M551 80v-80h-449v700h89v-620h360zM302 485h-55l27 215h80z" />
    <glyph glyph-name="lcaron" unicode="&#x13e;" horiz-adv-x="258" 
d="M176 0h-85v700h85v-700zM331 700l-52 -175h-55l27 175h80z" />
    <glyph glyph-name="Lslash" unicode="&#x141;" horiz-adv-x="574" 
d="M551 80v-80h-449v268l-72 -40v86l72 40v346h89v-297l158 88v-86l-158 -88v-237h360z" />
    <glyph glyph-name="lslash" unicode="&#x142;" horiz-adv-x="267" 
d="M263 395l-87 -46v-349h-85v303l-90 -48v83l90 48v314h85v-268l87 46v-83z" />
    <glyph glyph-name="Nacute" unicode="&#x143;" horiz-adv-x="766" 
d="M575 362v338h89v-700h-143l-164 301q-65 120 -168 316h-2q4 -206 4 -316v-301h-89v700h139l184 -338q61 -113 152 -287h2q-4 125 -4 287zM527 910l-125 -145h-73l86 145h112z" />
    <glyph glyph-name="nacute" unicode="&#x144;" 
d="M405 0v308q0 59 -23.5 87.5t-75.5 28.5q-63 0 -96.5 -42t-33.5 -124v-258h-85v480h84l-4 -82q22 46 64 70.5t97 24.5q77 0 117.5 -44.5t40.5 -120.5v-328h-85zM432 700l-125 -145h-73l86 145h112z" />
    <glyph glyph-name="Ncommaaccent" unicode="&#x145;" horiz-adv-x="766" 
d="M575 362v338h89v-700h-143l-164 301q-65 120 -168 316h-2q4 -206 4 -316v-301h-89v700h139l184 -338q61 -113 152 -287h2q-4 125 -4 287zM437 -50v-100l-51 -101h-60l71 101h-49v100h89z" />
    <glyph glyph-name="ncommaaccent" unicode="&#x146;" 
d="M405 0v308q0 59 -23.5 87.5t-75.5 28.5q-63 0 -96.5 -42t-33.5 -124v-258h-85v480h84l-4 -82q22 46 64 70.5t97 24.5q77 0 117.5 -44.5t40.5 -120.5v-328h-85zM342 -50v-100l-51 -101h-60l71 101h-49v100h89z" />
    <glyph glyph-name="Ncaron" unicode="&#x147;" horiz-adv-x="766" 
d="M575 362v338h89v-700h-143l-164 301q-65 120 -168 316h-2q4 -206 4 -316v-301h-89v700h139l184 -338q61 -113 152 -287h2q-4 125 -4 287zM537 910l-105 -145h-99l-105 145h83l72 -102l71 102h83z" />
    <glyph glyph-name="ncaron" unicode="&#x148;" 
d="M405 0v308q0 59 -23.5 87.5t-75.5 28.5q-63 0 -96.5 -42t-33.5 -124v-258h-85v480h84l-4 -82q22 46 64 70.5t97 24.5q77 0 117.5 -44.5t40.5 -120.5v-328h-85zM442 700l-105 -145h-99l-105 145h83l72 -102l71 102h83z" />
    <glyph glyph-name="Eng" unicode="&#x14a;" horiz-adv-x="766" 
d="M664 700v-783q0 -54 -31.5 -89.5t-90.5 -35.5q-35 0 -63 7v70q20 -5 41 -5q55 0 55 62v74l-384 611v-611h-89v700h139l334 -534v534h89z" />
    <glyph glyph-name="eng" unicode="&#x14b;" 
d="M449.5 448.5q40.5 -44.5 40.5 -120.5v-411q0 -54 -31.5 -89.5t-90.5 -35.5q-35 0 -63 7v70q20 -5 41 -5q59 0 59 62v382q0 59 -23.5 87.5t-75.5 28.5q-63 0 -96.5 -42t-33.5 -124v-258h-85v480h84l-4 -82q22 46 64 70.5t97 24.5q77 0 117.5 -44.5z" />
    <glyph glyph-name="Omacron" unicode="&#x14c;" horiz-adv-x="797" 
d="M222 33q-75 46 -115.5 128.5t-40.5 188.5t40.5 188.5t115.5 128.5t176 46t176.5 -46t116 -128.5t40.5 -188.5t-40.5 -188.5t-116 -128.5t-176.5 -46t-176 46zM533 106.5q54 38.5 80 102.5t26 141t-26 141t-80 102.5t-135 38.5q-80 0 -134 -38.5t-80 -102.5t-26 -141
t26 -141t80 -102.5t134 -38.5q81 0 135 38.5zM537 838v-62h-277v62h277z" />
    <glyph glyph-name="omacron" unicode="&#x14d;" horiz-adv-x="584" 
d="M167 18.5q-54 31.5 -83.5 88.5t-29.5 133t29.5 133t83.5 88.5t125 31.5t125 -31.5t83.5 -88.5t29.5 -133t-29.5 -133t-83.5 -88.5t-125 -31.5t-125 31.5zM401 104.5q41 49.5 41 135.5t-41 135.5t-109 49.5t-109 -49.5t-41 -135.5t41 -135.5t109 -49.5t109 49.5zM430 628
v-62h-277v62h277z" />
    <glyph glyph-name="Ohungarumlaut" unicode="&#x150;" horiz-adv-x="797" 
d="M222 33q-75 46 -115.5 128.5t-40.5 188.5t40.5 188.5t115.5 128.5t176 46t176.5 -46t116 -128.5t40.5 -188.5t-40.5 -188.5t-116 -128.5t-176.5 -46t-176 46zM533 106.5q54 38.5 80 102.5t26 141t-26 141t-80 102.5t-135 38.5q-80 0 -134 -38.5t-80 -102.5t-26 -141
t26 -141t80 -102.5t134 -38.5q81 0 135 38.5zM478 909l-148 -145h-77l107 145h118zM647 909l-148 -145h-77l107 145h118z" />
    <glyph glyph-name="ohungarumlaut" unicode="&#x151;" horiz-adv-x="584" 
d="M167 18.5q-54 31.5 -83.5 88.5t-29.5 133t29.5 133t83.5 88.5t125 31.5t125 -31.5t83.5 -88.5t29.5 -133t-29.5 -133t-83.5 -88.5t-125 -31.5t-125 31.5zM401 104.5q41 49.5 41 135.5t-41 135.5t-109 49.5t-109 -49.5t-41 -135.5t41 -135.5t109 -49.5t109 49.5zM371 699
l-148 -145h-77l107 145h118zM540 699l-148 -145h-77l107 145h118z" />
    <glyph glyph-name="OE" unicode="&#x152;" horiz-adv-x="1042" 
d="M576 620v-221h360v-79h-360v-240h398v-80h-564q-112 0 -189 43.5t-116 122.5t-39 184t39 184t116 122.5t189 43.5h564v-80h-398zM487 80v540h-73q-127 0 -191.5 -74.5t-64.5 -195.5t64.5 -195.5t191.5 -74.5h73z" />
    <glyph glyph-name="oe" unicode="&#x153;" horiz-adv-x="946" 
d="M787.5 462.5q50.5 -30.5 78.5 -87.5t28 -134l-1 -23h-367q4 -77 44 -120.5t105 -43.5q49 0 81.5 25t42.5 68h86q-12 -70 -68.5 -115t-142.5 -45q-62 0 -110.5 24.5t-78.5 69.5q-31 -45 -81 -69.5t-112 -24.5q-71 0 -125 31.5t-83.5 88.5t-29.5 133t29.5 133t83.5 88.5
t125 31.5q62 0 111.5 -24.5t80.5 -69.5q30 45 77.5 69.5t107.5 24.5q68 0 118.5 -30.5zM808 281q-3 67 -41.5 106t-97.5 39q-58 0 -96 -39t-45 -106h280zM401 104.5q41 49.5 41 135.5t-41 135.5t-109 49.5t-109 -49.5t-41 -135.5t41 -135.5t109 -49.5t109 49.5z" />
    <glyph glyph-name="Racute" unicode="&#x154;" horiz-adv-x="663" 
d="M609 0h-99q-39 47 -39 142l1 47q0 31 -7.5 53t-31.5 42h-242v-284h-89v700h256q112 0 178 -53.5t66 -153.5q0 -74 -36 -117t-98 -55q42 -13 62.5 -39.5t25.5 -57.5t6 -76q2 -96 47 -148zM358 364q76 0 114.5 34.5t38.5 96.5q0 61 -38 93t-115 32h-167v-256h167zM474 910
l-125 -145h-73l86 145h112z" />
    <glyph glyph-name="racute" unicode="&#x155;" horiz-adv-x="388" 
d="M334 407q-84 0 -121 -47t-37 -150v-210h-85v480h83v-110q31 61 70 88.5t95 27.5q13 0 25 -2v-79q-20 2 -30 2zM338 700l-125 -145h-73l86 145h112z" />
    <glyph glyph-name="Rcommaaccent" unicode="&#x156;" horiz-adv-x="663" 
d="M609 0h-99q-39 47 -39 142l1 47q0 31 -7.5 53t-31.5 42h-242v-284h-89v700h256q112 0 178 -53.5t66 -153.5q0 -74 -36 -117t-98 -55q42 -13 62.5 -39.5t25.5 -57.5t6 -76q2 -96 47 -148zM358 364q76 0 114.5 34.5t38.5 96.5q0 61 -38 93t-115 32h-167v-256h167zM384 -50
v-100l-51 -101h-60l71 101h-49v100h89z" />
    <glyph glyph-name="rcommaaccent" unicode="&#x157;" horiz-adv-x="388" 
d="M334 407q-84 0 -121 -47t-37 -150v-210h-85v480h83v-110q31 61 70 88.5t95 27.5q13 0 25 -2v-79q-20 2 -30 2zM179 -50v-100l-51 -101h-60l71 101h-49v100h89z" />
    <glyph glyph-name="Rcaron" unicode="&#x158;" horiz-adv-x="663" 
d="M609 0h-99q-39 47 -39 142l1 47q0 31 -7.5 53t-31.5 42h-242v-284h-89v700h256q112 0 178 -53.5t66 -153.5q0 -74 -36 -117t-98 -55q42 -13 62.5 -39.5t25.5 -57.5t6 -76q2 -96 47 -148zM358 364q76 0 114.5 34.5t38.5 96.5q0 61 -38 93t-115 32h-167v-256h167zM484 910
l-105 -145h-99l-105 145h83l72 -102l71 102h83z" />
    <glyph glyph-name="rcaron" unicode="&#x159;" horiz-adv-x="388" 
d="M334 407q-84 0 -121 -47t-37 -150v-210h-85v480h83v-110q31 61 70 88.5t95 27.5q13 0 25 -2v-79q-20 2 -30 2zM348 700l-105 -145h-99l-105 145h83l72 -102l71 102h83z" />
    <glyph glyph-name="Sacute" unicode="&#x15a;" horiz-adv-x="627" 
d="M115 59.5q-62 72.5 -62 174.5h89q-1 -83 48 -126t134 -43q74 0 116 31.5t42 88.5q0 44 -24 70t-59.5 40t-96.5 30q-75 20 -120.5 38.5t-77 56t-31.5 99.5q0 88 62.5 141t171.5 53q89 0 144 -34t79 -84.5t25 -103.5h-88q-4 72 -46.5 108t-116.5 36q-66 0 -104 -27.5
t-38 -76.5q0 -37 21.5 -59.5t53 -34.5t91.5 -28q81 -22 128 -41.5t81 -61t34 -113.5q0 -98 -65 -152t-185 -54q-144 0 -206 72.5zM456 910l-125 -145h-73l86 145h112z" />
    <glyph glyph-name="sacute" unicode="&#x15b;" horiz-adv-x="500" 
d="M322 407q-26 22 -78 22q-46 0 -70.5 -17t-24.5 -50q0 -24 13 -37.5t34 -19.5t70 -17q59 -13 97 -28.5t62.5 -45.5t24.5 -79q0 -73 -52 -110.5t-142 -37.5q-108 0 -154.5 49t-47.5 124h85q0 -53 30.5 -81t90.5 -28q47 0 76.5 18t29.5 58q0 28 -15.5 44t-39 24t-67.5 17
q-14 2 -21 4q-78 17 -118 45.5t-40 91.5q0 67 48 103.5t133 36.5q99 0 143 -45t48 -107h-86q-3 44 -29 66zM394 700l-125 -145h-73l86 145h112z" />
    <glyph glyph-name="Scedilla" unicode="&#x15e;" horiz-adv-x="627" 
d="M510.5 45q-60.5 -54 -171.5 -58l-21 -39q12 4 22 4q26 0 48 -14t22 -39q0 -31 -31 -48t-69 -17q-22 0 -40.5 7t-28.5 15l12 27q9 -7 22.5 -12.5t27.5 -5.5q17 0 29.5 7.5t12.5 22.5q0 12 -9 20.5t-27 8.5q-5 0 -17 -2l-16 22l20 44q-130 7 -186.5 78t-56.5 168h89
q-1 -83 48 -126t134 -43q74 0 116 31.5t42 88.5q0 44 -24 70t-59.5 40t-96.5 30q-75 20 -120.5 38.5t-77 56t-31.5 99.5q0 88 62.5 141t171.5 53q89 0 144 -34t79 -84.5t25 -103.5h-88q-4 72 -46.5 108t-116.5 36q-66 0 -104 -27.5t-38 -76.5q0 -37 21.5 -59.5t53 -34.5
t91.5 -28q81 -22 128 -41.5t81 -61t34 -113.5q0 -94 -60.5 -148z" />
    <glyph glyph-name="scedilla" unicode="&#x15f;" horiz-adv-x="500" 
d="M401.5 27.5q-48.5 -37.5 -131.5 -40.5l-21 -39q12 4 22 4q26 0 48 -14t22 -39q0 -31 -31 -48t-69 -17q-22 0 -40.5 7t-28.5 15l12 27q9 -7 22.5 -12.5t27.5 -5.5q17 0 29.5 7.5t12.5 22.5q0 12 -9 20.5t-27 8.5q-5 0 -17 -2l-16 22l20 44q-92 7 -132 55t-41 117h85
q0 -53 30.5 -81t90.5 -28q47 0 76.5 18t29.5 58q0 28 -15.5 44t-39 24t-67.5 17q-14 2 -21 4q-78 17 -118 45.5t-40 91.5q0 67 48 103.5t133 36.5q99 0 143 -45t48 -107h-86q-3 44 -29 66t-78 22q-46 0 -70.5 -17t-24.5 -50q0 -24 13 -37.5t34 -19.5t70 -17q59 -13 97 -28.5
t62.5 -45.5t24.5 -79q0 -70 -48.5 -107.5z" />
    <glyph glyph-name="Scaron" unicode="&#x160;" horiz-adv-x="627" 
d="M115 59.5q-62 72.5 -62 174.5h89q-1 -83 48 -126t134 -43q74 0 116 31.5t42 88.5q0 44 -24 70t-59.5 40t-96.5 30q-75 20 -120.5 38.5t-77 56t-31.5 99.5q0 88 62.5 141t171.5 53q89 0 144 -34t79 -84.5t25 -103.5h-88q-4 72 -46.5 108t-116.5 36q-66 0 -104 -27.5
t-38 -76.5q0 -37 21.5 -59.5t53 -34.5t91.5 -28q81 -22 128 -41.5t81 -61t34 -113.5q0 -98 -65 -152t-185 -54q-144 0 -206 72.5zM466 910l-105 -145h-99l-105 145h83l72 -102l71 102h83z" />
    <glyph glyph-name="scaron" unicode="&#x161;" horiz-adv-x="500" 
d="M322 407q-26 22 -78 22q-46 0 -70.5 -17t-24.5 -50q0 -24 13 -37.5t34 -19.5t70 -17q59 -13 97 -28.5t62.5 -45.5t24.5 -79q0 -73 -52 -110.5t-142 -37.5q-108 0 -154.5 49t-47.5 124h85q0 -53 30.5 -81t90.5 -28q47 0 76.5 18t29.5 58q0 28 -15.5 44t-39 24t-67.5 17
q-14 2 -21 4q-78 17 -118 45.5t-40 91.5q0 67 48 103.5t133 36.5q99 0 143 -45t48 -107h-86q-3 44 -29 66zM404 700l-105 -145h-99l-105 145h83l72 -102l71 102h83z" />
    <glyph glyph-name="uni0162" unicode="&#x162;" horiz-adv-x="633" 
d="M610 620h-249v-620h-89v620h-249v80h587v-80zM338 -48q26 0 48 -14t22 -39q0 -31 -31 -48t-69 -17q-22 0 -40.5 7t-28.5 15l12 27q9 -7 22.5 -12.5t27.5 -5.5q17 0 29.5 7.5t12.5 22.5q0 12 -9 20.5t-27 8.5q-5 0 -17 -2l-16 22l26 56h44l-28 -52q12 4 22 4z" />
    <glyph glyph-name="uni0163" unicode="&#x163;" horiz-adv-x="335" 
d="M182 414v-280q0 -42 10.5 -56.5t46.5 -14.5q24 0 55 7v-67q-39 -9 -80 -9h-2l-25 -46q12 4 22 4q26 0 48 -14t22 -39q0 -31 -31 -48t-69 -17q-22 0 -40.5 7t-28.5 15l12 27q9 -7 22.5 -12.5t27.5 -5.5q17 0 29.5 7.5t12.5 22.5q0 12 -9 20.5t-27 8.5q-5 0 -17 -2l-16 22
l25 54q-40 9 -56.5 39.5t-16.5 87.5v289h-74v66h74v117l85 25v-142h115v-66h-115z" />
    <glyph glyph-name="Tcaron" unicode="&#x164;" horiz-adv-x="633" 
d="M610 620h-249v-620h-89v620h-249v80h587v-80zM471 910l-105 -145h-99l-105 145h83l72 -102l71 102h83z" />
    <glyph glyph-name="tcaron" unicode="&#x165;" horiz-adv-x="335" 
d="M182 414v-280q0 -42 10.5 -56.5t46.5 -14.5q24 0 55 7v-67q-39 -9 -80 -9q-65 0 -91 30.5t-26 100.5v289h-74v66h74v117l85 25v-142h115v-66h-115zM329 700l-52 -175h-55l27 175h80z" />
    <glyph glyph-name="Tbar" unicode="&#x166;" horiz-adv-x="633" 
d="M361 620v-223h140v-74h-140v-323h-89v323h-140v74h140v223h-249v80h587v-80h-249z" />
    <glyph glyph-name="tbar" unicode="&#x167;" horiz-adv-x="335" 
d="M182 414v-120h111v-57h-111v-103q0 -42 10.5 -56.5t46.5 -14.5q24 0 55 7v-67q-39 -9 -80 -9q-65 0 -91 30.5t-26 100.5v112h-69v57h69v120h-74v66h74v117l85 25v-142h115v-66h-115z" />
    <glyph glyph-name="Umacron" unicode="&#x16a;" horiz-adv-x="724" 
d="M164.5 54.5q-72.5 67.5 -72.5 196.5v449h89v-449q0 -90 48 -136.5t133 -46.5t133 46.5t48 136.5v449h89v-449q0 -129 -72.5 -196.5t-197.5 -67.5t-197.5 67.5zM508 838v-62h-277v62h277z" />
    <glyph glyph-name="umacron" unicode="&#x16b;" 
d="M171 480v-308q0 -59 23.5 -87.5t75.5 -28.5q63 0 96.5 42t33.5 124v258h85v-480h-86l6 82q-22 -46 -64 -70.5t-97 -24.5q-77 0 -117.5 44.5t-40.5 120.5v328h85zM426 628v-62h-277v62h277z" />
    <glyph glyph-name="Uring" unicode="&#x16e;" horiz-adv-x="724" 
d="M164.5 54.5q-72.5 67.5 -72.5 196.5v449h89v-449q0 -90 48 -136.5t133 -46.5t133 46.5t48 136.5v449h89v-449q0 -129 -72.5 -196.5t-197.5 -67.5t-197.5 67.5zM302 759q-28 28 -28 68t28 68t68 28t68 -28t28 -68t-28 -68t-68 -28t-68 28zM406 791q15 15 15 36t-15 36
t-36 15t-36 -15t-15 -36t15 -36t36 -15t36 15z" />
    <glyph glyph-name="uring" unicode="&#x16f;" 
d="M171 480v-308q0 -59 23.5 -87.5t75.5 -28.5q63 0 96.5 42t33.5 124v258h85v-480h-86l6 82q-22 -46 -64 -70.5t-97 -24.5q-77 0 -117.5 44.5t-40.5 120.5v328h85zM220 549q-28 28 -28 68t28 68t68 28t68 -28t28 -68t-28 -68t-68 -28t-68 28zM324 581q15 15 15 36t-15 36
t-36 15t-36 -15t-15 -36t15 -36t36 -15t36 15z" />
    <glyph glyph-name="Uhungarumlaut" unicode="&#x170;" horiz-adv-x="724" 
d="M164.5 54.5q-72.5 67.5 -72.5 196.5v449h89v-449q0 -90 48 -136.5t133 -46.5t133 46.5t48 136.5v449h89v-449q0 -129 -72.5 -196.5t-197.5 -67.5t-197.5 67.5zM449 909l-148 -145h-77l107 145h118zM618 909l-148 -145h-77l107 145h118z" />
    <glyph glyph-name="uhungarumlaut" unicode="&#x171;" 
d="M171 480v-308q0 -59 23.5 -87.5t75.5 -28.5q63 0 96.5 42t33.5 124v258h85v-480h-86l6 82q-22 -46 -64 -70.5t-97 -24.5q-77 0 -117.5 44.5t-40.5 120.5v328h85zM367 699l-148 -145h-77l107 145h118zM536 699l-148 -145h-77l107 145h118z" />
    <glyph glyph-name="Uogonek" unicode="&#x172;" horiz-adv-x="724" 
d="M632 700v-449q0 -82 -26.5 -133.5t-76.5 -87.5q-67 -48 -94.5 -75.5t-27.5 -60.5q0 -22 13 -32.5t32 -10.5q13 0 26.5 4t19.5 8v-60q-8 -7 -25.5 -11.5t-37.5 -4.5q-42 0 -72 21t-30 67q0 62 67 114q-24 -2 -41 -2q-122 0 -194.5 67.5t-72.5 196.5v449h89v-449
q0 -90 48 -136.5t133 -46.5t133 46.5t48 136.5v449h89z" />
    <glyph glyph-name="uogonek" unicode="&#x173;" 
d="M412 -53q-22 -23 -22 -52q0 -24 12.5 -34t32.5 -10q13 0 26.5 4t19.5 8v-60q-8 -7 -25.5 -11.5t-37.5 -4.5q-42 0 -72 21t-30 67q0 38 22 68t61 57l6 82q-22 -46 -64 -70.5t-97 -24.5q-77 0 -117.5 44.5t-40.5 120.5v328h85v-308q0 -59 23.5 -87.5t75.5 -28.5
q63 0 96.5 42t33.5 124v258h85v-480q-51 -30 -73 -53z" />
    <glyph glyph-name="Wcircumflex" unicode="&#x174;" horiz-adv-x="926" 
d="M903 700l-160 -700h-140l-70 314q-16 74 -25 112q-30 134 -44 202h-2q-40 -202 -66 -314l-73 -314h-140l-160 700h89l147 -637l138 637h131l141 -638l145 638h89zM534 765l-71 102l-72 -102h-83l105 145h99l105 -145h-83z" />
    <glyph glyph-name="wcircumflex" unicode="&#x175;" horiz-adv-x="764" 
d="M744 480l-137 -480h-122l-52 206q-18 72 -45 193l-5 22h-2l-5 -22q-27 -121 -45 -193l-52 -206h-122l-137 480h86l111 -422l108 422h114l108 -422l111 422h86zM453 555l-71 102l-72 -102h-83l105 145h99l105 -145h-83z" />
    <glyph glyph-name="Ycircumflex" unicode="&#x176;" horiz-adv-x="625" 
d="M607 700l-250 -446v-254h-89v254l-250 446h100l195 -358l194 358h100zM384 765l-71 102l-72 -102h-83l105 145h99l105 -145h-83z" />
    <glyph glyph-name="ycircumflex" unicode="&#x177;" horiz-adv-x="494" 
d="M481 480l-282 -680h-93l99 201l-192 479h92l142 -367l142 367h92zM318 555l-71 102l-72 -102h-83l105 145h99l105 -145h-83z" />
    <glyph glyph-name="Ydieresis" unicode="&#x178;" horiz-adv-x="625" 
d="M607 700l-250 -446v-254h-89v254l-250 446h100l195 -358l194 358h100zM262 856v-91h-90v91h90zM454 856v-91h-90v91h90z" />
    <glyph glyph-name="Zacute" unicode="&#x179;" horiz-adv-x="609" 
d="M577 80v-80h-545v94l429 526h-410v80h511v-94l-424 -526h439zM449 910l-125 -145h-73l86 145h112z" />
    <glyph glyph-name="zacute" unicode="&#x17a;" horiz-adv-x="466" 
d="M416 401l-283 -335h294v-66h-388v74l287 340h-278v66h368v-79zM377 700l-125 -145h-73l86 145h112z" />
    <glyph glyph-name="Zdotaccent" unicode="&#x17b;" horiz-adv-x="609" 
d="M577 80v-80h-545v94l429 526h-410v80h511v-94l-424 -526h439zM350 856v-91h-90v91h90z" />
    <glyph glyph-name="zdotaccent" unicode="&#x17c;" horiz-adv-x="466" 
d="M416 401l-283 -335h294v-66h-388v74l287 340h-278v66h368v-79zM278 646v-91h-90v91h90z" />
    <glyph glyph-name="Zcaron" unicode="&#x17d;" horiz-adv-x="609" 
d="M577 80v-80h-545v94l429 526h-410v80h511v-94l-424 -526h439zM459 910l-105 -145h-99l-105 145h83l72 -102l71 102h83z" />
    <glyph glyph-name="zcaron" unicode="&#x17e;" horiz-adv-x="466" 
d="M416 401l-283 -335h294v-66h-388v74l287 340h-278v66h368v-79zM387 700l-105 -145h-99l-105 145h83l72 -102l71 102h83z" />
    <glyph glyph-name="Scommaaccent" unicode="&#x218;" horiz-adv-x="627" 
d="M115 59.5q-62 72.5 -62 174.5h89q-1 -83 48 -126t134 -43q74 0 116 31.5t42 88.5q0 44 -24 70t-59.5 40t-96.5 30q-75 20 -120.5 38.5t-77 56t-31.5 99.5q0 88 62.5 141t171.5 53q89 0 144 -34t79 -84.5t25 -103.5h-88q-4 72 -46.5 108t-116.5 36q-66 0 -104 -27.5
t-38 -76.5q0 -37 21.5 -59.5t53 -34.5t91.5 -28q81 -22 128 -41.5t81 -61t34 -113.5q0 -98 -65 -152t-185 -54q-144 0 -206 72.5zM373 -50v-100l-51 -101h-60l71 101h-49v100h89z" />
    <glyph glyph-name="scommaaccent" unicode="&#x219;" horiz-adv-x="500" 
d="M322 407q-26 22 -78 22q-46 0 -70.5 -17t-24.5 -50q0 -24 13 -37.5t34 -19.5t70 -17q59 -13 97 -28.5t62.5 -45.5t24.5 -79q0 -73 -52 -110.5t-142 -37.5q-108 0 -154.5 49t-47.5 124h85q0 -53 30.5 -81t90.5 -28q47 0 76.5 18t29.5 58q0 28 -15.5 44t-39 24t-67.5 17
q-14 2 -21 4q-78 17 -118 45.5t-40 91.5q0 67 48 103.5t133 36.5q99 0 143 -45t48 -107h-86q-3 44 -29 66zM304 -50v-100l-51 -101h-60l71 101h-49v100h89z" />
    <glyph glyph-name="uni021A" unicode="&#x21a;" horiz-adv-x="633" 
d="M610 620h-249v-620h-89v620h-249v80h587v-80zM371 -50v-100l-51 -101h-60l71 101h-49v100h89z" />
    <glyph glyph-name="uni021B" unicode="&#x21b;" horiz-adv-x="335" 
d="M182 414v-280q0 -42 10.5 -56.5t46.5 -14.5q24 0 55 7v-67q-39 -9 -80 -9q-65 0 -91 30.5t-26 100.5v289h-74v66h74v117l85 25v-142h115v-66h-115zM242 -50v-100l-51 -101h-60l71 101h-49v100h89z" />
    <glyph glyph-name="circumflex" unicode="&#x2c6;" horiz-adv-x="409" 
d="M276 555l-71 102l-72 -102h-83l105 145h99l105 -145h-83z" />
    <glyph glyph-name="caron" unicode="&#x2c7;" horiz-adv-x="409" 
d="M359 700l-105 -145h-99l-105 145h83l72 -102l71 102h83z" />
    <glyph glyph-name="breve" unicode="&#x2d8;" horiz-adv-x="407" 
d="M309 593.5q-44 -38.5 -105 -38.5t-105.5 38.5t-48.5 106.5h62q4 -43 29.5 -63t62.5 -20q36 0 61.5 20t29.5 63h62q-4 -68 -48 -106.5z" />
    <glyph glyph-name="dotaccent" unicode="&#x2d9;" horiz-adv-x="190" 
d="M140 646v-91h-90v91h90z" />
    <glyph glyph-name="ring" unicode="&#x2da;" horiz-adv-x="292" 
d="M78 549q-28 28 -28 68t28 68t68 28t68 -28t28 -68t-28 -68t-68 -28t-68 28zM182 581q15 15 15 36t-15 36t-36 15t-36 -15t-15 -36t15 -36t36 -15t36 15z" />
    <glyph glyph-name="ogonek" unicode="&#x2db;" horiz-adv-x="269" 
d="M212 0q-51 -30 -73 -53t-22 -52q0 -24 12.5 -34t32.5 -10q13 0 26.5 4t19.5 8v-60q-8 -7 -25.5 -11.5t-37.5 -4.5q-42 0 -72 21t-30 67q0 38 22 68t61 57h86z" />
    <glyph glyph-name="tilde" unicode="&#x2dc;" horiz-adv-x="410" 
d="M370 658q-21 -104 -102 -104q-19 0 -36.5 6t-42.5 17q-20 10 -34 15t-28 5q-16 0 -30.5 -11.5t-20.5 -31.5h-36q21 104 102 104q19 0 36.5 -6t42.5 -17q38 -20 61 -20q17 0 31.5 11.5t20.5 31.5h36z" />
    <glyph glyph-name="hungarumlaut" unicode="&#x2dd;" horiz-adv-x="494" 
d="M275 699l-148 -145h-77l107 145h118zM444 699l-148 -145h-77l107 145h118z" />
    <glyph glyph-name="gravecomb" unicode="&#x300;" horiz-adv-x="0" 
d="M-50 555h-73l-125 145h112z" />
    <glyph glyph-name="acutecomb" unicode="&#x301;" horiz-adv-x="0" 
d="M-50 700l-125 -145h-73l86 145h112z" />
    <glyph glyph-name="uni0302" unicode="&#x302;" horiz-adv-x="0" 
d="M-133 555l-71 102l-72 -102h-83l105 145h99l105 -145h-83z" />
    <glyph glyph-name="tildecomb" unicode="&#x303;" horiz-adv-x="0" 
d="M-40 658q-21 -104 -102 -104q-19 0 -36.5 6t-42.5 17q-20 10 -34 15t-28 5q-16 0 -30.5 -11.5t-20.5 -31.5h-36q21 104 102 104q19 0 36.5 -6t42.5 -17q38 -20 61 -20q17 0 31.5 11.5t20.5 31.5h36z" />
    <glyph glyph-name="uni0304" unicode="&#x304;" horiz-adv-x="0" 
d="M-50 628v-62h-277v62h277z" />
    <glyph glyph-name="uni0306" unicode="&#x306;" horiz-adv-x="0" 
d="M-100 593.5q-44 -38.5 -105 -38.5t-105.5 38.5t-48.5 106.5h62q4 -43 29.5 -63t62.5 -20q36 0 61.5 20t29.5 63h62q-4 -68 -48 -106.5z" />
    <glyph glyph-name="uni0307" unicode="&#x307;" horiz-adv-x="0" 
d="M-50 646v-91h-90v91h90z" />
    <glyph glyph-name="uni0308" unicode="&#x308;" horiz-adv-x="0" 
d="M-242 646v-91h-90v91h90zM-50 646v-91h-90v91h90z" />
    <glyph glyph-name="uni030A" unicode="&#x30a;" horiz-adv-x="0" 
d="M-214 549q-28 28 -28 68t28 68t68 28t68 -28t28 -68t-28 -68t-68 -28t-68 28zM-110 581q15 15 15 36t-15 36t-36 15t-36 -15t-15 -36t15 -36t36 -15t36 15z" />
    <glyph glyph-name="uni030B" unicode="&#x30b;" horiz-adv-x="0" 
d="M-219 699l-148 -145h-77l107 145h118zM-50 699l-148 -145h-77l107 145h118z" />
    <glyph glyph-name="uni030C" unicode="&#x30c;" horiz-adv-x="0" 
d="M-50 700l-105 -145h-99l-105 145h83l72 -102l71 102h83z" />
    <glyph glyph-name="uni0312" unicode="&#x312;" horiz-adv-x="0" 
d="M-159 555v100l51 101h60l-71 -101h49v-100h-89z" />
    <glyph glyph-name="uni0326" unicode="&#x326;" horiz-adv-x="0" 
d="M-50 -50v-100l-51 -101h-60l71 101h-49v100h89z" />
    <glyph glyph-name="uni0327" unicode="&#x327;" horiz-adv-x="0" 
d="M-89 -48q26 0 48 -14t22 -39q0 -31 -31 -48t-69 -17q-22 0 -40.5 7t-28.5 15l12 27q9 -7 22.5 -12.5t27.5 -5.5q17 0 29.5 7.5t12.5 22.5q0 12 -9 20.5t-27 8.5q-5 0 -17 -2l-16 22l26 56h44l-28 -52q12 4 22 4z" />
    <glyph glyph-name="uni0328" unicode="&#x328;" horiz-adv-x="0" 
d="M-50 0q-51 -30 -73 -53t-22 -52q0 -24 12.5 -34t32.5 -10q13 0 26.5 4t19.5 8v-60q-8 -7 -25.5 -11.5t-37.5 -4.5q-42 0 -72 21t-30 67q0 38 22 68t61 57h86z" />
    <glyph glyph-name="uni0337" unicode="&#x337;" horiz-adv-x="0" 
d="M-45 479v-83l-262 -140v83z" />
    <glyph glyph-name="Wgrave" unicode="&#x1e80;" horiz-adv-x="926" 
d="M903 700l-160 -700h-140l-70 314q-16 74 -25 112q-30 134 -44 202h-2q-40 -202 -66 -314l-73 -314h-140l-160 700h89l147 -637l138 637h131l141 -638l145 638h89zM522 765h-73l-125 145h112z" />
    <glyph glyph-name="wgrave" unicode="&#x1e81;" horiz-adv-x="764" 
d="M744 480l-137 -480h-122l-52 206q-18 72 -45 193l-5 22h-2l-5 -22q-27 -121 -45 -193l-52 -206h-122l-137 480h86l111 -422l108 422h114l108 -422l111 422h86zM441 555h-73l-125 145h112z" />
    <glyph glyph-name="Wacute" unicode="&#x1e82;" horiz-adv-x="926" 
d="M903 700l-160 -700h-140l-70 314q-16 74 -25 112q-30 134 -44 202h-2q-40 -202 -66 -314l-73 -314h-140l-160 700h89l147 -637l138 637h131l141 -638l145 638h89zM607 910l-125 -145h-73l86 145h112z" />
    <glyph glyph-name="wacute" unicode="&#x1e83;" horiz-adv-x="764" 
d="M744 480l-137 -480h-122l-52 206q-18 72 -45 193l-5 22h-2l-5 -22q-27 -121 -45 -193l-52 -206h-122l-137 480h86l111 -422l108 422h114l108 -422l111 422h86zM526 700l-125 -145h-73l86 145h112z" />
    <glyph glyph-name="Wdieresis" unicode="&#x1e84;" horiz-adv-x="926" 
d="M903 700l-160 -700h-140l-70 314q-16 74 -25 112q-30 134 -44 202h-2q-40 -202 -66 -314l-73 -314h-140l-160 700h89l147 -637l138 637h131l141 -638l145 638h89zM412 856v-91h-90v91h90zM604 856v-91h-90v91h90z" />
    <glyph glyph-name="wdieresis" unicode="&#x1e85;" horiz-adv-x="764" 
d="M744 480l-137 -480h-122l-52 206q-18 72 -45 193l-5 22h-2l-5 -22q-27 -121 -45 -193l-52 -206h-122l-137 480h86l111 -422l108 422h114l108 -422l111 422h86zM331 646v-91h-90v91h90zM523 646v-91h-90v91h90z" />
    <glyph glyph-name="Ygrave" unicode="&#x1ef2;" horiz-adv-x="625" 
d="M607 700l-250 -446v-254h-89v254l-250 446h100l195 -358l194 358h100zM372 765h-73l-125 145h112z" />
    <glyph glyph-name="ygrave" unicode="&#x1ef3;" horiz-adv-x="494" 
d="M481 480l-282 -680h-93l99 201l-192 479h92l142 -367l142 367h92zM306 555h-73l-125 145h112z" />
    <glyph glyph-name="endash" unicode="&#x2013;" horiz-adv-x="552" 
d="M512 234v75h-472v-75h472z" />
    <glyph glyph-name="emdash" unicode="&#x2014;" horiz-adv-x="862" 
d="M822 234v75h-782v-75h782z" />
    <glyph glyph-name="quoteleft" unicode="&#x2018;" horiz-adv-x="273" 
d="M125 579h54v-110h-99v110l51 121h62z" />
    <glyph glyph-name="quoteright" unicode="&#x2019;" horiz-adv-x="202" 
d="M161 700v-110l-51 -121h-62l68 121h-54v110h99z" />
    <glyph glyph-name="quotesinglbase" unicode="&#x201a;" horiz-adv-x="233" 
d="M163 110v-110l-51 -121h-62l68 121h-54v110h99z" />
    <glyph glyph-name="quotedblleft" unicode="&#x201c;" horiz-adv-x="451" 
d="M190 700l-68 -121h50v-104h-92v104l51 121h59zM303 579h50v-104h-92v104l51 121h59z" />
    <glyph glyph-name="quotedblright" unicode="&#x201d;" horiz-adv-x="451" 
d="M191 694v-104l-51 -121h-59l68 121h-50v104h92zM372 694v-104l-51 -121h-59l68 121h-50v104h92z" />
    <glyph glyph-name="quotedblbase" unicode="&#x201e;" horiz-adv-x="421" 
d="M171 104v-104l-51 -121h-59l68 121h-50v104h92zM352 104v-104l-51 -121h-59l68 121h-50v104h92z" />
    <glyph glyph-name="dagger" unicode="&#x2020;" horiz-adv-x="488" 
d="M443 421h-155v-535h-84v535h-159v72h159v207h84v-207h155v-72z" />
    <glyph glyph-name="daggerdbl" unicode="&#x2021;" horiz-adv-x="488" 
d="M288 421v-234h155v-72h-155v-229h-88v229h-155v72h155v234h-155v72h155v207h88v-207h155v-72h-155z" />
    <glyph glyph-name="bullet" unicode="&#x2022;" horiz-adv-x="396" 
d="M126 226q-33 19 -52 52t-19 72t19 72t52 52t72 19t72 -19t52 -52t19 -72t-19 -72t-52 -52t-72 -19t-72 19z" />
    <glyph glyph-name="ellipsis" unicode="&#x2026;" horiz-adv-x="755" 
d="M60 110h99v-110h-99v110zM328 110h99v-110h-99v110zM596 110h99v-110h-99v110z" />
    <glyph glyph-name="perthousand" unicode="&#x2030;" horiz-adv-x="1024" 
d="M65 433q40 -38 104 -38q63 0 103 38t40 121t-40 121t-103 38q-64 0 -104 -38t-40 -121t40 -121zM529 700h75l-445 -700h-75zM117.5 634q15.5 28 51.5 28q35 0 50 -28t15 -80t-15 -80t-50 -28q-36 0 -51.5 28t-15.5 80t15.5 80zM415 25q40 -38 104 -38q63 0 103 38t40 121
t-40 121t-103 38q-64 0 -104 -38t-40 -121t40 -121zM752 25q40 -38 104 -38q63 0 103 38t40 121t-40 121t-103 38q-64 0 -104 -38t-40 -121t40 -121zM467.5 226q15.5 28 51.5 28q35 0 50 -28t15 -80t-15 -80t-50 -28q-36 0 -51.5 28t-15.5 80t15.5 80zM804.5 226
q15.5 28 51.5 28q35 0 50 -28t15 -80t-15 -80t-50 -28q-36 0 -51.5 28t-15.5 80t15.5 80z" />
    <glyph glyph-name="guilsinglleft" unicode="&#x2039;" horiz-adv-x="288" 
d="M147 241l91 -176h-61l-127 176l127 176h61z" />
    <glyph glyph-name="guilsinglright" unicode="&#x203a;" horiz-adv-x="288" 
d="M111 417l127 -176l-127 -176h-61l91 176l-91 176h61z" />
    <glyph glyph-name="fraction" unicode="&#x2044;" horiz-adv-x="144" 
d="M231 700h74l-391 -700h-74z" />
    <glyph glyph-name="Euro" unicode="&#x20ac;" horiz-adv-x="666" 
d="M607 213q-8 -110 -73 -168t-164 -58q-110 0 -180.5 71.5t-90.5 194.5h-78l20 60h51q-1 12 -1 36t1 36h-61l20 60h47q21 124 91 196t178 72q95 0 160 -56t76 -160h-90q-7 64 -46 99.5t-101 35.5q-74 0 -117.5 -50.5t-57.5 -136.5h232l-16 -60h-223q-1 -12 -1 -35
q0 -25 1 -37h204l-16 -60h-181q15 -84 59 -134.5t120 -50.5q63 0 102 36.5t44 108.5h91z" />
    <glyph glyph-name="trademark" unicode="&#x2122;" horiz-adv-x="888" 
d="M40 700h332v-64h-131v-286h-70v286h-131v64zM838 700v-350h-70v291l-96 -291h-71l-100 295v-295h-70v350h115l88 -276l88 276h116z" />
    <glyph glyph-name="estimated" unicode="&#x212e;" horiz-adv-x="860" 
d="M634.5 639q86.5 -49 132.5 -131.5t46 -180.5h-611q-6 0 -9.5 -4t-3.5 -9v-166q0 -17 3 -26.5t12 -17.5q93 -91 227 -91q72 0 135 30t103 79h69q-40 -55 -118 -94.5t-189 -39.5q-115 0 -202 44.5t-134.5 123.5t-47.5 180q0 100 46.5 180t133.5 126t204 46t203.5 -49z
M204 569q-9 -9 -12 -17.5t-3 -23.5v-167q0 -5 3.5 -8.5t9.5 -3.5h455q6 0 9.5 3.5t3.5 8.5v167q0 15 -3 23.5t-12 17.5q-94 93 -224 93q-134 0 -227 -93z" />
    <glyph glyph-name="oneeighth" unicode="&#x215b;" horiz-adv-x="937" 
d="M179 609q-17 -15 -45 -27.5t-54 -20.5v63q73 27 125 76h46v-420h-72v329zM592 700h74l-391 -700h-74zM595 23q-45 36 -45 93q0 42 24 69.5t64 37.5v2q-36 9 -55 33t-19 57q0 50 41.5 83t110.5 33t110.5 -33t41.5 -83q0 -33 -19 -57t-55 -33v-2q38 -10 63 -37t25 -70
q0 -56 -44.5 -92.5t-121.5 -36.5q-76 0 -121 36zM775 264q22 18 22 47t-21.5 46.5t-59.5 17.5t-60 -17.5t-22 -46.5t22.5 -47t59.5 -18t59 18zM784 66q25 20 25 49q0 30 -25 52t-68 22t-68 -22t-25 -52q0 -29 25 -49t68 -20t68 20z" />
    <glyph glyph-name="threeeighths" unicode="&#x215c;" horiz-adv-x="1008" 
d="M87 308q-43 39 -43 109h71q-1 -42 23.5 -66t70.5 -24q43 0 67.5 20t24.5 56t-23 55t-68 19q-20 0 -42 -2v59q14 -2 42 -2q36 0 56 16t20 45t-21 45.5t-57 16.5q-42 0 -65 -23t-23 -65h-71q0 69 41.5 107.5t119.5 38.5q69 0 109.5 -29.5t40.5 -81.5q0 -34 -18 -58t-53 -34
v-1q42 -10 64 -38.5t22 -70.5q0 -60 -44.5 -95.5t-121.5 -35.5q-79 0 -122 39zM663 700h74l-391 -700h-74zM666 23q-45 36 -45 93q0 42 24 69.5t64 37.5v2q-36 9 -55 33t-19 57q0 50 41.5 83t110.5 33t110.5 -33t41.5 -83q0 -33 -19 -57t-55 -33v-2q38 -10 63 -37t25 -70
q0 -56 -44.5 -92.5t-121.5 -36.5q-76 0 -121 36zM846 264q22 18 22 47t-21.5 46.5t-59.5 17.5t-60 -17.5t-22 -46.5t22.5 -47t59.5 -18t59 18zM855 66q25 20 25 49q0 30 -25 52t-68 22t-68 -22t-25 -52q0 -29 25 -49t68 -20t68 20z" />
    <glyph glyph-name="fiveeighths" unicode="&#x215d;" horiz-adv-x="1007" 
d="M125.5 285.5q-37.5 18.5 -57 48.5t-19.5 65q0 7 2 19h71q-1 -5 -1 -13q0 -37 28.5 -58t67.5 -21q46 0 71 29.5t25 69.5q0 36 -21.5 63.5t-70.5 27.5q-27 0 -49 -9.5t-47 -29.5l-69 40l51 183h250v-57h-204l-32 -114h1q48 48 117 48q68 0 108 -41t40 -107
q0 -67 -42.5 -114.5t-129.5 -47.5q-52 0 -89.5 18.5zM662 700h74l-391 -700h-74zM665 23q-45 36 -45 93q0 42 24 69.5t64 37.5v2q-36 9 -55 33t-19 57q0 50 41.5 83t110.5 33t110.5 -33t41.5 -83q0 -33 -19 -57t-55 -33v-2q38 -10 63 -37t25 -70q0 -56 -44.5 -92.5
t-121.5 -36.5q-76 0 -121 36zM845 264q22 18 22 47t-21.5 46.5t-59.5 17.5t-60 -17.5t-22 -46.5t22.5 -47t59.5 -18t59 18zM854 66q25 20 25 49q0 30 -25 52t-68 22t-68 -22t-25 -52q0 -29 25 -49t68 -20t68 20z" />
    <glyph glyph-name="seveneighths" unicode="&#x215e;" horiz-adv-x="976" 
d="M200.5 464q40.5 86 113.5 176h-254v60h322v-62q-71 -91 -108 -176.5t-48 -181.5h-83q17 98 57.5 184zM631 700h74l-391 -700h-74zM634 23q-45 36 -45 93q0 42 24 69.5t64 37.5v2q-36 9 -55 33t-19 57q0 50 41.5 83t110.5 33t110.5 -33t41.5 -83q0 -33 -19 -57t-55 -33v-2
q38 -10 63 -37t25 -70q0 -56 -44.5 -92.5t-121.5 -36.5q-76 0 -121 36zM814 264q22 18 22 47t-21.5 46.5t-59.5 17.5t-60 -17.5t-22 -46.5t22.5 -47t59.5 -18t59 18zM823 66q25 20 25 49q0 30 -25 52t-68 22t-68 -22t-25 -52q0 -29 25 -49t68 -20t68 20z" />
    <glyph glyph-name="partialdiff" unicode="&#x2202;" horiz-adv-x="639" 
d="M411.5 436q45.5 -25 72.5 -73q4 127 -31.5 199.5t-117.5 72.5q-51 0 -83.5 -29t-41.5 -81l-89 4q8 94 69.5 139t147.5 45q231 0 231 -326q0 -178 -68.5 -289t-209.5 -111q-103 0 -161 60.5t-58 163.5q0 75 31 132t84.5 87.5t119.5 30.5q59 0 104.5 -25zM375 89
q38 23 60.5 63.5t22.5 91.5q0 66 -37 102.5t-98 36.5q-71 0 -116.5 -48.5t-45.5 -124.5q0 -64 33.5 -104t95.5 -40q47 0 85 23z" />
    <glyph glyph-name="product" unicode="&#x220f;" horiz-adv-x="669" 
d="M569 700v-830h-89v749h-291v-749h-89v830h469z" />
    <glyph glyph-name="summation" unicode="&#x2211;" horiz-adv-x="540" 
d="M495 619h-348l217 -334l-217 -334h348v-81h-450v81l217 334l-217 334v81h450v-81z" />
    <glyph glyph-name="minus" unicode="&#x2212;" horiz-adv-x="608" 
d="M538 393v-76h-468v76h468z" />
    <glyph glyph-name="radical" unicode="&#x221a;" horiz-adv-x="660" 
d="M630 700l-261 -830h-117l-116 373h-101v72h162l114 -367l236 752h83z" />
    <glyph glyph-name="infinity" unicode="&#x221e;" horiz-adv-x="622" 
d="M564.5 397.5q37.5 -41.5 37.5 -104.5t-37.5 -104.5t-104.5 -41.5q-79 0 -149 96q-72 -96 -149 -96q-67 0 -104.5 41.5t-37.5 104.5t37.5 104.5t104.5 41.5q77 0 149 -96q70 96 149 96q67 0 104.5 -41.5zM217 230q28 20 59 63q-31 43 -59 63t-55 20q-39 0 -58 -23t-19 -60
t19 -60t58 -23q27 0 55 20zM518 233q19 23 19 60t-19 60t-58 23q-27 0 -55 -20t-59 -63q31 -43 59 -63t55 -20q39 0 58 23z" />
    <glyph glyph-name="integral" unicode="&#x222b;" horiz-adv-x="315" 
d="M300 702v-70q-20 5 -41 5q-59 0 -59 -62v-658q0 -54 -31.5 -89.5t-90.5 -35.5q-35 0 -63 7v70q20 -5 41 -5q59 0 59 62v658q0 54 31.5 89.5t90.5 35.5q35 0 63 -7z" />
    <glyph glyph-name="approxequal" unicode="&#x2248;" horiz-adv-x="684" 
d="M596 507q-33 -142 -160 -142q-29 0 -54.5 8t-62.5 23q-36 15 -56.5 21.5t-42.5 6.5q-23 0 -45.5 -16t-29.5 -43h-57q33 142 156 142q30 0 55.5 -8t65.5 -24q33 -14 53 -20.5t41 -6.5q26 0 48 15.5t32 43.5h57zM596 332q-18 -76 -60 -109t-100 -33q-29 0 -54.5 8t-62.5 23
q-36 15 -56.5 21.5t-42.5 6.5q-23 0 -45.5 -15.5t-29.5 -43.5h-57q18 77 58 109.5t98 32.5q30 0 57.5 -8t63.5 -24q36 -14 55 -20t39 -6q26 0 48 15t32 43h57z" />
    <glyph glyph-name="notequal" unicode="&#x2260;" horiz-adv-x="608" 
d="M380 414l-68 -115h226v-76h-271l-65 -110h-84l65 110h-113v76h158l68 115h-226v76h271l65 110h84l-65 -110h113v-76h-158z" />
    <glyph glyph-name="lessequal" unicode="&#x2264;" horiz-adv-x="608" 
d="M70 293v107l470 147v-83l-406 -117l406 -118v-83zM72 0v72h468v-72h-468z" />
    <glyph glyph-name="greaterequal" unicode="&#x2265;" horiz-adv-x="608" 
d="M70 229l406 118l-406 117v83l470 -147v-107l-470 -147v83zM70 72h468v-72h-468v72z" />
    <glyph glyph-name="lozenge" unicode="&#x25ca;" horiz-adv-x="585" 
d="M545 350l-195 -350h-115l-195 350l195 350h115zM455 350l-162 292l-163 -292l163 -292z" />
    <glyph glyph-name="i.loclTRK" horiz-adv-x="267" 
d="M176 0h-85v480h85v-480zM179 646v-91h-90v91h90z" />
    <glyph glyph-name="a.sc" horiz-adv-x="562" 
d="M397 120h-231l-44 -120h-85l185 494h119l184 -494h-84zM372 188l-20 53q-43 119 -70 201h-1q-27 -82 -70 -201l-20 -53h181z" />
    <glyph glyph-name="aacute.sc" horiz-adv-x="562" 
d="M397 120h-231l-44 -120h-85l185 494h119l184 -494h-84zM372 188l-20 53q-43 119 -70 201h-1q-27 -82 -70 -201l-20 -53h181zM425 714l-125 -145h-73l86 145h112z" />
    <glyph glyph-name="abreve.sc" horiz-adv-x="562" 
d="M397 120h-231l-44 -120h-85l185 494h119l184 -494h-84zM372 188l-20 53q-43 119 -70 201h-1q-27 -82 -70 -201l-20 -53h181zM386 607.5q-44 -38.5 -105 -38.5t-105.5 38.5t-48.5 106.5h62q4 -43 29.5 -63t62.5 -20q36 0 61.5 20t29.5 63h62q-4 -68 -48 -106.5z" />
    <glyph glyph-name="acircumflex.sc" horiz-adv-x="562" 
d="M397 120h-231l-44 -120h-85l185 494h119l184 -494h-84zM372 188l-20 53q-43 119 -70 201h-1q-27 -82 -70 -201l-20 -53h181zM352 569l-71 102l-72 -102h-83l105 145h99l105 -145h-83z" />
    <glyph glyph-name="adieresis.sc" horiz-adv-x="562" 
d="M397 120h-231l-44 -120h-85l185 494h119l184 -494h-84zM372 188l-20 53q-43 119 -70 201h-1q-27 -82 -70 -201l-20 -53h181zM230 660v-91h-90v91h90zM422 660v-91h-90v91h90z" />
    <glyph glyph-name="agrave.sc" horiz-adv-x="562" 
d="M397 120h-231l-44 -120h-85l185 494h119l184 -494h-84zM372 188l-20 53q-43 119 -70 201h-1q-27 -82 -70 -201l-20 -53h181zM340 569h-73l-125 145h112z" />
    <glyph glyph-name="amacron.sc" horiz-adv-x="562" 
d="M397 120h-231l-44 -120h-85l185 494h119l184 -494h-84zM372 188l-20 53q-43 119 -70 201h-1q-27 -82 -70 -201l-20 -53h181zM419 642v-62h-277v62h277z" />
    <glyph glyph-name="aogonek.sc" horiz-adv-x="562" 
d="M442.5 -139q12.5 -10 32.5 -10q13 0 26.5 4t19.5 8v-60q-8 -7 -25.5 -11.5t-37.5 -4.5q-42 0 -72 21t-30 67q0 38 22.5 68.5t62.5 56.5l-44 120h-231l-44 -120h-85l185 494h119l184 -494q-51 -30 -73 -53t-22 -52q0 -24 12.5 -34zM372 188l-20 53q-43 119 -70 201h-1
q-27 -82 -70 -201l-20 -53h181z" />
    <glyph glyph-name="aring.sc" horiz-adv-x="562" 
d="M397 120h-231l-44 -120h-85l185 494h119l184 -494h-84zM372 188l-20 53q-43 119 -70 201h-1q-27 -82 -70 -201l-20 -53h181zM213 563q-28 28 -28 68t28 68t68 28t68 -28t28 -68t-28 -68t-68 -28t-68 28zM317 595q15 15 15 36t-15 36t-36 15t-36 -15t-15 -36t15 -36
t36 -15t36 15z" />
    <glyph glyph-name="atilde.sc" horiz-adv-x="562" 
d="M397 120h-231l-44 -120h-85l185 494h119l184 -494h-84zM372 188l-20 53q-43 119 -70 201h-1q-27 -82 -70 -201l-20 -53h181zM446 672q-21 -104 -102 -104q-19 0 -36.5 6t-42.5 17q-20 10 -34 15t-28 5q-16 0 -30.5 -11.5t-20.5 -31.5h-36q21 104 102 104q19 0 36.5 -6
t42.5 -17q38 -20 61 -20q17 0 31.5 11.5t20.5 31.5h36z" />
    <glyph glyph-name="ae.sc" horiz-adv-x="798" 
d="M447 424v-139h256v-68h-256v-147h283v-70h-368v123h-175l-63 -123h-87l258 494h435v-70h-283zM362 191v234h-19l-121 -234h140z" />
    <glyph glyph-name="b.sc" horiz-adv-x="572" 
d="M480.5 219.5q32.5 -31.5 32.5 -85.5q0 -66 -48.5 -100t-128.5 -34h-242v494h219q84 0 125 -37.5t41 -89.5q0 -36 -21.5 -64.5t-63.5 -42.5v-2q54 -7 86.5 -38.5zM374 408q-22 18 -64 18h-131v-140h131q42 0 64 18t22 52t-22 52zM401.5 88q24.5 20 24.5 58q0 74 -95 74
h-152v-152h152q46 0 70.5 20z" />
    <glyph glyph-name="c.sc" horiz-adv-x="583" 
d="M126.5 57q-65.5 70 -65.5 189q0 79 29.5 138t84 91t129.5 32q90 0 152.5 -46t73.5 -130h-88q-8 51 -46 77.5t-92 26.5q-79 0 -117 -52.5t-38 -136.5q0 -83 38.5 -135t120.5 -52q55 0 92.5 26t43.5 83h88q-8 -90 -71 -135.5t-154 -45.5q-115 0 -180.5 70z" />
    <glyph glyph-name="cacute.sc" horiz-adv-x="583" 
d="M126.5 57q-65.5 70 -65.5 189q0 79 29.5 138t84 91t129.5 32q90 0 152.5 -46t73.5 -130h-88q-8 51 -46 77.5t-92 26.5q-79 0 -117 -52.5t-38 -136.5q0 -83 38.5 -135t120.5 -52q55 0 92.5 26t43.5 83h88q-8 -90 -71 -135.5t-154 -45.5q-115 0 -180.5 70zM447 714
l-125 -145h-73l86 145h112z" />
    <glyph glyph-name="ccaron.sc" horiz-adv-x="583" 
d="M126.5 57q-65.5 70 -65.5 189q0 79 29.5 138t84 91t129.5 32q90 0 152.5 -46t73.5 -130h-88q-8 51 -46 77.5t-92 26.5q-79 0 -117 -52.5t-38 -136.5q0 -83 38.5 -135t120.5 -52q55 0 92.5 26t43.5 83h88q-8 -90 -71 -135.5t-154 -45.5q-115 0 -180.5 70zM457 714
l-105 -145h-99l-105 145h83l72 -102l71 102h83z" />
    <glyph glyph-name="ccedilla.sc" horiz-adv-x="583" 
d="M467 36.5q-58 -45.5 -144 -49.5l-21 -39q12 4 22 4q26 0 48 -14t22 -39q0 -31 -31 -48t-69 -17q-22 0 -40.5 7t-28.5 15l12 27q9 -7 22.5 -12.5t27.5 -5.5q17 0 29.5 7.5t12.5 22.5q0 12 -9 20.5t-27 8.5q-5 0 -17 -2l-16 22l20 44q-103 8 -161 77t-58 181q0 79 29.5 138
t84 91t129.5 32q90 0 152.5 -46t73.5 -130h-88q-8 51 -46 77.5t-92 26.5q-79 0 -117 -52.5t-38 -136.5q0 -83 38.5 -135t120.5 -52q55 0 92.5 26t43.5 83h88q-7 -86 -65 -131.5z" />
    <glyph glyph-name="cdotaccent.sc" horiz-adv-x="583" 
d="M126.5 57q-65.5 70 -65.5 189q0 79 29.5 138t84 91t129.5 32q90 0 152.5 -46t73.5 -130h-88q-8 51 -46 77.5t-92 26.5q-79 0 -117 -52.5t-38 -136.5q0 -83 38.5 -135t120.5 -52q55 0 92.5 26t43.5 83h88q-8 -90 -71 -135.5t-154 -45.5q-115 0 -180.5 70zM348 660v-91h-90
v91h90z" />
    <glyph glyph-name="d.sc" horiz-adv-x="602" 
d="M475 427q66 -67 66 -180t-66 -180t-191 -67h-190v494h190q125 0 191 -67zM409.5 119q43.5 49 43.5 128t-43.5 128t-128.5 49h-102v-354h102q85 0 128.5 49z" />
    <glyph glyph-name="eth.sc" horiz-adv-x="603" 
d="M476 427q66 -67 66 -180t-66 -180t-191 -67h-190v213h-76v68h76v213h190q125 0 191 -67zM410.5 119q43.5 49 43.5 128t-43.5 128t-128.5 49h-102v-143h111v-68h-111v-143h102q85 0 128.5 49z" />
    <glyph glyph-name="dcaron.sc" horiz-adv-x="602" 
d="M475 427q66 -67 66 -180t-66 -180t-191 -67h-190v494h190q125 0 191 -67zM409.5 119q43.5 49 43.5 128t-43.5 128t-128.5 49h-102v-354h102q85 0 128.5 49zM456 714l-105 -145h-99l-105 145h83l72 -102l71 102h83z" />
    <glyph glyph-name="dcroat.sc" horiz-adv-x="603" 
d="M476 427q66 -67 66 -180t-66 -180t-191 -67h-190v213h-76v68h76v213h190q125 0 191 -67zM410.5 119q43.5 49 43.5 128t-43.5 128t-128.5 49h-102v-143h111v-68h-111v-143h102q85 0 128.5 49z" />
    <glyph glyph-name="e.sc" horiz-adv-x="530" 
d="M179 424v-139h256v-68h-256v-147h283v-70h-368v494h368v-70h-283z" />
    <glyph glyph-name="eacute.sc" horiz-adv-x="530" 
d="M179 424v-139h256v-68h-256v-147h283v-70h-368v494h368v-70h-283zM422 714l-125 -145h-73l86 145h112z" />
    <glyph glyph-name="ecaron.sc" horiz-adv-x="530" 
d="M179 424v-139h256v-68h-256v-147h283v-70h-368v494h368v-70h-283zM432 714l-105 -145h-99l-105 145h83l72 -102l71 102h83z" />
    <glyph glyph-name="ecircumflex.sc" horiz-adv-x="530" 
d="M179 424v-139h256v-68h-256v-147h283v-70h-368v494h368v-70h-283zM349 569l-71 102l-72 -102h-83l105 145h99l105 -145h-83z" />
    <glyph glyph-name="edieresis.sc" horiz-adv-x="530" 
d="M179 424v-139h256v-68h-256v-147h283v-70h-368v494h368v-70h-283zM227 660v-91h-90v91h90zM419 660v-91h-90v91h90z" />
    <glyph glyph-name="edotaccent.sc" horiz-adv-x="530" 
d="M179 424v-139h256v-68h-256v-147h283v-70h-368v494h368v-70h-283zM323 660v-91h-90v91h90z" />
    <glyph glyph-name="egrave.sc" horiz-adv-x="530" 
d="M179 424v-139h256v-68h-256v-147h283v-70h-368v494h368v-70h-283zM337 569h-73l-125 145h112z" />
    <glyph glyph-name="emacron.sc" horiz-adv-x="530" 
d="M179 424v-139h256v-68h-256v-147h283v-70h-368v494h368v-70h-283zM416 642v-62h-277v62h277z" />
    <glyph glyph-name="eogonek.sc" horiz-adv-x="530" 
d="M179 424v-139h256v-68h-256v-147h283v-70h-368v494h368v-70h-283zM462 0q-51 -30 -73 -53t-22 -52q0 -24 12.5 -34t32.5 -10q13 0 26.5 4t19.5 8v-60q-8 -7 -25.5 -11.5t-37.5 -4.5q-42 0 -72 21t-30 67q0 38 22 68t61 57h86z" />
    <glyph glyph-name="f.sc" horiz-adv-x="513" 
d="M179 424v-147h255v-69h-255v-208h-85v494h367v-70h-282z" />
    <glyph glyph-name="g.sc" horiz-adv-x="621" 
d="M176.5 20q-55.5 33 -85.5 92.5t-30 136.5q0 76 29.5 134.5t86.5 91t135 32.5q97 0 160 -48t69 -127h-88q-6 45 -41 74.5t-98 29.5q-84 0 -124.5 -53t-40.5 -136q0 -82 40 -135.5t124 -53.5q67 0 105.5 35t47.5 88h-150v65h224v-246h-70l9 83h-5q-24 -45 -63 -70.5
t-105 -25.5q-74 0 -129.5 33z" />
    <glyph glyph-name="gbreve.sc" horiz-adv-x="621" 
d="M176.5 20q-55.5 33 -85.5 92.5t-30 136.5q0 76 29.5 134.5t86.5 91t135 32.5q97 0 160 -48t69 -127h-88q-6 45 -41 74.5t-98 29.5q-84 0 -124.5 -53t-40.5 -136q0 -82 40 -135.5t124 -53.5q67 0 105.5 35t47.5 88h-150v65h224v-246h-70l9 83h-5q-24 -45 -63 -70.5
t-105 -25.5q-74 0 -129.5 33zM416 607.5q-44 -38.5 -105 -38.5t-105.5 38.5t-48.5 106.5h62q4 -43 29.5 -63t62.5 -20q36 0 61.5 20t29.5 63h62q-4 -68 -48 -106.5z" />
    <glyph glyph-name="gcommaaccent.sc" horiz-adv-x="621" 
d="M176.5 20q-55.5 33 -85.5 92.5t-30 136.5q0 76 29.5 134.5t86.5 91t135 32.5q97 0 160 -48t69 -127h-88q-6 45 -41 74.5t-98 29.5q-84 0 -124.5 -53t-40.5 -136q0 -82 40 -135.5t124 -53.5q67 0 105.5 35t47.5 88h-150v65h224v-246h-70l9 83h-5q-24 -45 -63 -70.5
t-105 -25.5q-74 0 -129.5 33zM365 -50v-100l-51 -101h-60l71 101h-49v100h89z" />
    <glyph glyph-name="gdotaccent.sc" horiz-adv-x="621" 
d="M176.5 20q-55.5 33 -85.5 92.5t-30 136.5q0 76 29.5 134.5t86.5 91t135 32.5q97 0 160 -48t69 -127h-88q-6 45 -41 74.5t-98 29.5q-84 0 -124.5 -53t-40.5 -136q0 -82 40 -135.5t124 -53.5q67 0 105.5 35t47.5 88h-150v65h224v-246h-70l9 83h-5q-24 -45 -63 -70.5
t-105 -25.5q-74 0 -129.5 33zM356 660v-91h-90v91h90z" />
    <glyph glyph-name="h.sc" horiz-adv-x="611" 
d="M517 494v-494h-85v218h-253v-218h-85v494h85v-206h253v206h85z" />
    <glyph glyph-name="hbar.sc" horiz-adv-x="621" 
d="M565 361h-43v-361h-85v218h-253v-218h-85v361h-43v52h43v81h85v-81h253v81h85v-81h43v-52zM437 361h-253v-73h253v73z" />
    <glyph glyph-name="i.sc" horiz-adv-x="273" 
d="M94 494h85v-494h-85v494z" />
    <glyph glyph-name="iacute.sc" horiz-adv-x="273" 
d="M94 494h85v-494h-85v494zM281 714l-125 -145h-73l86 145h112z" />
    <glyph glyph-name="icircumflex.sc" horiz-adv-x="273" 
d="M94 494h85v-494h-85v494zM208 569l-71 102l-72 -102h-83l105 145h99l105 -145h-83z" />
    <glyph glyph-name="idieresis.sc" horiz-adv-x="273" 
d="M94 494h85v-494h-85v494zM86 660v-91h-90v91h90zM278 660v-91h-90v91h90z" />
    <glyph glyph-name="i.sc.loclTRK" horiz-adv-x="273" 
d="M94 494h85v-494h-85v494zM182 660v-91h-90v91h90z" />
    <glyph glyph-name="igrave.sc" horiz-adv-x="273" 
d="M94 494h85v-494h-85v494zM196 569h-73l-125 145h112z" />
    <glyph glyph-name="imacron.sc" horiz-adv-x="273" 
d="M94 494h85v-494h-85v494zM275 642v-62h-277v62h277z" />
    <glyph glyph-name="iogonek.sc" horiz-adv-x="273" 
d="M106 -53q-22 -23 -22 -52q0 -24 12.5 -34t32.5 -10q13 0 26.5 4t19.5 8v-60q-8 -7 -25.5 -11.5t-37.5 -4.5q-42 0 -72 21t-30 67q0 38 22 68.5t62 56.5v494h85v-494q-51 -30 -73 -53z" />
    <glyph glyph-name="j.sc" horiz-adv-x="465" 
d="M78.5 31.5q-40.5 44.5 -40.5 110.5l1 17h85q-3 -43 18.5 -71.5t70.5 -28.5q48 0 67 28.5t19 80.5v326h85v-326q0 -80 -36.5 -130.5t-135.5 -50.5q-93 0 -133.5 44.5z" />
    <glyph glyph-name="k.sc" horiz-adv-x="547" 
d="M434 143q39 -96 73 -143h-93q-12 15 -23 37.5t-20.5 45.5t-13.5 32l-9 24l-50 125l-119 -123v-141h-85v494h85v-248l238 248h104l-162 -167z" />
    <glyph glyph-name="kcommaaccent.sc" horiz-adv-x="547" 
d="M434 143q39 -96 73 -143h-93q-12 15 -23 37.5t-20.5 45.5t-13.5 32l-9 24l-50 125l-119 -123v-141h-85v494h85v-248l238 248h104l-162 -167zM329 -50v-100l-51 -101h-60l71 101h-49v100h89z" />
    <glyph glyph-name="l.sc" horiz-adv-x="483" 
d="M441 70v-70h-347v494h85v-424h262z" />
    <glyph glyph-name="lacute.sc" horiz-adv-x="483" 
d="M441 70v-70h-347v494h85v-424h262zM305 688l-125 -145h-73l86 145h112z" />
    <glyph glyph-name="lcaron.sc" horiz-adv-x="483" 
d="M441 70v-70h-347v494h85v-424h262zM341 494l-52 -175h-55l27 175h80z" />
    <glyph glyph-name="lcommaaccent.sc" horiz-adv-x="483" 
d="M441 70v-70h-347v494h85v-424h262zM296 -50v-100l-51 -101h-60l71 101h-49v100h89z" />
    <glyph glyph-name="lslash.sc" horiz-adv-x="483" 
d="M441 70v-70h-347v186l-61 -33v83l61 33v225h85v-180l116 62v-83l-116 -62v-161h262z" />
    <glyph glyph-name="m.sc" horiz-adv-x="774" 
d="M680 494v-494h-85v220q0 93 5 235h-2q-39 -123 -82 -235l-83 -220h-92l-83 220q-43 112 -82 235h-2q5 -142 5 -235v-220h-85v494h144l84 -231q23 -60 56 -179l9 -31l9 31q33 119 56 179l84 231h144z" />
    <glyph glyph-name="n.sc" horiz-adv-x="631" 
d="M452 285v209h85v-494h-123l-113 197q-84 147 -127 241h-2q7 -154 7 -241v-197h-85v494h122l121 -209q76 -129 120 -226h2q-7 145 -7 226z" />
    <glyph glyph-name="nacute.sc" horiz-adv-x="631" 
d="M452 285v209h85v-494h-123l-113 197q-84 147 -127 241h-2q7 -154 7 -241v-197h-85v494h122l121 -209q76 -129 120 -226h2q-7 145 -7 226zM460 714l-125 -145h-73l86 145h112z" />
    <glyph glyph-name="ncaron.sc" horiz-adv-x="631" 
d="M452 285v209h85v-494h-123l-113 197q-84 147 -127 241h-2q7 -154 7 -241v-197h-85v494h122l121 -209q76 -129 120 -226h2q-7 145 -7 226zM470 714l-105 -145h-99l-105 145h83l72 -102l71 102h83z" />
    <glyph glyph-name="ncommaaccent.sc" horiz-adv-x="631" 
d="M452 285v209h85v-494h-123l-113 197q-84 147 -127 241h-2q7 -154 7 -241v-197h-85v494h122l121 -209q76 -129 120 -226h2q-7 145 -7 226zM370 -50v-100l-51 -101h-60l71 101h-49v100h89z" />
    <glyph glyph-name="eng.sc" horiz-adv-x="629" 
d="M535 494v-577q0 -54 -31 -89.5t-89 -35.5q-34 0 -61 7v70q18 -5 40 -5q26 0 41.5 13.5t15.5 48.5v74l-273 413v-413h-84v494h121l236 -353v353h84z" />
    <glyph glyph-name="ntilde.sc" horiz-adv-x="631" 
d="M452 285v209h85v-494h-123l-113 197q-84 147 -127 241h-2q7 -154 7 -241v-197h-85v494h122l121 -209q76 -129 120 -226h2q-7 145 -7 226zM481 672q-21 -104 -102 -104q-19 0 -36.5 6t-42.5 17q-20 10 -34 15t-28 5q-16 0 -30.5 -11.5t-20.5 -31.5h-36q21 104 102 104
q19 0 36.5 -6t42.5 -17q38 -20 61 -20q17 0 31.5 11.5t20.5 31.5h36z" />
    <glyph glyph-name="o.sc" horiz-adv-x="623" 
d="M178.5 19.5q-56.5 32.5 -87 91.5t-30.5 136t30.5 136t87 91.5t132.5 32.5t133 -32.5t87.5 -91.5t30.5 -136t-30.5 -136t-87.5 -91.5t-133 -32.5t-132.5 32.5zM434 112q40 53 40 135t-40 135t-123 53t-122.5 -53t-39.5 -135t39.5 -135t122.5 -53t123 53z" />
    <glyph glyph-name="oacute.sc" horiz-adv-x="623" 
d="M178.5 19.5q-56.5 32.5 -87 91.5t-30.5 136t30.5 136t87 91.5t132.5 32.5t133 -32.5t87.5 -91.5t30.5 -136t-30.5 -136t-87.5 -91.5t-133 -32.5t-132.5 32.5zM434 112q40 53 40 135t-40 135t-123 53t-122.5 -53t-39.5 -135t39.5 -135t122.5 -53t123 53zM456 714
l-125 -145h-73l86 145h112z" />
    <glyph glyph-name="ocircumflex.sc" horiz-adv-x="623" 
d="M178.5 19.5q-56.5 32.5 -87 91.5t-30.5 136t30.5 136t87 91.5t132.5 32.5t133 -32.5t87.5 -91.5t30.5 -136t-30.5 -136t-87.5 -91.5t-133 -32.5t-132.5 32.5zM434 112q40 53 40 135t-40 135t-123 53t-122.5 -53t-39.5 -135t39.5 -135t122.5 -53t123 53zM383 569l-71 102
l-72 -102h-83l105 145h99l105 -145h-83z" />
    <glyph glyph-name="odieresis.sc" horiz-adv-x="623" 
d="M178.5 19.5q-56.5 32.5 -87 91.5t-30.5 136t30.5 136t87 91.5t132.5 32.5t133 -32.5t87.5 -91.5t30.5 -136t-30.5 -136t-87.5 -91.5t-133 -32.5t-132.5 32.5zM434 112q40 53 40 135t-40 135t-123 53t-122.5 -53t-39.5 -135t39.5 -135t122.5 -53t123 53zM261 660v-91h-90
v91h90zM453 660v-91h-90v91h90z" />
    <glyph glyph-name="ograve.sc" horiz-adv-x="623" 
d="M178.5 19.5q-56.5 32.5 -87 91.5t-30.5 136t30.5 136t87 91.5t132.5 32.5t133 -32.5t87.5 -91.5t30.5 -136t-30.5 -136t-87.5 -91.5t-133 -32.5t-132.5 32.5zM434 112q40 53 40 135t-40 135t-123 53t-122.5 -53t-39.5 -135t39.5 -135t122.5 -53t123 53zM371 569h-73
l-125 145h112z" />
    <glyph glyph-name="ohungarumlaut.sc" horiz-adv-x="623" 
d="M178.5 19.5q-56.5 32.5 -87 91.5t-30.5 136t30.5 136t87 91.5t132.5 32.5t133 -32.5t87.5 -91.5t30.5 -136t-30.5 -136t-87.5 -91.5t-133 -32.5t-132.5 32.5zM434 112q40 53 40 135t-40 135t-123 53t-122.5 -53t-39.5 -135t39.5 -135t122.5 -53t123 53zM391 713
l-148 -145h-77l107 145h118zM560 713l-148 -145h-77l107 145h118z" />
    <glyph glyph-name="omacron.sc" horiz-adv-x="623" 
d="M178.5 19.5q-56.5 32.5 -87 91.5t-30.5 136t30.5 136t87 91.5t132.5 32.5t133 -32.5t87.5 -91.5t30.5 -136t-30.5 -136t-87.5 -91.5t-133 -32.5t-132.5 32.5zM434 112q40 53 40 135t-40 135t-123 53t-122.5 -53t-39.5 -135t39.5 -135t122.5 -53t123 53zM450 642v-62h-277
v62h277z" />
    <glyph glyph-name="oslash.sc" horiz-adv-x="623" 
d="M562 247q0 -77 -30.5 -136t-87.5 -91.5t-133 -32.5q-77 0 -136 34l-50 -63l-49 42l49 62q-31 34 -47.5 81t-16.5 104q0 77 30.5 136t87 91.5t132.5 32.5q78 0 138 -35l51 64l49 -42l-50 -63q63 -71 63 -184zM178 128l223 283q-37 24 -90 24q-83 0 -122.5 -53t-39.5 -135
q0 -71 29 -119zM434 112q40 53 40 135q0 68 -28 117l-223 -282q35 -23 88 -23q83 0 123 53z" />
    <glyph glyph-name="otilde.sc" horiz-adv-x="623" 
d="M178.5 19.5q-56.5 32.5 -87 91.5t-30.5 136t30.5 136t87 91.5t132.5 32.5t133 -32.5t87.5 -91.5t30.5 -136t-30.5 -136t-87.5 -91.5t-133 -32.5t-132.5 32.5zM434 112q40 53 40 135t-40 135t-123 53t-122.5 -53t-39.5 -135t39.5 -135t122.5 -53t123 53zM477 672
q-21 -104 -102 -104q-19 0 -36.5 6t-42.5 17q-20 10 -34 15t-28 5q-16 0 -30.5 -11.5t-20.5 -31.5h-36q21 104 102 104q19 0 36.5 -6t42.5 -17q38 -20 61 -20q17 0 31.5 11.5t20.5 31.5h36z" />
    <glyph glyph-name="oe.sc" horiz-adv-x="814" 
d="M463 424v-139h256v-68h-256v-147h283v-70h-429q-125 0 -190.5 67t-65.5 180t65.5 180t190.5 67h429v-70h-283zM378 71v353h-58q-84 0 -127.5 -49t-43.5 -128t43.5 -127.5t127.5 -48.5h58z" />
    <glyph glyph-name="p.sc" horiz-adv-x="524" 
d="M428 455q50 -39 50 -116q0 -76 -50 -115t-137 -39h-112v-185h-85v494h197q87 0 137 -39zM392 339q0 85 -104 85h-109v-169h109q104 0 104 84z" />
    <glyph glyph-name="thorn.sc" horiz-adv-x="520" 
d="M424 371q50 -39 50 -116q0 -76 -50 -115t-137 -39h-111v-101h-85v494h85v-84h111q87 0 137 -39zM388 255q0 85 -104 85h-108v-169h108q104 0 104 84z" />
    <glyph glyph-name="q.sc" horiz-adv-x="623" 
d="M541.5 133.5q-20.5 -50.5 -58.5 -85.5l37 -39l-51 -46l-44 47q-51 -23 -114 -23q-76 0 -132.5 32.5t-87 91.5t-30.5 136t30.5 136t87 91.5t132.5 32.5t133 -32.5t87.5 -91.5t30.5 -136q0 -63 -20.5 -113.5zM370 68l-72 77l50 47l81 -86q45 51 45 141q0 82 -40 135
t-123 53t-122.5 -53t-39.5 -135t39.5 -135t122.5 -53q34 0 59 9z" />
    <glyph glyph-name="r.sc" horiz-adv-x="559" 
d="M444.5 177q14.5 -33 15.5 -80q1 -29 7.5 -52t25.5 -45h-93q-19 23 -23 45t-4 62q0 30 -4.5 51t-21.5 37h-168v-195h-85v494h217q83 0 133 -38t50 -108q0 -54 -30 -84.5t-83 -39.5v-2q49 -12 63.5 -45zM383 285q24 21 24 59t-24 59t-70 21h-134v-160h134q46 0 70 21z" />
    <glyph glyph-name="racute.sc" horiz-adv-x="559" 
d="M444.5 177q14.5 -33 15.5 -80q1 -29 7.5 -52t25.5 -45h-93q-19 23 -23 45t-4 62q0 30 -4.5 51t-21.5 37h-168v-195h-85v494h217q83 0 133 -38t50 -108q0 -54 -30 -84.5t-83 -39.5v-2q49 -12 63.5 -45zM383 285q24 21 24 59t-24 59t-70 21h-134v-160h134q46 0 70 21z
M419 714l-125 -145h-73l86 145h112z" />
    <glyph glyph-name="rcaron.sc" horiz-adv-x="559" 
d="M444.5 177q14.5 -33 15.5 -80q1 -29 7.5 -52t25.5 -45h-93q-19 23 -23 45t-4 62q0 30 -4.5 51t-21.5 37h-168v-195h-85v494h217q83 0 133 -38t50 -108q0 -54 -30 -84.5t-83 -39.5v-2q49 -12 63.5 -45zM383 285q24 21 24 59t-24 59t-70 21h-134v-160h134q46 0 70 21z
M429 714l-105 -145h-99l-105 145h83l72 -102l71 102h83z" />
    <glyph glyph-name="rcommaaccent.sc" horiz-adv-x="559" 
d="M444.5 177q14.5 -33 15.5 -80q1 -29 7.5 -52t25.5 -45h-93q-19 23 -23 45t-4 62q0 30 -4.5 51t-21.5 37h-168v-195h-85v494h217q83 0 133 -38t50 -108q0 -54 -30 -84.5t-83 -39.5v-2q49 -12 63.5 -45zM383 285q24 21 24 59t-24 59t-70 21h-134v-160h134q46 0 70 21z
M329 -50v-100l-51 -101h-60l71 101h-49v100h89z" />
    <glyph glyph-name="s.sc" horiz-adv-x="540" 
d="M116.5 39.5q-46.5 52.5 -46.5 126.5h82q-1 -51 30.5 -80t95.5 -29q51 0 80 19t29 56q0 25 -14 39.5t-38 24t-75 22.5q-59 16 -94 30.5t-59 42t-24 73.5q0 64 47 103.5t136 39.5q102 0 145.5 -49t46.5 -114h-82q-6 95 -111 95q-49 0 -74 -19t-25 -51q0 -21 12.5 -34.5
t37 -23t72.5 -22.5q66 -18 102 -33t58 -43.5t22 -75.5q0 -72 -51 -111t-143 -39q-113 0 -159.5 52.5z" />
    <glyph glyph-name="sacute.sc" horiz-adv-x="540" 
d="M116.5 39.5q-46.5 52.5 -46.5 126.5h82q-1 -51 30.5 -80t95.5 -29q51 0 80 19t29 56q0 25 -14 39.5t-38 24t-75 22.5q-59 16 -94 30.5t-59 42t-24 73.5q0 64 47 103.5t136 39.5q102 0 145.5 -49t46.5 -114h-82q-6 95 -111 95q-49 0 -74 -19t-25 -51q0 -21 12.5 -34.5
t37 -23t72.5 -22.5q66 -18 102 -33t58 -43.5t22 -75.5q0 -72 -51 -111t-143 -39q-113 0 -159.5 52.5zM414 714l-125 -145h-73l86 145h112z" />
    <glyph glyph-name="scaron.sc" horiz-adv-x="540" 
d="M116.5 39.5q-46.5 52.5 -46.5 126.5h82q-1 -51 30.5 -80t95.5 -29q51 0 80 19t29 56q0 25 -14 39.5t-38 24t-75 22.5q-59 16 -94 30.5t-59 42t-24 73.5q0 64 47 103.5t136 39.5q102 0 145.5 -49t46.5 -114h-82q-6 95 -111 95q-49 0 -74 -19t-25 -51q0 -21 12.5 -34.5
t37 -23t72.5 -22.5q66 -18 102 -33t58 -43.5t22 -75.5q0 -72 -51 -111t-143 -39q-113 0 -159.5 52.5zM424 714l-105 -145h-99l-105 145h83l72 -102l71 102h83z" />
    <glyph glyph-name="scedilla.sc" horiz-adv-x="540" 
d="M423 29q-47 -39 -133 -42l-21 -39q12 4 22 4q26 0 48 -14t22 -39q0 -31 -31 -48t-69 -17q-22 0 -40.5 7t-28.5 15l12 27q9 -7 22.5 -12.5t27.5 -5.5q17 0 29.5 7.5t12.5 22.5q0 12 -9 20.5t-27 8.5q-5 0 -17 -2l-16 22l20 44q-97 7 -137 58.5t-40 119.5h82
q-1 -51 30.5 -80t95.5 -29q51 0 80 19t29 56q0 25 -14 39.5t-38 24t-75 22.5q-59 16 -94 30.5t-59 42t-24 73.5q0 64 47 103.5t136 39.5q102 0 145.5 -49t46.5 -114h-82q-6 95 -111 95q-49 0 -74 -19t-25 -51q0 -21 12.5 -34.5t37 -23t72.5 -22.5q66 -18 102 -33t58 -43.5
t22 -75.5q0 -69 -47 -108z" />
    <glyph glyph-name="scommaaccent.sc" horiz-adv-x="540" 
d="M116.5 39.5q-46.5 52.5 -46.5 126.5h82q-1 -51 30.5 -80t95.5 -29q51 0 80 19t29 56q0 25 -14 39.5t-38 24t-75 22.5q-59 16 -94 30.5t-59 42t-24 73.5q0 64 47 103.5t136 39.5q102 0 145.5 -49t46.5 -114h-82q-6 95 -111 95q-49 0 -74 -19t-25 -51q0 -21 12.5 -34.5
t37 -23t72.5 -22.5q66 -18 102 -33t58 -43.5t22 -75.5q0 -72 -51 -111t-143 -39q-113 0 -159.5 52.5zM324 -50v-100l-51 -101h-60l71 101h-49v100h89z" />
    <glyph glyph-name="germandbls.sc" horiz-adv-x="543" 
d="M444 224q40 -38 40 -92q0 -70 -45.5 -107.5t-118.5 -37.5q-45 0 -93 15v74q44 -21 87 -21q39 0 63 19.5t24 58.5q0 50 -46 74t-104 24v72q44 0 79 17t35 54q0 29 -23 47t-63 18q-50 0 -75 -31t-25 -95v-313h-85v317q0 91 45 140.5t139 49.5q83 0 126.5 -36t43.5 -91
q0 -90 -131 -110v-2q87 -6 127 -44z" />
    <glyph glyph-name="t.sc" horiz-adv-x="509" 
d="M467 423h-170v-423h-85v423h-170v71h425v-71z" />
    <glyph glyph-name="tbar.sc" horiz-adv-x="509" 
d="M297 423v-151h100v-62h-100v-210h-85v210h-100v62h100v151h-170v71h425v-71h-170z" />
    <glyph glyph-name="tcaron.sc" horiz-adv-x="509" 
d="M467 423h-170v-423h-85v423h-170v71h425v-71zM410 714l-105 -145h-99l-105 145h83l72 -102l71 102h83z" />
    <glyph glyph-name="uni0163.sc" horiz-adv-x="509" 
d="M467 423h-170v-423h-85v423h-170v71h425v-71zM276 -48q26 0 48 -14t22 -39q0 -31 -31 -48t-69 -17q-22 0 -40.5 7t-28.5 15l12 27q9 -7 22.5 -12.5t27.5 -5.5q17 0 29.5 7.5t12.5 22.5q0 12 -9 20.5t-27 8.5q-5 0 -17 -2l-16 22l26 56h44l-28 -52q12 4 22 4z" />
    <glyph glyph-name="uni021B.sc" horiz-adv-x="509" 
d="M467 423h-170v-423h-85v423h-170v71h425v-71zM309 -50v-100l-51 -101h-60l71 101h-49v100h89z" />
    <glyph glyph-name="u.sc" horiz-adv-x="587" 
d="M142 37q-53 50 -53 154v303h85v-303q0 -65 31 -98.5t88 -33.5t88.5 33.5t31.5 98.5v303h85v-303q0 -104 -53.5 -154t-151.5 -50t-151 50z" />
    <glyph glyph-name="uacute.sc" horiz-adv-x="587" 
d="M142 37q-53 50 -53 154v303h85v-303q0 -65 31 -98.5t88 -33.5t88.5 33.5t31.5 98.5v303h85v-303q0 -104 -53.5 -154t-151.5 -50t-151 50zM438 714l-125 -145h-73l86 145h112z" />
    <glyph glyph-name="ucircumflex.sc" horiz-adv-x="587" 
d="M142 37q-53 50 -53 154v303h85v-303q0 -65 31 -98.5t88 -33.5t88.5 33.5t31.5 98.5v303h85v-303q0 -104 -53.5 -154t-151.5 -50t-151 50zM365 569l-71 102l-72 -102h-83l105 145h99l105 -145h-83z" />
    <glyph glyph-name="udieresis.sc" horiz-adv-x="587" 
d="M142 37q-53 50 -53 154v303h85v-303q0 -65 31 -98.5t88 -33.5t88.5 33.5t31.5 98.5v303h85v-303q0 -104 -53.5 -154t-151.5 -50t-151 50zM243 660v-91h-90v91h90zM435 660v-91h-90v91h90z" />
    <glyph glyph-name="ugrave.sc" horiz-adv-x="587" 
d="M142 37q-53 50 -53 154v303h85v-303q0 -65 31 -98.5t88 -33.5t88.5 33.5t31.5 98.5v303h85v-303q0 -104 -53.5 -154t-151.5 -50t-151 50zM353 569h-73l-125 145h112z" />
    <glyph glyph-name="uhungarumlaut.sc" horiz-adv-x="587" 
d="M142 37q-53 50 -53 154v303h85v-303q0 -65 31 -98.5t88 -33.5t88.5 33.5t31.5 98.5v303h85v-303q0 -104 -53.5 -154t-151.5 -50t-151 50zM373 713l-148 -145h-77l107 145h118zM542 713l-148 -145h-77l107 145h118z" />
    <glyph glyph-name="umacron.sc" horiz-adv-x="587" 
d="M142 37q-53 50 -53 154v303h85v-303q0 -65 31 -98.5t88 -33.5t88.5 33.5t31.5 98.5v303h85v-303q0 -104 -53.5 -154t-151.5 -50t-151 50zM432 642v-62h-277v62h277z" />
    <glyph glyph-name="uogonek.sc" horiz-adv-x="587" 
d="M498 494v-303q0 -114 -71 -169q-62 -49 -84 -73.5t-22 -53.5q0 -24 12.5 -34t32.5 -10q13 0 26.5 4t19.5 8v-60q-8 -7 -25.5 -11.5t-37.5 -4.5q-42 0 -72 21t-30 67q0 62 66 113q-7 -1 -20 -1q-98 0 -151 50t-53 154v303h85v-303q0 -65 31 -98.5t88 -33.5t88.5 33.5
t31.5 98.5v303h85z" />
    <glyph glyph-name="uring.sc" horiz-adv-x="587" 
d="M142 37q-53 50 -53 154v303h85v-303q0 -65 31 -98.5t88 -33.5t88.5 33.5t31.5 98.5v303h85v-303q0 -104 -53.5 -154t-151.5 -50t-151 50zM226 563q-28 28 -28 68t28 68t68 28t68 -28t28 -68t-28 -68t-68 -28t-68 28zM330 595q15 15 15 36t-15 36t-36 15t-36 -15t-15 -36
t15 -36t36 -15t36 15z" />
    <glyph glyph-name="v.sc" horiz-adv-x="560" 
d="M360 295l71 199h90l-183 -494h-114l-185 494h91l71 -199q44 -124 79 -241h2q40 135 78 241z" />
    <glyph glyph-name="w.sc" horiz-adv-x="778" 
d="M736 494l-127 -494h-130l-52 237q-14 66 -37 207h-2q-23 -141 -37 -207l-52 -237h-130l-127 494h85l59 -233q23 -95 48 -218h2q23 133 43 218l53 233h114l53 -233q20 -85 43 -218h2q25 123 48 218l59 233h85z" />
    <glyph glyph-name="wacute.sc" horiz-adv-x="778" 
d="M736 494l-127 -494h-130l-52 237q-14 66 -37 207h-2q-23 -141 -37 -207l-52 -237h-130l-127 494h85l59 -233q23 -95 48 -218h2q23 133 43 218l53 233h114l53 -233q20 -85 43 -218h2q25 123 48 218l59 233h85zM532 714l-125 -145h-73l86 145h112z" />
    <glyph glyph-name="wcircumflex.sc" horiz-adv-x="778" 
d="M736 494l-127 -494h-130l-52 237q-14 66 -37 207h-2q-23 -141 -37 -207l-52 -237h-130l-127 494h85l59 -233q23 -95 48 -218h2q23 133 43 218l53 233h114l53 -233q20 -85 43 -218h2q25 123 48 218l59 233h85zM459 569l-71 102l-72 -102h-83l105 145h99l105 -145h-83z" />
    <glyph glyph-name="wdieresis.sc" horiz-adv-x="778" 
d="M736 494l-127 -494h-130l-52 237q-14 66 -37 207h-2q-23 -141 -37 -207l-52 -237h-130l-127 494h85l59 -233q23 -95 48 -218h2q23 133 43 218l53 233h114l53 -233q20 -85 43 -218h2q25 123 48 218l59 233h85zM337 660v-91h-90v91h90zM529 660v-91h-90v91h90z" />
    <glyph glyph-name="wgrave.sc" horiz-adv-x="778" 
d="M736 494l-127 -494h-130l-52 237q-14 66 -37 207h-2q-23 -141 -37 -207l-52 -237h-130l-127 494h85l59 -233q23 -95 48 -218h2q23 133 43 218l53 233h114l53 -233q20 -85 43 -218h2q25 123 48 218l59 233h85zM447 569h-73l-125 145h112z" />
    <glyph glyph-name="x.sc" horiz-adv-x="540" 
d="M220 255l-169 239h101l119 -173l117 173h101l-170 -239l183 -255h-103l-128 190l-131 -190h-102z" />
    <glyph glyph-name="y.sc" horiz-adv-x="521" 
d="M303 0h-85v179l-182 315h96l52 -94q41 -72 76 -148h1q35 76 76 148l52 94h96l-182 -315v-179z" />
    <glyph glyph-name="yacute.sc" horiz-adv-x="521" 
d="M303 0h-85v179l-182 315h96l52 -94q41 -72 76 -148h1q35 76 76 148l52 94h96l-182 -315v-179zM405 714l-125 -145h-73l86 145h112z" />
    <glyph glyph-name="ycircumflex.sc" horiz-adv-x="521" 
d="M303 0h-85v179l-182 315h96l52 -94q41 -72 76 -148h1q35 76 76 148l52 94h96l-182 -315v-179zM332 569l-71 102l-72 -102h-83l105 145h99l105 -145h-83z" />
    <glyph glyph-name="ydieresis.sc" horiz-adv-x="521" 
d="M303 0h-85v179l-182 315h96l52 -94q41 -72 76 -148h1q35 76 76 148l52 94h96l-182 -315v-179zM210 660v-91h-90v91h90zM402 660v-91h-90v91h90z" />
    <glyph glyph-name="ygrave.sc" horiz-adv-x="521" 
d="M303 0h-85v179l-182 315h96l52 -94q41 -72 76 -148h1q35 76 76 148l52 94h96l-182 -315v-179zM320 569h-73l-125 145h112z" />
    <glyph glyph-name="z.sc" horiz-adv-x="497" 
d="M449 70v-70h-400v78l305 346h-303v70h393v-81l-296 -343h301z" />
    <glyph glyph-name="zacute.sc" horiz-adv-x="497" 
d="M449 70v-70h-400v78l305 346h-303v70h393v-81l-296 -343h301zM393 714l-125 -145h-73l86 145h112z" />
    <glyph glyph-name="zcaron.sc" horiz-adv-x="497" 
d="M449 70v-70h-400v78l305 346h-303v70h393v-81l-296 -343h301zM403 714l-105 -145h-99l-105 145h83l72 -102l71 102h83z" />
    <glyph glyph-name="zdotaccent.sc" horiz-adv-x="497" 
d="M449 70v-70h-400v78l305 346h-303v70h393v-81l-296 -343h301zM294 660v-91h-90v91h90z" />
    <glyph glyph-name="zero.ss01" horiz-adv-x="686" 
d="M108.5 185q33.5 -100 94 -150.5t140.5 -50.5t140.5 50.5t94 150.5t33.5 244t-33.5 243.5t-94 150t-140.5 50.5t-140.5 -50.5t-94 -150t-33.5 -243.5t33.5 -244zM212.5 694.5q45.5 89.5 130.5 89.5t130.5 -89.5t45.5 -265.5q0 -177 -45.5 -266.5t-130.5 -89.5t-130.5 89.5
t-45.5 266.5q0 176 45.5 265.5z" />
    <glyph glyph-name="one.ss01" horiz-adv-x="686" 
d="M592 89v-89h-466v89h188v623q-81 -91 -182 -136v95q54 23 113.5 74.5t105.5 114.5h54v-771h187z" />
    <glyph glyph-name="two.ss01" horiz-adv-x="686" 
d="M110 108l267 286q58 62 85.5 114.5t27.5 115.5q0 71 -39 116.5t-108 45.5q-78 0 -112 -55t-34 -137q0 -22 1 -33h-87q-1 12 -1 37q0 116 56 195.5t180 79.5q85 0 138 -40.5t76 -99.5t23 -116q0 -61 -19.5 -111t-51 -90.5t-83.5 -95.5l-223 -231h379v-89h-475v108z" />
    <glyph glyph-name="three.ss01" horiz-adv-x="686" 
d="M551 389.5q38 -52.5 38 -140.5q0 -73 -27.5 -133.5t-84.5 -96.5t-142 -36q-126 0 -188 82t-62 210h87q-2 -55 16 -102t56.5 -75.5t93.5 -28.5q74 0 118 49.5t44 126.5q0 86 -49 129t-120 43h-49v79q12 1 27.5 0t20.5 -1q59 0 96 40.5t37 103.5q0 68 -36 110t-100 42
q-76 0 -109.5 -57.5t-33.5 -145.5h-87q-1 60 17 124t70 112.5t146 48.5q72 0 122.5 -29.5t76 -80t25.5 -111.5q0 -70 -28.5 -118t-73.5 -75v-3q61 -14 99 -66.5z" />
    <glyph glyph-name="four.ss01" horiz-adv-x="686" 
d="M613 219h-93v-219h-90v219h-352v80l306 561h136v-560h93v-81zM430 300v472l-262 -472h262z" />
    <glyph glyph-name="five.ss01" horiz-adv-x="686" 
d="M183 251q0 -56 22.5 -97.5t60.5 -64t82 -22.5q51 0 89 31.5t58 84.5t20 118q0 82 -33.5 146t-116.5 64q-36 0 -64 -13t-47 -30.5t-46 -47.5l-105 32l84 408h383v-90h-319l-58 -275q29 34 50 54t55 35t80 15q71 0 122.5 -37.5t79 -103.5t27.5 -150q0 -83 -27 -157
t-86 -120.5t-150 -46.5q-82 0 -137 37t-82 96t-27 124q0 12 2 36h84q-1 -9 -1 -26z" />
    <glyph glyph-name="six.ss01" horiz-adv-x="686" 
d="M493.5 531q51.5 -33 80.5 -96.5t29 -150.5q0 -88 -30 -156t-87 -106t-134 -38q-141 0 -197.5 119.5t-56.5 304.5q0 212 67 338.5t204 126.5q88 0 148 -56t60 -172h-89q-5 68 -36 105t-83 37q-86 0 -131 -91.5t-54 -251.5q33 60 82 90t111 30q65 0 116.5 -33zM470 131.5
q41 60.5 41 150.5t-41.5 143.5t-110.5 53.5q-46 0 -82 -25t-56.5 -70.5t-20.5 -106.5q0 -62 20 -108.5t55.5 -72t81.5 -25.5q72 0 113 60.5z" />
    <glyph glyph-name="seven.ss01" horiz-adv-x="686" 
d="M314.5 404q60.5 189 168.5 366h-385v90h476v-84q-106 -195 -167 -386.5t-75 -389.5h-106q28 215 88.5 404z" />
    <glyph glyph-name="eight.ss01" horiz-adv-x="686" 
d="M205 18q-58 34 -88.5 92.5t-30.5 130.5q0 85 37.5 140.5t96.5 79.5q-49 29 -78 75.5t-29 111.5q0 60 26 111.5t78 82.5t126 31t126 -31t78 -82.5t26 -111.5q0 -65 -29 -111.5t-78 -75.5q59 -24 96.5 -79.5t37.5 -140.5q0 -72 -30.5 -130.5t-88.5 -92.5t-138 -34t-138 34z
M446.5 532q37.5 42 37.5 109q0 69 -37.5 109t-103.5 40t-103.5 -40t-37.5 -109q0 -67 37.5 -109t103.5 -42t103.5 42zM466.5 120.5q41.5 46.5 41.5 120.5t-42.5 125t-122.5 51t-122.5 -51t-42.5 -125t41.5 -120.5t123.5 -46.5t123.5 46.5z" />
    <glyph glyph-name="nine.ss01" horiz-adv-x="686" 
d="M197.5 326q-51.5 33 -80.5 96.5t-29 150.5q0 88 30 156t87 106t134 38q254 0 254 -427q0 -212 -67 -337t-206 -125q-58 0 -107.5 23.5t-80.5 75t-31 129.5h90q5 -63 37.5 -102.5t90.5 -39.5q168 0 188 343q-33 -60 -82 -90t-111 -30q-65 0 -116.5 33zM221 725.5
q-41 -60.5 -41 -150.5t41.5 -143.5t110.5 -53.5q46 0 82 25t56.5 70.5t20.5 106.5q0 62 -20 108.5t-55.5 72t-81.5 25.5q-72 0 -113 -60.5z" />
    <glyph glyph-name="zero.tf" horiz-adv-x="666" 
d="M198 27.5q-58 40.5 -90.5 121.5t-32.5 201t32.5 201t90.5 121.5t135 40.5t135 -40.5t90.5 -121.5t32.5 -201t-32.5 -201t-90.5 -121.5t-135 -40.5t-135 40.5zM456.5 137.5q42.5 72.5 42.5 212.5t-42.5 212.5t-123.5 72.5t-123.5 -72.5t-42.5 -212.5t42.5 -212.5
t123.5 -72.5t123.5 72.5z" />
    <glyph glyph-name="one.tf" horiz-adv-x="666" 
d="M571 82v-82h-463v82h190v477q-91 -67 -165 -93v89q50 19 103.5 57.5t96.5 87.5h53v-618h185z" />
    <glyph glyph-name="two.tf" horiz-adv-x="666" 
d="M110 93l253 234q57 53 82.5 93.5t25.5 86.5q0 57 -36 92.5t-101 35.5q-73 0 -105 -44t-32 -109q0 -18 1 -27h-88q-1 10 -1 31q0 95 54 161t173 66q81 0 131.5 -32t72.5 -79.5t22 -96.5q0 -64 -35 -118.5t-107 -119.5l-204 -185h349v-82h-455v93z" />
    <glyph glyph-name="three.tf" horiz-adv-x="666" 
d="M533.5 317.5q35.5 -42.5 35.5 -113.5q0 -59 -26 -108.5t-80.5 -79t-136.5 -29.5q-124 0 -183.5 67t-56.5 174h88q-2 -69 37 -116t118 -47q70 0 110 37t40 99q0 67 -45.5 100.5t-110.5 33.5q-27 0 -50 -2v78l50 -2q55 0 89.5 31.5t34.5 82.5q0 50 -34 81t-93 31
q-72 0 -104 -45t-32 -113h-88q-1 88 47 162t178 74q70 0 118.5 -24.5t73 -65.5t24.5 -92q0 -56 -27.5 -94.5t-71.5 -59.5v-2q60 -15 95.5 -57.5z" />
    <glyph glyph-name="four.tf" horiz-adv-x="666" 
d="M599 178h-90v-178h-88v178h-343v77l291 445h140v-447h90v-75zM421 253v156q0 105 3 229h-2q-30 -50 -119 -188q-11 -18 -35 -54l-93 -143h246z" />
    <glyph glyph-name="five.tf" horiz-adv-x="666" 
d="M266.5 470q40.5 21 100.5 21q68 0 117.5 -31t75.5 -85.5t26 -124.5q0 -68 -25.5 -127.5t-82.5 -97.5t-146 -38q-79 0 -132 29.5t-78.5 76.5t-25.5 102q0 19 3 35h84q-2 -16 -2 -23q0 -64 43.5 -103t110.5 -39q77 0 119 51.5t42 129.5q0 66 -32 116.5t-110 50.5
q-48 0 -81 -19.5t-69 -55.5l-99 48l78 314h368v-82h-308l-51 -201h2q32 32 72.5 53z" />
    <glyph glyph-name="six.tf" horiz-adv-x="666" 
d="M261.5 436.5q46.5 24.5 105.5 24.5q62 0 111 -27.5t77 -79t28 -122.5q0 -72 -29 -127.5t-83 -86.5t-129 -31q-136 0 -190 97t-54 248q0 175 64.5 278t195.5 103q86 0 144 -45.5t58 -140.5h-89q0 49 -31.5 78.5t-82.5 29.5q-80 0 -123.5 -73t-51.5 -198h2q31 48 77.5 72.5
zM454 112.5q39 47.5 39 117.5t-39 111.5t-105 41.5q-67 0 -109 -43t-42 -115t41.5 -116t107.5 -44q68 0 107 47.5z" />
    <glyph glyph-name="seven.tf" horiz-adv-x="666" 
d="M285.5 322q57.5 150 161.5 296h-367v82h456v-79q-101 -159 -158.5 -311t-70.5 -310h-105q26 172 83.5 322z" />
    <glyph glyph-name="eight.tf" horiz-adv-x="666" 
d="M544.5 311.5q35.5 -45.5 35.5 -113.5q0 -60 -29 -108t-85 -75.5t-132 -27.5t-132 27.5t-85 75.5t-29 108q0 68 35.5 113.5t91.5 64.5v2q-47 22 -75 60.5t-28 91.5q0 50 25 92t75 66.5t122 24.5t122 -24.5t75 -66.5t25 -92q0 -53 -28 -91.5t-75 -60.5v-2
q56 -19 91.5 -64.5zM235 438q35 -32 99 -32t99 32t35 84t-35.5 83.5t-98.5 31.5t-98.5 -31.5t-35.5 -83.5t35 -84zM450.5 102q39.5 37 39.5 96q0 58 -40 97.5t-116 39.5t-116 -39.5t-40 -97.5q0 -59 39.5 -96t116.5 -37t116.5 37z" />
    <glyph glyph-name="nine.tf" horiz-adv-x="666" 
d="M409.5 263.5q-46.5 -24.5 -105.5 -24.5q-62 0 -111 27.5t-77 79t-28 122.5q0 72 29 127.5t83 86.5t129 31q136 0 190 -97t54 -248q0 -175 -64.5 -278t-195.5 -103q-86 0 -144 45.5t-58 140.5h89q0 -49 31.5 -78.5t82.5 -29.5q80 0 123.5 73t51.5 198h-2
q-31 -48 -77.5 -72.5zM217 587.5q-39 -47.5 -39 -117.5t39 -111.5t105 -41.5q67 0 109 43t42 115t-41.5 116t-107.5 44q-68 0 -107 -47.5z" />
    <glyph glyph-name="zero.dnom" horiz-adv-x="438" 
d="M352 375.5q-50 55.5 -133 55.5t-133 -55.5t-50 -167.5q0 -111 50 -166t133 -55t133 55t50 166q0 112 -50 167.5zM219 45q-107 0 -107 163t107 163t107 -163t-107 -163z" />
    <glyph glyph-name="one.dnom" horiz-adv-x="361" 
d="M179 329q-17 -15 -45 -27.5t-54 -20.5v63q73 27 125 76h46v-420h-72v329z" />
    <glyph glyph-name="two.dnom" horiz-adv-x="437" 
d="M263 60h109v-60h-316v71l166 122q40 30 59 53t19 52q0 32 -21.5 53.5t-65.5 21.5q-47 0 -66.5 -26t-19.5 -63l1 -15h-70q-1 6 -1 18q0 62 38 103t121 41q82 0 120 -39.5t38 -94.5q0 -44 -25 -78t-78 -70l-51 -35q-14 -10 -33 -21t-27 -16l-34 -20v-2q46 5 137 5z" />
    <glyph glyph-name="three.dnom" horiz-adv-x="432" 
d="M87 26q-43 39 -43 109h71q-1 -42 23.5 -66t70.5 -24q43 0 67.5 20t24.5 56t-23 55t-68 19q-20 0 -42 -2v59q14 -2 42 -2q36 0 56 16t20 45t-21 45.5t-57 16.5q-42 0 -65 -23t-23 -65h-71q0 69 41.5 107.5t119.5 38.5q69 0 109.5 -29.5t40.5 -81.5q0 -34 -18 -58t-53 -34
v-1q42 -10 64 -38.5t22 -70.5q0 -60 -44.5 -95.5t-121.5 -35.5q-79 0 -122 39z" />
    <glyph glyph-name="four.dnom" horiz-adv-x="413" 
d="M366 106h-60v-106h-69v106h-232v61l187 253h114v-257h60v-57zM237 163v65q0 105 1 157h-2l-17 -24q-34 -53 -76 -110l-65 -88h159z" />
    <glyph glyph-name="five.dnom" horiz-adv-x="431" 
d="M125.5 5.5q-37.5 18.5 -57 48.5t-19.5 65q0 7 2 19h71q-1 -5 -1 -13q0 -37 28.5 -58t67.5 -21q46 0 71 29.5t25 69.5q0 36 -21.5 63.5t-70.5 27.5q-27 0 -49 -9.5t-47 -29.5l-69 40l51 183h250v-57h-204l-32 -114h1q48 48 117 48q68 0 108 -41t40 -107
q0 -67 -42.5 -114.5t-129.5 -47.5q-52 0 -89.5 18.5z" />
    <glyph glyph-name="six.dnom" horiz-adv-x="441" 
d="M160 257q33 16 76 16q67 0 110 -37t43 -101q0 -66 -46 -107t-124 -41q-94 0 -134.5 59.5t-40.5 149.5q0 107 49.5 171t136.5 64q62 0 105.5 -32.5t43.5 -93.5h-75q0 28 -21 48t-57 20q-52 0 -81.5 -43.5t-36.5 -117.5h2q17 29 50 45zM289.5 69q25.5 23 25.5 61t-25 61
t-68 23q-44 0 -71.5 -23.5t-27.5 -60.5t27 -60.5t71 -23.5q43 0 68.5 23z" />
    <glyph glyph-name="seven.dnom" horiz-adv-x="400" 
d="M200.5 184q40.5 86 113.5 176h-254v60h322v-62q-71 -91 -108 -176.5t-48 -181.5h-83q17 98 57.5 184z" />
    <glyph glyph-name="eight.dnom" horiz-adv-x="432" 
d="M90 23q-45 36 -45 93q0 42 24 69.5t64 37.5v2q-36 9 -55 33t-19 57q0 50 41.5 83t110.5 33t110.5 -33t41.5 -83q0 -33 -19 -57t-55 -33v-2q38 -10 63 -37t25 -70q0 -56 -44.5 -92.5t-121.5 -36.5q-76 0 -121 36zM270 264q22 18 22 47t-21.5 46.5t-59.5 17.5t-60 -17.5
t-22 -46.5t22.5 -47t59.5 -18t59 18zM279 66q25 20 25 49q0 30 -25 52t-68 22t-68 -22t-25 -52q0 -29 25 -49t68 -20t68 20z" />
    <glyph glyph-name="nine.dnom" horiz-adv-x="441" 
d="M281 161q-33 -16 -76 -16q-67 0 -110 37t-43 101q0 66 46 107t124 41q94 0 134.5 -59.5t40.5 -149.5q0 -107 -49.5 -171t-136.5 -64q-62 0 -105.5 32.5t-43.5 93.5h75q0 -28 21 -48t57 -20q52 0 81.5 43.5t36.5 117.5h-2q-17 -29 -50 -45zM151.5 349q-25.5 -23 -25.5 -61
t25 -61t68 -23q44 0 71.5 23.5t27.5 60.5t-27 60.5t-71 23.5q-43 0 -68.5 -23z" />
    <glyph glyph-name="zero.numr" horiz-adv-x="438" 
d="M352 657.5q-50 55.5 -133 55.5t-133 -55.5t-50 -167.5q0 -111 50 -166t133 -55t133 55t50 166q0 112 -50 167.5zM219 327q-107 0 -107 163t107 163t107 -163t-107 -163z" />
    <glyph glyph-name="one.numr" horiz-adv-x="361" 
d="M179 609q-17 -15 -45 -27.5t-54 -20.5v63q73 27 125 76h46v-420h-72v329z" />
    <glyph glyph-name="two.numr" horiz-adv-x="437" 
d="M263 342h109v-60h-316v71l166 122q40 30 59 53t19 52q0 32 -21.5 53.5t-65.5 21.5q-47 0 -66.5 -26t-19.5 -63l1 -15h-70q-1 6 -1 18q0 62 38 103t121 41q82 0 120 -39.5t38 -94.5q0 -44 -25 -78t-78 -70l-51 -35q-14 -10 -33 -21t-27 -16l-34 -20v-2q46 5 137 5z" />
    <glyph glyph-name="three.numr" horiz-adv-x="432" 
d="M87 308q-43 39 -43 109h71q-1 -42 23.5 -66t70.5 -24q43 0 67.5 20t24.5 56t-23 55t-68 19q-20 0 -42 -2v59q14 -2 42 -2q36 0 56 16t20 45t-21 45.5t-57 16.5q-42 0 -65 -23t-23 -65h-71q0 69 41.5 107.5t119.5 38.5q69 0 109.5 -29.5t40.5 -81.5q0 -34 -18 -58t-53 -34
v-1q42 -10 64 -38.5t22 -70.5q0 -60 -44.5 -95.5t-121.5 -35.5q-79 0 -122 39z" />
    <glyph glyph-name="four.numr" horiz-adv-x="413" 
d="M366 386h-60v-106h-69v106h-232v61l187 253h114v-257h60v-57zM237 443v65q0 105 1 157h-2l-17 -24q-34 -53 -76 -110l-65 -88h159z" />
    <glyph glyph-name="five.numr" horiz-adv-x="431" 
d="M125.5 285.5q-37.5 18.5 -57 48.5t-19.5 65q0 7 2 19h71q-1 -5 -1 -13q0 -37 28.5 -58t67.5 -21q46 0 71 29.5t25 69.5q0 36 -21.5 63.5t-70.5 27.5q-27 0 -49 -9.5t-47 -29.5l-69 40l51 183h250v-57h-204l-32 -114h1q48 48 117 48q68 0 108 -41t40 -107
q0 -67 -42.5 -114.5t-129.5 -47.5q-52 0 -89.5 18.5z" />
    <glyph glyph-name="six.numr" horiz-adv-x="441" 
d="M160 539q33 16 76 16q67 0 110 -37t43 -101q0 -66 -46 -107t-124 -41q-94 0 -134.5 59.5t-40.5 149.5q0 107 49.5 171t136.5 64q62 0 105.5 -32.5t43.5 -93.5h-75q0 28 -21 48t-57 20q-52 0 -81.5 -43.5t-36.5 -117.5h2q17 29 50 45zM289.5 351q25.5 23 25.5 61t-25 61
t-68 23q-44 0 -71.5 -23.5t-27.5 -60.5t27 -60.5t71 -23.5q43 0 68.5 23z" />
    <glyph glyph-name="seven.numr" horiz-adv-x="400" 
d="M200.5 464q40.5 86 113.5 176h-254v60h322v-62q-71 -91 -108 -176.5t-48 -181.5h-83q17 98 57.5 184z" />
    <glyph glyph-name="eight.numr" horiz-adv-x="432" 
d="M90 305q-45 36 -45 93q0 42 24 69.5t64 37.5v2q-36 9 -55 33t-19 57q0 50 41.5 83t110.5 33t110.5 -33t41.5 -83q0 -33 -19 -57t-55 -33v-2q38 -10 63 -37t25 -70q0 -56 -44.5 -92.5t-121.5 -36.5q-76 0 -121 36zM270 546q22 18 22 47t-21.5 46.5t-59.5 17.5t-60 -17.5
t-22 -46.5t22.5 -47t59.5 -18t59 18zM279 348q25 20 25 49q0 30 -25 52t-68 22t-68 -22t-25 -52q0 -29 25 -49t68 -20t68 20z" />
    <glyph glyph-name="nine.numr" horiz-adv-x="441" 
d="M281 443q-33 -16 -76 -16q-67 0 -110 37t-43 101q0 66 46 107t124 41q94 0 134.5 -59.5t40.5 -149.5q0 -107 -49.5 -171t-136.5 -64q-62 0 -105.5 32.5t-43.5 93.5h75q0 -28 21 -48t57 -20q52 0 81.5 43.5t36.5 117.5h-2q-17 -29 -50 -45zM151.5 631q-25.5 -23 -25.5 -61
t25 -61t68 -23q44 0 71.5 23.5t27.5 60.5t-27 60.5t-71 23.5q-43 0 -68.5 -23z" />
    <glyph glyph-name="zero.sc" horiz-adv-x="538" 
d="M415.5 442.5q-55.5 64.5 -146.5 64.5t-146.5 -64.5t-55.5 -195.5t55.5 -195.5t146.5 -64.5t146.5 64.5t55.5 195.5t-55.5 195.5zM360 104q-29 -49 -91 -49t-91 49t-29 143t29 143t91 49t91 -49t29 -143t-29 -143z" />
    <glyph glyph-name="one.sc" horiz-adv-x="370" 
d="M186 389q-19 -17 -50.5 -32t-59.5 -24v72q80 29 138 89h52v-494h-80v389z" />
    <glyph glyph-name="two.sc" horiz-adv-x="523" 
d="M320 69h124v-69h-359v84l188 142q46 35 68 63t22 62q0 37 -25 63t-75 26q-54 0 -76.5 -30.5t-22.5 -74.5q0 -12 1 -18h-78q-1 7 -1 22q0 72 43 120t137 48q93 0 136 -46.5t43 -110.5q0 -50 -28 -91t-88 -84l-58 -41q-15 -11 -85 -54q-7 -5 -12.5 -8t-10.5 -6v-2
q53 5 157 5z" />
    <glyph glyph-name="three.sc" horiz-adv-x="516" 
d="M120.5 33q-48.5 46 -48.5 128h78q-1 -50 27 -78.5t79 -28.5q50 0 78 23.5t28 66.5q0 40 -26 63t-73 23q-26 0 -52 -2v69q24 -3 48 -3q41 0 63.5 19.5t22.5 53.5t-24 53.5t-67 19.5q-46 0 -72 -27.5t-26 -77.5h-78q0 81 47 126.5t130 45.5q81 0 126.5 -35t45.5 -97
q0 -39 -21 -67t-58 -39v-2q45 -11 70.5 -43.5t25.5 -78.5q0 -74 -50 -116t-139 -42q-86 0 -134.5 46z" />
    <glyph glyph-name="four.sc" horiz-adv-x="513" 
d="M463 126h-71v-126h-78v126h-266v71l216 297h128v-303h71v-65zM314 191v78v183h-2q-49 -77 -106 -156l-76 -105h184z" />
    <glyph glyph-name="five.sc" horiz-adv-x="512" 
d="M153 8.5q-43 21.5 -64.5 57t-21.5 76.5q0 7 2 23h78q-1 -5 -1 -16q0 -44 32.5 -69t77.5 -25q54 0 82.5 35t28.5 84q0 41 -24.5 73.5t-79.5 32.5q-33 0 -58 -12t-53 -36l-79 47l58 215h286v-66h-233l-37 -134l2 -1q54 57 132 57q76 0 122 -48t46 -125q0 -49 -20 -92.5
t-63.5 -70.5t-110.5 -27q-59 0 -102 21.5z" />
    <glyph glyph-name="six.sc" horiz-adv-x="513" 
d="M197.5 304.5q37.5 18.5 84.5 18.5q74 0 122 -43.5t48 -118.5q0 -77 -51 -125.5t-138 -48.5q-105 0 -150.5 70t-45.5 176q0 82 25 144t72 96t111 34q65 0 114.5 -34.5t49.5 -104.5h-78q0 29 -24 50.5t-66 21.5q-57 0 -90.5 -49t-41.5 -139h2q19 34 56.5 52.5zM341.5 82.5
q28.5 27.5 28.5 72.5t-28 72.5t-76 27.5q-49 0 -79.5 -27.5t-30.5 -72.5t30 -72.5t79 -27.5q48 0 76.5 27.5z" />
    <glyph glyph-name="seven.sc" horiz-adv-x="461" 
d="M205 217q44 101 124 208h-284v69h361v-72q-78 -109 -120 -210.5t-52 -211.5h-91q18 116 62 217z" />
    <glyph glyph-name="eight.sc" horiz-adv-x="520" 
d="M422.5 220q27.5 -32 27.5 -82q0 -43 -22.5 -77t-66 -54t-101.5 -20t-101.5 20t-66 54t-22.5 77q0 50 27.5 82t72.5 44v2q-41 11 -62.5 39t-21.5 68q0 36 21 67t60.5 49t92.5 18t92.5 -18t60.5 -49t21 -67q0 -40 -21.5 -68t-62.5 -39v-2q45 -12 72.5 -44zM190.5 311.5
q25.5 -20.5 69.5 -20.5t69.5 20.5t25.5 55.5t-25.5 55t-69.5 20t-69.5 -20t-25.5 -55t25.5 -55.5zM339.5 79q28.5 24 28.5 59q0 36 -29 62t-79 26t-79 -26t-29 -62q0 -35 28.5 -59t79.5 -24t79.5 24z" />
    <glyph glyph-name="nine.sc" horiz-adv-x="518" 
d="M320.5 189.5q-37.5 -18.5 -84.5 -18.5q-74 0 -122 43.5t-48 118.5q0 77 51 125.5t138 48.5q105 0 150.5 -70t45.5 -176q0 -82 -25 -144t-72 -96t-111 -34q-65 0 -114.5 34.5t-49.5 104.5h78q0 -29 24 -50.5t66 -21.5q57 0 90.5 49t41.5 139h-2q-19 -34 -56.5 -52.5z
M176.5 411.5q-28.5 -27.5 -28.5 -72.5t28 -72.5t76 -27.5q49 0 79.5 27.5t30.5 72.5t-30 72.5t-79 27.5q-48 0 -76.5 -27.5z" />
    <glyph glyph-name="zero.tf.sc" horiz-adv-x="547" 
d="M420.5 442.5q-55.5 64.5 -146.5 64.5t-146.5 -64.5t-55.5 -195.5t55.5 -195.5t146.5 -64.5t146.5 64.5t55.5 195.5t-55.5 195.5zM365 104q-29 -49 -91 -49t-91 49t-29 143t29 143t91 49t91 -49t29 -143t-29 -143z" />
    <glyph glyph-name="one.tf.sc" horiz-adv-x="547" 
d="M466 69v-69h-345v69h133v320q-19 -17 -50.5 -32t-59.5 -24v72q80 29 138 89h52v-425h132z" />
    <glyph glyph-name="two.tf.sc" horiz-adv-x="547" 
d="M333 69h124v-69h-359v84l188 142q46 35 68 63t22 62q0 37 -25 63t-75 26q-54 0 -76.5 -30.5t-22.5 -74.5q0 -12 1 -18h-78q-1 7 -1 22q0 72 43 120t137 48q93 0 136 -46.5t43 -110.5q0 -50 -28 -91t-88 -84l-58 -41q-15 -11 -85 -54q-7 -5 -12.5 -8t-10.5 -6v-2
q53 5 157 5z" />
    <glyph glyph-name="three.tf.sc" horiz-adv-x="547" 
d="M135.5 33q-48.5 46 -48.5 128h78q-1 -50 27 -78.5t79 -28.5q50 0 78 23.5t28 66.5q0 40 -26 63t-73 23q-26 0 -52 -2v69q24 -3 48 -3q41 0 63.5 19.5t22.5 53.5t-24 53.5t-67 19.5q-46 0 -72 -27.5t-26 -77.5h-78q0 81 47 126.5t130 45.5q81 0 126.5 -35t45.5 -97
q0 -39 -21 -67t-58 -39v-2q45 -11 70.5 -43.5t25.5 -78.5q0 -74 -50 -116t-139 -42q-86 0 -134.5 46z" />
    <glyph glyph-name="four.tf.sc" horiz-adv-x="547" 
d="M484 126h-71v-126h-78v126h-266v71l216 297h128v-303h71v-65zM335 191v78v183h-2q-49 -77 -106 -156l-76 -105h184z" />
    <glyph glyph-name="five.tf.sc" horiz-adv-x="547" 
d="M176 8.5q-43 21.5 -64.5 57t-21.5 76.5q0 7 2 23h78q-1 -5 -1 -16q0 -44 32.5 -69t77.5 -25q54 0 82.5 35t28.5 84q0 41 -24.5 73.5t-79.5 32.5q-33 0 -58 -12t-53 -36l-79 47l58 215h286v-66h-233l-37 -134l2 -1q54 57 132 57q76 0 122 -48t46 -125q0 -49 -20 -92.5
t-63.5 -70.5t-110.5 -27q-59 0 -102 21.5z" />
    <glyph glyph-name="six.tf.sc" horiz-adv-x="547" 
d="M207.5 304.5q37.5 18.5 84.5 18.5q74 0 122 -43.5t48 -118.5q0 -77 -51 -125.5t-138 -48.5q-105 0 -150.5 70t-45.5 176q0 82 25 144t72 96t111 34q65 0 114.5 -34.5t49.5 -104.5h-78q0 29 -24 50.5t-66 21.5q-57 0 -90.5 -49t-41.5 -139h2q19 34 56.5 52.5zM351.5 82.5
q28.5 27.5 28.5 72.5t-28 72.5t-76 27.5q-49 0 -79.5 -27.5t-30.5 -72.5t30 -72.5t79 -27.5q48 0 76.5 27.5z" />
    <glyph glyph-name="seven.tf.sc" horiz-adv-x="547" 
d="M246 217q44 101 124 208h-284v69h361v-72q-78 -109 -120 -210.5t-52 -211.5h-91q18 116 62 217z" />
    <glyph glyph-name="eight.tf.sc" horiz-adv-x="547" 
d="M435.5 220q27.5 -32 27.5 -82q0 -43 -22.5 -77t-66 -54t-101.5 -20t-101.5 20t-66 54t-22.5 77q0 50 27.5 82t72.5 44v2q-41 11 -62.5 39t-21.5 68q0 36 21 67t60.5 49t92.5 18t92.5 -18t60.5 -49t21 -67q0 -40 -21.5 -68t-62.5 -39v-2q45 -12 72.5 -44zM203.5 311.5
q25.5 -20.5 69.5 -20.5t69.5 20.5t25.5 55.5t-25.5 55t-69.5 20t-69.5 -20t-25.5 -55t25.5 -55.5zM352.5 79q28.5 24 28.5 59q0 36 -29 62t-79 26t-79 -26t-29 -62q0 -35 28.5 -59t79.5 -24t79.5 24z" />
    <glyph glyph-name="nine.tf.sc" horiz-adv-x="547" 
d="M335.5 189.5q-37.5 -18.5 -84.5 -18.5q-74 0 -122 43.5t-48 118.5q0 77 51 125.5t138 48.5q105 0 150.5 -70t45.5 -176q0 -82 -25 -144t-72 -96t-111 -34q-65 0 -114.5 34.5t-49.5 104.5h78q0 -29 24 -50.5t66 -21.5q57 0 90.5 49t41.5 139h-2q-19 -34 -56.5 -52.5z
M191.5 411.5q-28.5 -27.5 -28.5 -72.5t28 -72.5t76 -27.5q49 0 79.5 27.5t30.5 72.5t-30 72.5t-79 27.5q-48 0 -76.5 -27.5z" />
    <glyph glyph-name="slash.case" horiz-adv-x="449" 
d="M141 0h-82l269 700h82z" />
    <glyph glyph-name="braceleft.case" horiz-adv-x="303" 
d="M97 351q92 -15 92 -104v-129q0 -53 7.5 -82t25.5 -41.5t51 -12.5v-30h-24q-58 0 -88 21t-40.5 57t-10.5 90v116q0 44 -12 64t-48 20v62q36 0 48 20t12 64v116q0 54 10.5 90t40.5 57t88 21h24v-30q-33 0 -51 -12.5t-25.5 -41.5t-7.5 -82v-129q0 -89 -92 -104z" />
    <glyph glyph-name="braceright.case" horiz-adv-x="303" 
d="M114 584q0 53 -7.5 82t-25.5 41.5t-51 12.5v30h24q58 0 88 -21t40.5 -57t10.5 -90v-116q0 -44 12 -64t48 -20v-62q-36 0 -48 -20t-12 -64v-116q0 -54 -10.5 -90t-40.5 -57t-88 -21h-24v30q33 0 51 12.5t25.5 41.5t7.5 82v129q0 89 92 104q-92 15 -92 104v129z" />
    <glyph glyph-name="bracketleft.case" horiz-adv-x="288" 
d="M152 700v-700h116v-50h-198v800h198v-50h-116z" />
    <glyph glyph-name="bracketright.case" horiz-adv-x="288" 
d="M20 750h198v-800h-198v50h116v700h-116v50z" />
    <glyph glyph-name="parenleft.case" horiz-adv-x="310" 
d="M280 769q-67 -81 -102.5 -190t-35.5 -232t35.5 -232t102.5 -190h-72q-74 83 -116 192.5t-42 229.5t42 229.5t116 192.5h72z" />
    <glyph glyph-name="parenright.case" horiz-adv-x="310" 
d="M218 576.5q42 -109.5 42 -229.5t-42 -229.5t-116 -192.5h-72q67 81 102.5 190t35.5 232t-35.5 232t-102.5 190h72q74 -83 116 -192.5z" />
    <glyph glyph-name="emdash.case" horiz-adv-x="862" 
d="M822 314v75h-782v-75h782z" />
    <glyph glyph-name="endash.case" horiz-adv-x="552" 
d="M512 314v75h-472v-75h472z" />
    <glyph glyph-name="hyphen.case" horiz-adv-x="354" 
d="M304 314v75h-254v-75h254z" />
    <glyph glyph-name="asterisk.sc" horiz-adv-x="413" 
d="M251 345l87 -110l-64 -41l-68 120l-67 -120l-65 41l88 110l-128 27l22 74l123 -49l-12 135h78l-11 -135l122 49l23 -74z" />
    <glyph glyph-name="periodcentered.sc" horiz-adv-x="332" 
d="M119.5 230.5q-19.5 19.5 -19.5 46.5t19.5 46.5t46.5 19.5t46.5 -19.5t19.5 -46.5t-19.5 -46.5t-46.5 -19.5t-46.5 19.5z" />
    <glyph glyph-name="braceleft.sc" horiz-adv-x="293" 
d="M97 251q49 -8 70.5 -35.5t21.5 -72.5v-35q0 -71 17.5 -98.5t66.5 -27.5v-30h-24q-83 0 -111 41t-28 117v26q0 44 -12 64t-48 20v62q37 0 48.5 20.5t11.5 66.5v23q0 76 28 117t111 41h24v-30q-49 0 -66.5 -27.5t-17.5 -98.5v-39q0 -89 -92 -104z" />
    <glyph glyph-name="braceright.sc" horiz-adv-x="293" 
d="M104 394q0 71 -17.5 98.5t-66.5 27.5v30h24q83 0 111 -41t28 -117v-23q0 -46 11.5 -66.5t48.5 -20.5v-62q-36 0 -48 -20t-12 -64v-26q0 -76 -28 -117t-111 -41h-24v30q49 0 66.5 27.5t17.5 98.5v35q0 45 21.5 72.5t70.5 35.5q-92 15 -92 104v39z" />
    <glyph glyph-name="bracketleft.sc" horiz-adv-x="288" 
d="M70 557h198v-50h-116v-520h116v-50h-198v620z" />
    <glyph glyph-name="bracketright.sc" horiz-adv-x="303" 
d="M25 -13h116v520h-116v50h198v-620h-198v50z" />
    <glyph glyph-name="colon.sc" horiz-adv-x="212" 
d="M60 374h92v-104h-92v104zM60 104h92v-104h-92v104z" />
    <glyph glyph-name="comma.sc" horiz-adv-x="233" 
d="M160 104v-104l-51 -121h-59l68 121h-50v104h92z" />
    <glyph glyph-name="ellipsis.sc" horiz-adv-x="748" 
d="M60 104h92v-104h-92v104zM328 104h92v-104h-92v104zM596 104h92v-104h-92v104z" />
    <glyph glyph-name="emdash.sc" horiz-adv-x="938" 
d="M78 297h782v-69h-782v69z" />
    <glyph glyph-name="endash.sc" horiz-adv-x="628" 
d="M78 297h472v-69h-472v69z" />
    <glyph glyph-name="exclam.sc" horiz-adv-x="270" 
d="M92 332v162h86v-162l-20 -184h-46zM91 92h88v-92h-88v92z" />
    <glyph glyph-name="exclamdown.sc" horiz-adv-x="269" 
d="M89 494h92v-104h-92v104zM92 156l20 184h46l20 -184v-156h-86v156z" />
    <glyph glyph-name="hyphen.sc" horiz-adv-x="404" 
d="M75 297h254v-69h-254v69z" />
    <glyph glyph-name="numbersign.sc" horiz-adv-x="549" 
d="M414 302l-23 -111h95l-12 -56h-94l-28 -135h-65l27 135h-119l-27 -135h-66l28 135h-106l13 56h104l23 111h-105l13 57h103l28 135h65l-27 -135h119l27 135h66l-28 -135h97l-13 -57h-95zM348 302h-119l-22 -111h119z" />
    <glyph glyph-name="parenleft.sc" horiz-adv-x="260" 
d="M154 -83q-56 65 -90 148.5t-34 172.5t34 172.5t90 148.5h56q-43 -64 -67.5 -147t-24.5 -174t24.5 -174t67.5 -147h-56z" />
    <glyph glyph-name="parenright.sc" horiz-adv-x="260" 
d="M97.5 64q24.5 83 24.5 174t-24.5 174t-67.5 147h56q56 -65 90 -148.5t34 -172.5t-34 -172.5t-90 -148.5h-56q43 64 67.5 147z" />
    <glyph glyph-name="period.sc" horiz-adv-x="212" 
d="M60 104h92v-104h-92v104z" />
    <glyph glyph-name="question.sc" horiz-adv-x="389" 
d="M139 160q0 35 10.5 59t26 38.5t39.5 31.5q29 21 42 37t13 43q0 32 -21 52t-59 20q-40 0 -62 -25.5t-22 -72.5h-84q-3 69 37.5 116t130.5 47q86 0 125.5 -40.5t39.5 -94.5q0 -43 -19.5 -67.5t-58.5 -51.5q-33 -24 -50 -43.5t-17 -50.5v-16h-71v18zM131 92h89v-92h-89v92z
" />
    <glyph glyph-name="questiondown.sc" horiz-adv-x="389" 
d="M246 402h-89v92h89v-92zM238 334q0 -35 -10.5 -59t-26 -38.5t-39.5 -31.5q-29 -21 -42 -37t-13 -43q0 -32 21 -52t59 -20q40 0 62 25.5t22 72.5h84q3 -69 -37.5 -116t-130.5 -47q-86 0 -125.5 40.5t-39.5 94.5q0 43 19.5 67.5t58.5 51.5q33 24 50 43.5t17 50.5v16h71v-18
z" />
    <glyph glyph-name="quotedbl.sc" horiz-adv-x="376" 
d="M65 494h87l-9 -215h-65zM224 494h87l-9 -215h-65z" />
    <glyph glyph-name="quotedblbase.sc" horiz-adv-x="404" 
d="M160 104v-104l-51 -121h-59l68 121h-50v104h92zM331 104v-104l-51 -121h-59l68 121h-50v104h92z" />
    <glyph glyph-name="quotedblleft.sc" horiz-adv-x="401" 
d="M180 494l-68 -121h50v-104h-92v104l51 121h59zM283 373h50v-104h-92v104l51 121h59z" />
    <glyph glyph-name="quotedblright.sc" horiz-adv-x="429" 
d="M184 494v-104l-51 -121h-59l68 121h-50v104h92zM355 494v-104l-51 -121h-59l68 121h-50v104h92z" />
    <glyph glyph-name="quoteleft.sc" horiz-adv-x="230" 
d="M112 373h50v-104h-92v104l51 121h59z" />
    <glyph glyph-name="quoteright.sc" horiz-adv-x="202" 
d="M158 494v-104l-51 -121h-59l68 121h-50v104h92z" />
    <glyph glyph-name="quotesinglbase.sc" horiz-adv-x="230" 
d="M160 104v-104l-51 -121h-59l68 121h-50v104h92z" />
    <glyph glyph-name="quotesingle.sc" horiz-adv-x="221" 
d="M67 494h87l-9 -215h-65z" />
    <glyph glyph-name="semicolon.sc" horiz-adv-x="235" 
d="M170 104v-104l-51 -121h-59l68 121h-50v104h92zM78 374h92v-104h-92v104z" />
    <glyph glyph-name="slash.sc" horiz-adv-x="376" 
d="M119 -36h-78l216 562h78z" />
    <glyph glyph-name="at.sc" horiz-adv-x="694" 
d="M346 -59q-91 0 -159.5 37t-105.5 103t-37 150q0 87 40 160.5t113.5 116.5t170.5 43q76 0 142 -28t107 -86.5t41 -145.5q0 -65 -22.5 -112t-60 -71t-81.5 -24q-62 0 -81 51q-34 -52 -97 -52q-55 0 -87.5 35t-32.5 98q0 49 20.5 94t55.5 72t75 27q27 0 52 -13.5t39 -39.5
l11 45h69l-43 -221q-2 -14 -2 -19q0 -29 28 -29q25 0 45.5 21t32.5 57.5t12 80.5q0 97 -58.5 149t-158.5 52q-87 0 -144.5 -39t-84.5 -99t-27 -126q0 -67 27.5 -118.5t79 -80.5t122.5 -29q43 0 89.5 11.5t82.5 32.5v-62q-80 -41 -173 -41zM407 332q-17 23 -46 23
q-40 0 -65.5 -42.5t-25.5 -96.5q0 -42 16.5 -61.5t44.5 -19.5q41 0 67 37t26 93q0 44 -17 67z" />
    <glyph glyph-name="ampersand.sc" horiz-adv-x="532" 
d="M425 0l-45 46q-67 -59 -162 -59q-79 0 -126 39t-47 103q0 50 29 82t84 62q-35 35 -51.5 61t-16.5 60q0 49 36.5 81t101.5 32q64 0 100.5 -31.5t36.5 -84.5q0 -45 -25 -74.5t-71 -56.5l103 -103q19 46 19 100l-1 20h75q2 -49 -8 -94t-31 -80l102 -103h-103zM183 432
q-15 -16 -15 -39q0 -22 13 -40t41 -46q36 20 50.5 37t14.5 40q0 27 -16.5 45.5t-45.5 18.5q-27 0 -42 -16zM331 96l-127 129q-41 -23 -58 -41t-17 -47q0 -39 26.5 -60t70.5 -21q60 0 105 40z" />
    <glyph glyph-name="copyright.sc" horiz-adv-x="628" 
d="M170 19.5q-62 32.5 -96.5 91.5t-34.5 136t34.5 136t96.5 91.5t144 32.5t144 -32.5t96.5 -91.5t34.5 -136t-34.5 -136t-96.5 -91.5t-144 -32.5t-144 32.5zM434 54.5q52 27.5 80.5 77.5t28.5 115t-28.5 115t-80.5 77.5t-120 27.5t-120 -27.5t-80.5 -77.5t-28.5 -115
t28.5 -115t80.5 -77.5t120 -27.5t120 27.5zM208.5 133.5q-39.5 41.5 -39.5 112.5t39.5 113.5t105.5 42.5q60 0 97 -33t40 -87h-68q-1 27 -19.5 44t-49.5 17q-36 0 -56.5 -25t-20.5 -72q0 -46 21 -70.5t59 -24.5q33 0 50 16.5t16 46.5h68q-2 -56 -38 -89t-97 -33
q-68 0 -107.5 41.5z" />
    <glyph glyph-name="registered.sc" horiz-adv-x="496" 
d="M384.5 458q51.5 -49 51.5 -129t-51.5 -128.5t-136.5 -48.5t-136.5 48.5t-51.5 128.5t51.5 129t136.5 49t136.5 -49zM361.5 221q43.5 41 43.5 108t-43 108.5t-114 41.5t-114 -41.5t-43 -108.5t43.5 -108t113.5 -41t113.5 41zM319.5 304q7.5 -12 8.5 -30q1 -19 3 -27.5
t9 -17.5h-46q-11 13 -11 37v13q0 16 -10 23h-62v-73h-44v201h85q40 0 62.5 -15t22.5 -43q0 -22 -13.5 -34.5t-35.5 -16.5q24 -5 31.5 -17zM291 367q0 27 -35 27h-45v-56h45q35 0 35 29z" />
    <glyph glyph-name="trademark.sc" horiz-adv-x="636" 
d="M30 494h237v-47h-93v-202h-51v202h-93v47zM606 494v-249h-51v207l-69 -207h-52l-69 207v-207h-51v249h84l62 -200l62 200h84z" />
    <glyph glyph-name="degree.sc" horiz-adv-x="321" 
d="M95.5 263.5q-30.5 17.5 -48 48t-17.5 65.5t17.5 65t48 47.5t65.5 17.5t65 -17.5t47.5 -47.5t17.5 -65t-17.5 -65.5t-47.5 -48t-65 -17.5t-65.5 17.5zM213 323.5q22 22.5 22 53.5t-22 53t-52 22q-31 0 -53 -22t-22 -53t22 -53.5t53 -22.5q30 0 52 22.5z" />
    <glyph glyph-name="cent.sc" horiz-adv-x="547" 
d="M357 152.5q18 18.5 23 46.5h82q-7 -57 -46 -91.5t-104 -38.5v-69h-58v70q-73 10 -114.5 56t-41.5 121t42 121.5t114 56.5v69h58v-68q64 -5 103 -38t47 -90h-84q-4 27 -21.5 44.5t-44.5 22.5v-236q27 5 45 23.5zM201 174q19 -30 53 -41v229q-34 -11 -53 -40.5t-19 -73.5
t19 -74z" />
    <glyph glyph-name="currency.sc" horiz-adv-x="578" 
d="M476 212l66 -61l-57 -57l-61 67q-61 -43 -134 -43q-75 0 -135 44l-62 -66l-55 56l65 62q-44 60 -44 135q0 73 43 134l-67 61l57 57l61 -66q61 45 137 45q75 0 135 -44l62 65l56 -55l-65 -63q43 -61 43 -134q0 -76 -45 -137zM365.5 215.5q34.5 20.5 55 56t20.5 77.5
t-20.5 77.5t-55 56t-75.5 20.5t-75.5 -20.5t-55 -56t-20.5 -77.5t20.5 -77.5t55 -56t75.5 -20.5t75.5 20.5z" />
    <glyph glyph-name="dollar.sc" horiz-adv-x="547" 
d="M428.5 28.5q-47.5 -38.5 -133.5 -41.5v-63h-50v65q-93 9 -131 59.5t-38 117.5h82q-1 -42 21 -69.5t66 -36.5v164q-75 20 -115.5 49.5t-40.5 90.5q0 59 40 97.5t116 44.5v63h50v-63q90 -6 128 -53.5t41 -108.5h-82q-4 83 -87 94v-149q65 -18 101 -33t58 -43.5t22 -75.5
q0 -70 -47.5 -108.5zM189 330q17 -14 56 -27v134q-36 -4 -54.5 -22.5t-18.5 -45.5q0 -25 17 -39zM367.5 78q25.5 19 25.5 54q0 32 -22 47.5t-76 30.5v-153q47 2 72.5 21z" />
    <glyph glyph-name="Euro.sc" horiz-adv-x="547" 
d="M503 164q-9 -88 -62.5 -130.5t-133.5 -42.5q-85 0 -139 48.5t-72 133.5h-62l15 50h41q-1 8 -1 26q0 14 1 21h-45l14 50h36q16 87 71 136.5t142 49.5q77 0 129 -41t61 -118h-86q-10 88 -105 88q-100 0 -125 -115h167l-12 -50h-162v-20q0 -18 1 -27h147l-13 -50h-127
q12 -52 42.5 -81.5t81.5 -29.5q96 0 110 102h86z" />
    <glyph glyph-name="plus.sc" horiz-adv-x="518" 
d="M451 206h-158v-159h-68v159h-158v68h158v157h68v-157h158v-68z" />
    <glyph glyph-name="minus.sc" horiz-adv-x="518" 
d="M451 274v-68h-384v68h384z" />
    <glyph glyph-name="multiply.sc" horiz-adv-x="525" 
d="M309 240l159 -159l-47 -46l-158 159l-159 -159l-47 46l159 159l-159 159l47 47l159 -159l158 159l47 -47z" />
    <glyph glyph-name="divide.sc" horiz-adv-x="518" 
d="M301 418v-82h-84v82h84zM451 274v-68h-384v68h384zM301 144v-82h-84v82h84z" />
    <glyph glyph-name="equal.sc" horiz-adv-x="518" 
d="M451 355v-68h-384v68h384zM451 192v-68h-384v68h384z" />
    <glyph glyph-name="notequal.sc" horiz-adv-x="518" 
d="M328 287l-58 -95h181v-68h-222l-48 -79h-80l48 79h-82v68h123l58 95h-181v68h222l48 79h80l-48 -79h82v-68h-123z" />
    <glyph glyph-name="greater.sc" horiz-adv-x="518" 
d="M456 287v-94l-394 -139v76l333 110l-333 109v76z" />
    <glyph glyph-name="less.sc" horiz-adv-x="518" 
d="M456 349l-333 -109l333 -110v-76l-394 139v94l394 138v-76z" />
    <glyph glyph-name="greaterequal.sc" horiz-adv-x="518" 
d="M451 353v-94l-384 -134v77l323 104l-323 98v77zM451 68v-68h-384v68h384z" />
    <glyph glyph-name="lessequal.sc" horiz-adv-x="518" 
d="M451 404l-323 -98l323 -104v-77l-384 134v94l384 128v-77zM451 0h-384v68h384v-68z" />
    <glyph glyph-name="plusminus.sc" horiz-adv-x="518" 
d="M451 366v-68h-158v-159h-68v159h-158v68h158v157h68v-157h158zM67 68h384v-68h-384v68z" />
    <glyph glyph-name="approxequal.sc" horiz-adv-x="555" 
d="M485 382q-26 -121 -129 -121q-24 0 -44.5 6.5t-53.5 20.5q-26 11 -44 17t-36 6q-19 0 -37.5 -13.5t-24.5 -36.5h-46q26 121 127 121q25 0 47.5 -7t52.5 -20q26 -12 43 -17.5t34 -5.5q21 0 39.5 13t25.5 37h46zM485 232q-26 -120 -129 -120q-24 0 -44.5 6.5t-53.5 20.5
q-26 11 -44 17t-36 6q-19 0 -37.5 -13.5t-24.5 -36.5h-46q26 120 127 120q25 0 47.5 -7t52.5 -20q29 -12 45 -17t32 -5q21 0 39.5 13t25.5 36h46z" />
    <glyph glyph-name="asciitilde.sc" horiz-adv-x="455" 
d="M435 330q-13 -72 -47.5 -104t-78.5 -32q-27 0 -50 9.5t-55 28.5q-27 15 -42 22t-30 7q-23 0 -41.5 -17t-24.5 -50h-46q14 73 47.5 104.5t77.5 31.5q27 0 49.5 -9t56.5 -28q23 -14 39 -21t32 -7q23 0 41.5 17t25.5 48h46z" />
    <glyph glyph-name="percent.sc" horiz-adv-x="638" 
d="M53.5 278.5q-36.5 30.5 -36.5 98.5t36.5 98.5t92.5 30.5q55 0 91 -30.5t36 -98.5t-36 -98.5t-91 -30.5q-56 0 -92.5 30.5zM443 494h63l-309 -494h-64zM190 316.5q14 22.5 14 60.5t-14 60.5t-44 22.5q-31 0 -45 -22.5t-14 -60.5t14 -60.5t45 -22.5q30 0 44 22.5z
M400.5 17.5q-36.5 30.5 -36.5 98.5t36.5 98.5t92.5 30.5q55 0 91.5 -30.5t36.5 -98.5t-36.5 -98.5t-91.5 -30.5q-56 0 -92.5 30.5zM537 55.5q14 22.5 14 60.5t-14 60.5t-44 22.5q-31 0 -45 -22.5t-14 -60.5t14 -60.5t45 -22.5q30 0 44 22.5z" />
    <glyph glyph-name="perthousand.sc" horiz-adv-x="936" 
d="M53.5 278.5q-36.5 30.5 -36.5 98.5t36.5 98.5t92.5 30.5q55 0 91 -30.5t36 -98.5t-36 -98.5t-91 -30.5q-56 0 -92.5 30.5zM443 494h63l-309 -494h-64zM190 316.5q14 22.5 14 60.5t-14 60.5t-44 22.5q-31 0 -45 -22.5t-14 -60.5t14 -60.5t45 -22.5q30 0 44 22.5z
M403.5 17.5q-36.5 30.5 -36.5 98.5t36.5 98.5t92.5 30.5q55 0 91.5 -30.5t36.5 -98.5t-36.5 -98.5t-91.5 -30.5q-56 0 -92.5 30.5zM698.5 17.5q-36.5 30.5 -36.5 98.5t36.5 98.5t92.5 30.5q55 0 91.5 -30.5t36.5 -98.5t-36.5 -98.5t-91.5 -30.5q-56 0 -92.5 30.5zM540 55.5
q14 22.5 14 60.5t-14 60.5t-44 22.5q-31 0 -45 -22.5t-14 -60.5t14 -60.5t45 -22.5q30 0 44 22.5zM835 55.5q14 22.5 14 60.5t-14 60.5t-44 22.5q-31 0 -45 -22.5t-14 -60.5t14 -60.5t45 -22.5q30 0 44 22.5z" />
    <glyph glyph-name="sterling.sc" horiz-adv-x="547" 
d="M486 22q-52 -34 -107 -34q-28 0 -80 12q-50 12 -78 12q-45 0 -87 -25l-49 64q30 16 50.5 54.5t20.5 83.5l-1 22h-84v55h65q-4 9 -13 26t-14 33t-5 35q0 38 20.5 71.5t62.5 54t104 20.5q106 0 143 -53t34 -114h-84q2 44 -18.5 73.5t-75.5 29.5q-49 0 -73.5 -23.5
t-24.5 -60.5q0 -18 5.5 -32.5t16.5 -37.5q8 -14 11 -22h127v-55h-112v-11q0 -48 -23 -83.5t-47 -51.5l1 -2q31 14 67 14q19 0 59 -6q35 -7 59 -7q48 0 86 29z" />
    <glyph glyph-name="yen.sc" horiz-adv-x="547" 
d="M347 232h97v-53h-128v-50h128v-53h-128v-76h-85v76h-128v53h128v50h-128v53h97l-151 262h96l52 -94q41 -72 76 -148h1q35 76 76 148l52 94h96z" />
    <glyph glyph-name="caron.alt" horiz-adv-x="207" 
d="M157 700l-52 -175h-55l27 175h80z" />
    </font>
</defs>
</svg>
